<?xml version="1.0" standalone="no"?>
<!DOCTYPE svg PUBLIC "-//W3C//DTD SVG 1.1//EN" "http://www.w3.org/Graphics/SVG/1.1/DTD/svg11.dtd" >
<svg xmlns="http://www.w3.org/2000/svg" xmlns:xlink="http://www.w3.org/1999/xlink" version="1.1">
<metadata></metadata>
<defs>
<font id="mistralregular" horiz-adv-x="1024" >
<font-face units-per-em="2048" ascent="1638" descent="-410" />
<missing-glyph horiz-adv-x="512" />
<glyph horiz-adv-x="0" />
<glyph horiz-adv-x="682" />
<glyph unicode=" "  horiz-adv-x="512" />
<glyph unicode="&#x09;" horiz-adv-x="512" />
<glyph unicode="&#xa0;" horiz-adv-x="512" />
<glyph unicode="!" horiz-adv-x="616" d="M151 70q3 42 45 80t85 38q62 0 72 -28l-11 -76q-1 -5 -1 -26q0 -57 -58 -57q-22 0 -55 -9q-21 -6 -32 -6q-27 0 -35 34l-5 20q-5 25 -5 30zM216 300l7 29q3 11 3 14l-8 70l5 34l1 49l14 45q4 13 4 32l-2 49l4 42q0 33 1 35l16 43q4 9 4 25q0 17 -4 45q22 66 22 100 q0 10 -2 37q-2 19 -4 56q-6 -2 -10 -3h-2l-17 11q-3 7 -3 16q0 27 11 63q16 56 16 67l-1 54q0 25 11 59q17 51 41 61l26 10l66 55q48 36 82 38q25 2 25 -49q0 -28 -15 -84q-17 -65 -20 -108l-6 -84l-25 -128l-2 -16l-45 -275l-8 -47l-12 -45l-7 -63l-13 -29q-2 -4 -6 -33 l-8 -60l-5 -54q-4 -21 -38 -49q-18 -15 -28 -25q-36 -33 -53 -33q-10 0 -13 6v13z" />
<glyph unicode="&#x22;" horiz-adv-x="960" d="M257 776v1l7 29q3 11 3 16l-6 69q0 2 1 15l4 67l20 77l-5 49l4 42l1 35l20 67l2 40l19 16l67 55q44 36 81 38q27 1 23 -32l-41 -153l-15 -84l-11 -38l-2 -50l-16 -41q-2 -7 -3 -9l-10 -67l-4 -25l-5 -55q-3 -19 -38 -49q-9 -8 -28 -24q-34 -34 -52 -34q-9 0 -13 5l-1 1z M600 776v1l7 29q3 11 3 16l-6 69q0 2 1 15q3 63 4 67l20 77l-4 49l4 42l1 35l20 67l2 40l19 16l67 55q43 36 81 38q26 1 22 -32l-41 -153l-15 -84l-11 -38l-2 -50l-16 -41q-2 -7 -3 -9l-10 -67l-4 -25l-5 -55q-3 -19 -37 -49q-10 -8 -29 -24q-34 -34 -52 -34q-9 0 -13 5 l-1 1z" />
<glyph unicode="#" horiz-adv-x="929" d="M8 444l13 39l12 17l10 28q22 65 122 77q29 4 49 10q5 14 6 17l15 54q12 44 12 55q0 19 -16 19q-3 0 -15 -5q-7 -3 -39 -7l-66 -10h-1q-17 0 -18 14q-2 16 13 38l19 29q1 2 10 27q15 39 31 46l72 18l12 3q13 3 42 8q14 61 36 118q9 20 9 34q2 37 5 42l8 14q4 7 4 39 q0 96 60 129l66 37q13 8 24 16q20 15 26 15q18 -1 18 -25q0 -17 -7 -46q-1 -4 -4 -26q-3 -16 -11 -58l-23 -114q-3 -10 -18 -52q-16 -42 -42 -128q67 11 98 11q19 0 52 -3q3 11 4 14l40 128l1 26q1 9 5 23l8 30q3 11 4 24l2 41q3 54 52 82l91 54l14 11q11 7 17 7 q19 -2 19 -29q0 -20 -8 -41q-3 -9 -4 -11l-2 -31q0 -2 -6 -20q-7 -18 -14 -62q-10 -63 -31 -126q-11 -36 -32 -108l30 3q28 4 38 5l32 1q16 1 28 5q13 5 21 5q10 1 10 -16q0 -12 -18 -30q-4 -4 -15 -19q-12 -16 -30 -26l-48 -29q-48 -19 -97 -19l-12 -52l-11 -35 q-24 -82 -34 -104q32 5 72 8q36 6 67 9q14 1 21 3q7 3 10 3q11 1 11 -17q0 -10 -25 -39l-18 -21q-44 -49 -178 -63l-2 -7q-9 -26 -28 -86q-8 -23 -9 -30l-16 -77l-18 -71l-26 -113q-7 -29 -7 -33l-5 -80q-1 -9 -26 -9q-4 0 -6 2l-11 8q-2 2 -4 2l-10 3q-19 6 -19 61l1 16v49 q0 23 5 37l9 22q2 5 2 13l3 32q1 4 4 26l7 53q3 23 6 33l6 22q4 18 10 54l9 53q-25 -3 -37 -5q-54 -8 -59 -8q-100 0 -116 -74q-2 -14 -9 -39l-25 -102q-25 -98 -28 -116l-10 -53q-7 -33 -6 -40l4 -40q0 -3 -1 -4q-6 -7 -25 -5q-9 1 -14 6l-3 4l-10 3q-23 5 -23 54v25v49 q0 22 6 37l10 31q2 5 2 24q0 45 15 112q5 17 6 23l8 46q1 8 8 34q-28 -7 -59 -9q-38 -3 -50 -5q-25 -5 -40 -5q-13 0 -16 8zM336 603l10 3q64 13 102 13q26 0 67 -4q20 49 47 180q-26 -3 -34 -4l-58 -9q-35 -5 -77 -5q-9 -37 -13 -48l-24 -54q-8 -18 -20 -72z" />
<glyph unicode="$" horiz-adv-x="732" d="M5 36q0 28 47 58q10 6 28 20q15 11 28 17q44 20 52 25q37 23 41 24q16 6 17 7l9 6q3 2 28 15q6 3 18 10q23 7 24 27l2 16q3 25 3 56v49l6 134l-2 13q-2 5 -19 19q-1 1 -27 32q-9 12 -19 20l-44 32l-37 40l-22 22l-25 39l-57 86q-15 22 -15 121q0 39 55.5 130t102.5 128 q39 31 45 37l24 21q5 5 33 24q36 24 36 58q0 18 3 55q1 14 4 21l8 23l-10 23l1 23q1 7 1 18q0 15 33 20l14 2l17 -4l37 1l4 -3q4 -3 8 -12q1 -2 4 -7v-5l-2 -17l2 -26v-18l1 -11l-2 -13q-2 -5 -6 -11q-3 -6 -3 -9q1 -9 11 -9q8 0 21 8q72 46 142 46q45 0 45 -48v-1l5 -36 q1 -5 1 -8q0 -52 -52 -91q-2 -1 -16 -13l-52 -41l-12 -10q-18 -15 -41 -31l-26 -17q-14 -10 -20 -12q-32 -15 -32 -80v-35l-1 -90l2 -84l-2 -72q0 -21 -4 -44q-2 -17 -2 -25q0 -7 9 -15q158 -150 165 -259q1 -12 -3 -23v-1l2 -6q5 -11 16 -16q19 -11 22 -14l1 -6 q2 -10 2 -17q0 -19 -5 -22l-75 -49q-6 -4 -18 -17q-34 -41 -53 -55q-19 -15 -51 -44q-39 -36 -68 -52q-23 -12 -23 -51q0 -45 -10 -98q-3 -15 -5 -27q-1 -10 -8 -9q-49 5 -49 18q0 64 4 85q2 8 2 15q0 5 -3 6q-1 0 -4 -1l-10 -5l-30 -20l-10 -4l-32 -15l-32 -9 q-24 -7 -34 -8q-113 -9 -113 76zM225 947q0 -1 16 -36l17 -40l35 -54q13 -19 17 -19q13 1 7 19l-8 24l1 154q0 63 5 114q1 8 1 12t-1 9l-1 4l-4 -3l-8 -8l-12 -11q-61 -57 -61 -133v-7zM360 251q0 -9 9 -8l30 24l40 27q10 7 10 25q0 13 -5 29l-4 13l-31 44q-14 20 -20 22 q-8 -5 -8 -52q0 -84 -9 -97q-12 -16 -12 -27z" />
<glyph unicode="%" horiz-adv-x="1218" d="M27 790l7 40l-1 6q-5 33 -5 62q0 6 1 10l7 22l16 61l11 37l9 41q2 8 8 28q3 18 9 19q1 0 4 -1q6 40 21 71q12 21 13 25l9 36q0 1 10 21q7 15 11 31q15 52 62 66l22 6l13 4l38 -24l7 6q34 29 65 29q11 0 16 -3l14 -5l5 1q11 4 13 4q32 0 64 -81t32 -160q0 -75 -22 -163 l-26 -101q-19 -76 -38 -103l-9 -12l-30 -43l-12 -16q-9 -13 -16 -27q-42 -88 -81 -98l-22 -4l-37 -16l-13 2l-53 9q-32 6 -73 45t-41 64l4 26l-2 24v12l-9 43zM157 796q-6 -93 65 -97q9 0 16 4l18 16l41 25l29 48l18 27q55 85 55 228q0 167 -89 167q-134 -41 -142 -170 l-1 -18v-12l10 -48l-19 -50l6 -49zM172 -16q0 32 8 54l23 54l4 13q4 9 16 28q19 76 54 120l13 17q9 12 22 42l78 184q2 5 33 63q11 20 15 32q10 29 21 39q14 13 16 17l10 22q1 1 16 24q11 16 33 69q28 67 62 114q12 16 13 20l8 30q3 10 9 19l19 32q1 1 15 32l35 74l12 26 l17 28q3 5 8 22q12 23 15 35l6 22l16 26q6 10 13 38q31 136 80 144l17 2q7 1 37 17q43 22 61 22q10 0 10 -14q0 -30 -22 -82q-25 -57 -38 -103l-16 -56l-32 -77q-48 -115 -50 -117l-34 -46q-25 -32 -71 -135q-14 -32 -22 -45l-49 -79l-33 -74q-4 -8 -28 -49q-14 -25 -27 -50 l-16 -32q-9 -18 -32 -53q-38 -58 -49 -82q-23 -56 -25 -59l-17 -22q-5 -6 -31 -54l-30 -55q-43 -79 -56 -126q-15 -53 -17 -57q-17 -34 -18 -35l-4 -23l-32 -22q-18 -17 -37 -18q-29 -2 -29 84zM669 223l7 40l-1 7q-5 38 -5 61q0 7 1 10l7 22l16 62l11 36l9 41q1 8 8 28 q2 17 9 19h4q5 39 21 70q11 22 12 25l10 36l9 21q7 15 12 31q15 52 61 66l23 6l13 4l38 -23l7 6q34 29 65 29q10 0 16 -3q12 -6 13 -6q2 0 6 1q11 5 13 5q31 2 63.5 -80t32.5 -162q0 -74 -22 -163l-26 -101q-19 -76 -38 -103l-9 -12l-30 -43l-12 -16q-9 -13 -16 -27 q-42 -88 -81 -98l-22 -4l-37 -16l-13 2l-53 9q-31 5 -72.5 44.5t-41.5 64.5l3 26l-2 24v12q0 3 -8 43zM799 229q-6 -93 65 -97q9 -1 16 4l18 16l41 25l29 48l18 27q55 85 55 228q0 167 -90 167q-135 -41 -142 -170l-1 -18v-11l11 -49l-11 -15q-10 -13 -8 -34l6 -49z" />
<glyph unicode="&#x26;" horiz-adv-x="1224" d="M90 987l6 92v5q0 292 173 292q17 0 41 -6l59 -11l53 -38q27 -16 42 -33l21 -22l20 -11l37 -47l34 -38q14 -16 37 -65q1 -19 4 -23l16 -25q37 -59 45 -58q13 1 35 32l53 75l69 89l44 60q11 15 20 17l33 3l39 6l25 -9q11 -7 11 -15q0 -28 -34 -86l-32 -53q-33 -55 -52 -100 q-22 -50 -30 -61l-35 -51q-2 -2 -17 -57q-11 -40 -37 -79q-41 -62 -41 -90q0 -16 4 -36q4 -19 4 -22l-7 -63l6 -39q0 -5 -14 -60q-1 -5 -1 -8q2 -41 78 -41l85 10l26 -4q28 -2 81 22q22 6 29 10l30 16l41 20q15 8 22 8q15 0 15 -23q0 -32 -18 -43l-38 -25q-4 -3 -28 -37 q-40 -56 -99 -74l-45 -8l-42 -17q-25 -10 -41 -9l-131 10q-14 1 -22 -6l-17 -20l-15 -12q-4 -4 -15 -38q-50 -147 -195 -147q-42 0 -42 65q0 17 3 26l14 37l1 39q0 15 19 66q16 43 18 77l1 17v3l-12 21l-32 26q-15 12 -59 63l-64 74q-108 125 -162 356l-10 41q-7 30 -7 32z M215 1108q0 -2 10 -73l7 -49l10 -53l-2 -14l-4 -17l18 -47l43 -89q25 -50 97 -128.5t93 -78.5q11 0 17 7l22 47l21 35l5 27q3 11 23 46q20 33 19 39q-1 5 -8 6q-17 3 -42 -31q-14 -20 -21 -19q-8 1 -8 8l1 5l7 42q2 9 24 39q48 65 47 87q0 6 -13 34q-6 16 -7 28l-2 44 q0 11 -26 34q-3 3 -52 92q-80 146 -182 146q-69 0 -87 -99l-6 -35q-4 -20 -4 -33z" />
<glyph unicode="'" horiz-adv-x="616" d="M257 776v1l7 29q3 11 3 16l-6 69q0 2 1 15l4 67l20 77l-5 49l4 42l1 35l20 67l2 40l19 16l67 55q44 36 81 38q27 1 23 -32l-41 -153l-15 -84l-11 -38l-2 -50l-16 -41q-2 -7 -3 -9l-10 -67l-4 -25l-5 -55q-3 -19 -38 -49q-9 -8 -28 -24q-34 -34 -52 -34q-9 0 -13 5l-1 1z " />
<glyph unicode="(" horiz-adv-x="537" d="M116 472q0 272 131.5 593t245.5 328q19 1 17 -17q-2 -23 -23 -72l-15 -47l-87 -232q-105 -284 -116 -446l-3 -45l-7 -92l13 -90q20 -91 44 -147l70 -136l26 -52q21 -42 23 -72q2 -42 -43 -42q-7 0 -33 3q-98 23 -170.5 192t-72.5 374z" />
<glyph unicode=")" horiz-adv-x="570" d="M63 -85q1 8 9 21q8 11 26 61q7 19 53 109q18 35 28 59l49 125l21 53q23 58 41 124l15 59l31 119q13 59 13 132q0 59 -6 96l-14 77l-12 97q-22 172 -102 233l-39 30q-3 4 -3 12q-3 70 92 76l47 -12q17 -4 19 -5l22 -21l20 -20q17 -15 32 -68l38 -127q49 -162 49 -250 q0 -313 -150 -630q-80 -169 -92 -199q-65 -157 -168 -164q-21 -2 -19 13z" />
<glyph unicode="*" horiz-adv-x="661" d="M109 1275l11 28l4 11q6 14 22 14t45 -39t61 -61l7 -4q22 -19 39 -37q33 -34 46 -33q16 1 14 22l-3 42l4 78q0 35 -7 81q-1 8 -1 14q0 9 6 12l32 12l10 5q4 1 7 1q45 -3 45 -51q0 -70 -16 -129q-7 -27 -6 -37q2 -16 1 -18l-7 -13q-8 -15 12 -14q7 0 23 14l38 34l29 24 l19 23l32 26q12 10 16 20l6 20l3 3q8 9 16 9q55 0 55 -53q0 -41 -151 -142q-56 -37 -57 -45q-1 -10 23 -16q2 -1 34 -16l44 -20l56 -27l38 -8q16 -4 16 -21q0 -47 -61 -47q-26 0 -100 52q-51 34 -73 36q-11 1 -11 -16q0 -7 2 -23q2 -22 2 -38q0 -53 3 -75l3 -26q1 -14 4 -18 l9 -17l1 -5l-3 -10q-11 -12 -42 -12q-58 0 -51 26l4 15l-11 27l2 42v56q0 18 3 34q1 5 1 8q1 16 -13 16q-6 0 -13 -4l-33 -23l-61 -40q-25 -16 -29 -18l-17 -5l-19 -5q-2 -1 -4 -1l-18 8l-15 6q-23 10 -23 30q0 14 55 38q32 13 57 28l14 9l26 14l33 19q20 11 20 21t-7 15 l-9 6l-7 7l-36 23l-66 48l-55 28q-18 12 -23 37l-3 15q-2 9 -2 10z" />
<glyph unicode="+" d="M44 565q1 8 7 24q6 15 6 40v21q-2 8 -2 11q0 6 1 15l1 3q5 7 17 7h14h44l19 -1l21 2q16 1 19 1l100 -17l51 13l92 -2h16q3 24 3 34q0 11 2 15l4 12l-3 8l1 4q7 16 7 21q0 1 -7 24q0 1 11 77l7 90l6 66q0 46 30 46l56 -2l26 1q26 -3 28 -24q0 -3 -3 -13q-6 -22 -8 -66 q-8 -128 -14 -170q-4 -19 -4 -21l-1 -44q0 -18 -5 -38l-3 -11q0 -1 -1 -7q10 -3 13 -3l35 4l13 -9q1 0 4 3q5 5 7 5q1 0 5 -1l15 -2l5 -5l19 9l27 -12l89 11l17 -2q27 5 39 2l36 -8l29 8q45 9 47 -28q0 -3 -5 -21q-3 -11 -3 -34q0 -55 -34 -55q-13 0 -27 2q-43 7 -48 6 l-33 -8l-79 9l-31 -12l-34 11q-1 0 -11 -4q-11 -4 -22 -4q-10 0 -34 4q-30 4 -37 4q-4 0 -18 -4q0 -45 -1 -62t-4 -45q-5 -50 -11 -89q-1 -12 -1 -14l8 -54l-8 -33l-6 -33l-7 -34q-1 -5 -2 -13q-2 -23 -13 -23q-12 0 -23 5q-14 6 -16 6l-35 -7q-5 -1 -17 -1h-19 q-9 10 -10 16q0 2 3 15q1 2 2 30q1 8 3 14l5 20l-2 20q-1 5 -1 12q0 31 9 57q11 33 11 36l-12 70l20 113l-97 -2q-49 0 -67 -2l-49 -7l-24 -1q-38 -3 -40 -3q-16 0 -49 8q-20 4 -29 5q-8 1 -20 1q-14 0 -19 6q-1 1 -1 4z" />
<glyph unicode="," horiz-adv-x="453" d="M38 -260q0 6 4 17l11 32q60 173 61 183l6 57l7 42v4q0 16 -6 41q-2 13 -2 19l3 17l6 32q8 48 58 48q7 0 18 -2l17 -2q59 -16 74 -84l11 -45l5 -21l-2 -15q-5 -18 -39 -80q-6 -12 -7 -15l-16 -54q-56 -184 -131 -191q-9 -1 -22 2q-4 0 -31 -1q-13 -1 -19 3q-7 4 -6 13z " />
<glyph unicode="-" horiz-adv-x="515" d="M-12 361q1 14 21 31l17 15q8 7 13 22q8 24 12 28l18 6q18 6 26 6q6 0 22 -7q18 -7 25 -7l68 13l91 -3q17 0 34 1q25 2 62 2q52 0 52 -56q0 -80 -66 -80l-61 6l-31 -3l-26 3l-71 -13q-10 0 -30 4q-62 11 -70 10l-61 -7q-23 -3 -40 17q-5 6 -5 12z" />
<glyph unicode="." horiz-adv-x="453" d="M111 132l9 24l9 43q7 31 41 31q47 0 89 -55q6 -17 9 -23l12 -26q11 -23 11 -60q0 -29 -11 -37l-19 -14l-5 -14q-7 -17 -26 -17q-84 0 -117 115q7 6 7 7z" />
<glyph unicode="/" horiz-adv-x="777" d="M54 46l4 23q3 18 4 22l12 28q1 2 5 23q10 54 68 149q9 32 41 91q17 32 52 109q22 50 43 93q19 39 22 46q32 67 35 72l34 60l42 86l57 104l21 52l39 71l36 117l8 20q5 11 16 52q10 34 19 60l34 92q18 48 41 50q23 1 32 6l26 13l23 6q18 4 33 4q29 0 32 -14q0 -2 -2 -8 q-7 -23 -29 -122q-24 -109 -118 -286q-38 -70 -53 -108q-25 -61 -28 -65l-44 -71q-5 -9 -45 -87q-12 -25 -52 -96l-107 -193l-77 -136q-9 -17 -15 -33l-41 -100l-30 -63q-18 -41 -18 -67v-26l-2 -6q-14 -65 -89 -69q-13 -1 -18 9l-2 18z" />
<glyph unicode="0" horiz-adv-x="921" d="M69 454q0 8 6 44q3 18 3 95q0 24 10 86l16 100q15 91 24 118l26 83l6 34q4 22 17 52q27 63 29 80l6 36q1 4 18 34q9 15 14 33q28 88 84 93q41 3 35 -24l-12 -59l1 -4l2 -1l9 8l6 4q16 10 36 33q16 19 24 25l20 15l24 19q54 41 125 41q39 0 57 -15l11 -10l37 -27l7 -7 l29 -23q9 -6 11 -10l22 -35l18 -24q57 -77 57 -238l-1 -58l3 -83q0 -29 -8 -87q-8 -57 -9 -73q-7 -51 -9 -60l-21 -79l-14 -59q-3 -10 -10 -25q-18 -41 -19 -49l-4 -26q-4 -23 -12 -35l-11 -17l-23 -55q-2 -5 -17 -34l-27 -51q-73 -140 -187 -206l-27 -15q-23 -14 -44 -14 q-8 0 -17 1q-24 4 -27 4l-46 -3q-9 -1 -37 12q-150 82 -173 198l-12 57l-14 48q-6 22 -6 49q0 19 3 63l1 8q-10 23 -10 33zM253 552l10 -47q3 -16 3 -50q0 -83 32 -173q22 -117 88 -117q44 0 73 26l45 38l12 20l33 39q6 6 24 47q6 11 12 23q11 19 12 21l15 35l14 24l24 59 l31 75q4 8 13 56l6 32q17 87 17 131q0 6 -1 28l-4 53q-17 281 -227 281q-50 0 -122 -58t-64 -92l6 -26q0 -1 -1 -5l-11 -47q-34 -137 -34 -191l4 -104z" />
<glyph unicode="1" horiz-adv-x="792" d="M41 648q0 34 26 65q26 30 36 46l9 14q5 8 12 17q22 29 23 31q10 15 12 17l32 27l17 30q4 8 13 19l38 45l8 10l24 28l17 24l32 32q9 8 39 45l13 16l39 47q9 11 15 19q16 22 25 27l12 8l22 26q31 35 58 35l34 -8l20 -5q67 -15 67 -92q0 -10 -3 -32q-1 -8 -4 -57 q-2 -26 -8 -49q-5 -26 -5 -84q0 -23 -4 -40l-6 -27v-33q0 -21 -6 -46l-4 -18q-4 -13 -6 -27l-6 -47q-4 -29 -13 -52q-14 -38 -12 -43l12 -36l-30 -127q0 -14 -1 -17l-10 -43l-3 -16l-10 -58q-1 -6 -2 -16q-4 -31 -6 -40l-1 -6q-6 -21 -9 -30l-8 -19q-1 -2 -4 -28 q-1 -6 -15 -63q-5 -18 -7 -34l-2 -16q-5 -26 -21 -53q-12 -20 -13 -22l-17 -48q-1 -4 -15 -18q-28 -30 -42 -48q-38 -53 -73 -53q-30 0 -30 25q0 4 10 39l12 53l13 41l11 60l22 91v27l9 65q1 2 6 18q8 23 8 38v7l3 20l4 34q2 10 9 43q12 56 16 113q2 26 3 31l7 24l3 28l6 16 l-2 6l-8 17l9 45l-1 31l5 46q2 16 3 33q2 25 2 28l12 65q5 69 -15 69q-7 0 -11 -4l-26 -25q-2 -3 -12 -10q-22 -17 -40 -35q-25 -26 -31 -30l-13 -11l-8 -7l-21 -11l-18 -27q-6 -10 -28 -30q-26 -23 -48 -49q-16 -20 -19 -23l-45 -40l-65 -65l-13 4q-6 17 -7 26v9z" />
<glyph unicode="2" horiz-adv-x="816" d="M13 34q0 5 5 18l10 21q16 33 19 39l24 32l16 25q12 19 45 54q39 40 61 74q17 25 49 59q9 10 12 15l14 21q7 11 23 29q35 38 41 45l19 27l52 64l10 15q19 28 22 32l25 27q1 2 13 24q7 13 19 31l36 53q66 95 66 162q0 73 -76 97l-26 8l-33 14q-33 14 -57 19q-15 3 -28 3h-8 l-28 -1h-15q-9 -1 -28 -5q-16 -4 -43 -10q-90 -20 -108 -119q-2 -15 -11 -25l-19 -20q-11 -11 -19 -11q-13 0 -22 18l-14 32l-17 31l-6 27q-9 32 -9 37v3l9 34l-9 19q-1 4 -1 8q0 10 7 31q3 8 10 35q18 63 62 82l39 15l28 22l37 5q4 1 26 9q16 6 33 7q15 1 32 1h21h14l12 -1 l24 -2h38l77 -14l14 1q18 -10 37 -11q23 -2 43 -17q8 -6 39 -21q79 -37 98 -85l7 -22l13 -29q12 -29 14 -61l-3 -36l-2 -47q-5 -85 -126 -275q-14 -22 -18 -28l-20 -32q-12 -20 -54 -65q-23 -39 -49 -72q-23 -30 -60 -86q-20 -31 -29 -42l-40 -49q-98 -119 -98 -153 q0 -16 36 -23l26 -5l54 -5l31 -3l29 3l45 -3l21 1l39 1l54 2l31 -7l43 9l54 3l43 9q4 1 9 1q37 0 39 -27q5 -49 -60 -86q-13 -8 -34 -30q-56 -26 -119 -26q-27 0 -36 -5l-27 -17h-5q-4 -1 -14 -4q-14 -5 -18 -5l-35 3l-111 -16q-23 -4 -31 -4q-15 0 -54 5q-8 1 -10 1l-70 1 l-30 9q-14 4 -41 8q-76 11 -82 57q-4 31 -6 36q-10 28 -10 31z" />
<glyph unicode="3" horiz-adv-x="791" d="M-32 -96q2 20 33 39l19 12l6 4q20 14 57 31q19 9 24 13l33 22l25 15l24 17q25 17 36 20l15 5q7 2 22 17q23 11 29 16l44 34l118 77l59 56q24 22 25 38q2 28 -120 62q-20 8 -30 11l-79 26l-24 12l-52 15q-55 19 -55 53l1 21l-4 22q-3 34 64 114q67 79 105 137l32 49 l74 103l46 79q14 22 15 33q1 13 -16 19l-30 5l-27 5l-21 -3l-47 -5l-17 -2l-49 -4l-33 -12l-37 -8l-58 -17q-41 -12 -46 -15l-15 -8q-18 -10 -37 -10q-36 0 -36 38q0 22 7 42l15 47q50 154 210 154q18 0 21 1l26 13q5 2 62 6l137 8l16 -2q187 -29 187 -144q0 -57 -37 -110 l-31 -41l-21 -34l-36 -45l-60 -81l-19 -22q-17 -20 -44 -60l-46 -70q-25 -37 -29 -43l-18 -38q-9 -18 -9 -23q-1 -10 27 -26l23 -10l24 -12l71 -27l42 -17l29 -12q147 -59 147 -185l-1 -11l-5 -47q-5 -49 -122 -142l-60 -46l-4 -4q-31 -29 -62 -45l-7 -3l-50 -30l-25 -10 q-4 -2 -22 -15q-8 -7 -11 -9l-42 -24l-35 -21q-6 -3 -30 -5q-28 -3 -51 -14q-40 -19 -49 -18l-8 1l-36 1l-23 5l-6 -1q-50 -10 -56 -10q-65 0 -62 43z" />
<glyph unicode="4" horiz-adv-x="805" d="M24 371l2 17q3 21 3 96q0 297 93 511q16 37 16 58q0 9 -7 15l-11 9q-3 2 -3 8q2 35 26 92q2 5 15 42q10 28 16 34l11 9l20 17q105 89 167 85q36 -2 36 -50q0 -14 -17 -45q-12 -23 -44 -123q-4 -12 -25 -70q-69 -192 -97 -311q-21 -86 -24 -93l-17 -52q-30 -88 -30 -175 q0 -81 117 -87q28 -2 46 -7q23 -7 26 -7l35 8l50 -1l29 5l11 1q13 3 14 26l3 74q1 10 4 27l9 42q1 7 3 38q5 106 14 153l10 54q12 62 12 102q0 32 23 57q42 38 59 37l24 -8l37 -11q68 -19 66 -54q-2 -26 -17 -77q-6 -19 -18 -91q-7 -42 -22 -104q-16 -66 -20 -91 q-14 -86 -17 -95q-4 -14 -4 -25q0 -27 23 -28q3 0 15 3l41 12q13 4 46 22q19 10 34 11q29 2 29 -45q0 -27 -3 -31l-53 -35l-27 -22l-57 -32l-27 -18q-52 -31 -57 -61q-2 -14 -9 -38q-9 -33 -9 -47l1 -23l-19 -128q-7 -75 -15 -93q-7 -14 -6 -16l9 -31q1 -2 -4 -9 q-6 -10 -30 -30q-14 -12 -24 -21l-4 -4q-18 -18 -35 -18q-31 0 -31 46v17l2 52q0 22 5 68q4 37 4 42l3 45l3 27q1 5 1 16v29q0 12 5 33q5 22 6 39q2 28 -29 28q-4 0 -9 -1l-42 -8l-29 -2l-93 -11l-35 2l-28 2q-169 12 -169 154l-1 39z" />
<glyph unicode="5" horiz-adv-x="820" d="M2 7q0 9 3 21l2 7q7 10 40 10q22 0 55 8q31 8 44 10l40 2l50 14l38 9l48 14l47 13q10 3 15 5l35 14l41 11q105 32 102 73q-2 34 -31 56l-18 12l-31 31q-4 3 -7 5l-49 35l-23 19l-53 40q-3 2 -15 12q-26 22 -41 32l-21 14q-48 32 -66 52l-14 14l-48 39l-9 10l-19 19 l-11 15l-41 52q-13 19 -20 59l-3 15q-4 22 -4 30v6l1 50q0 148 64 228q14 18 21 41l29 59l9 18q34 72 105 72q7 0 13 -1l11 -1l30 4h7q11 -1 21 -1q54 0 76 5q13 2 15 2l21 -3l74 9q4 0 21 -2q29 -5 46 -5q15 0 34 2q14 1 17 1q20 0 50 -4l9 -1l59 9l13 -6q21 -13 21 -36 q0 -4 -1 -6l-14 -25l-15 -35q-2 -4 -5 -7l-12 -13q-8 -9 -20 -33q-13 -7 -19 -12q-38 -26 -62 -27q-15 -1 -101 -18q-32 -7 -57 -8l-59 -4l-61 -10q-184 -29 -184 -246q0 -66 77 -126l39 -28l30 -24l57 -37l46 -35l54 -35l50 -37q9 -6 70 -47q128 -86 128 -217 q0 -110 -152 -200.5t-336 -90.5q-23 0 -35 4l-26 10q-4 2 -53 5q-142 10 -142 84z" />
<glyph unicode="6" horiz-adv-x="800" d="M7 451q0 13 1 28l2 35l1 36q12 226 146 368l43 46l36 56l48 53l24 28q5 6 30 29l22 22q87 85 131 118q123 92 134 104q13 15 34 20q13 0 18 7l8 10l20 6l20 5l42 -15q36 -11 34 -29q-1 -8 -10 -16l-22 -21l-34 -33l-36 -30l-31 -36l-47 -48q-21 -21 -35 -44 q-25 -38 -33 -44l-31 -28l-14 -34q-7 -15 -35 -27l-2 -1q-6 -4 -15 -19q-3 -5 -34 -42q-12 -14 -27 -38q-30 -49 -46 -70q-23 -31 -34 -50l-29 -50q-9 -14 -12 -22l-1 -2l2 -4l28 9l11 -7l44 -34l15 -18q3 -2 31 -19l12 -7l16 -8q29 -14 50 -36q24 -24 42 -40 q72 -63 118 -134l41 -68l10 -16q49 -82 49 -208q0 -225 -294 -225q-162 0 -269 136l-68 85l-19 23q-2 3 -11 25q-5 12 -20 39q-54 99 -54 235zM150 361q0 -165 144 -234l45 -21l25 -13q46 -18 90 -18q104 0 104 82q0 47 -28 99q-32 57 -36 77l-5 20q-5 24 -54 89 q-4 5 -25 35l-38 53q-52 72 -67 88q-25 27 -29 41l-7 30q-1 4 -7 5q-14 2 -31 -44q-7 -20 -20 -47q-15 -34 -17 -40l-21 -66q-23 -71 -23 -136z" />
<glyph unicode="7" horiz-adv-x="713" d="M-102 1347q0 60 40 58q4 0 6 -1l21 -6l47 -9q34 -7 54 -13q19 -6 22 -7l14 -1q20 -2 53 -15q50 -19 65 -22l25 -5q30 -6 90 -36q32 -16 43 -20l12 -4q49 -15 86 -44l16 -13l13 -11l18 -15l15 -7q4 -2 45 -49l21 -23q21 -24 28 -56l3 -12l12 -44q5 -20 5 -37l-4 -39 l-6 -58q-1 -8 -7 -34l-25 -97l-4 -16q-15 -59 -43 -123q-8 -20 -10 -28l-3 -16q-1 -3 -4 -9q-12 -18 -13 -19l-4 -12l-14 -36l-7 -31l-16 -32q-7 -14 -16 -44q-14 -44 -20 -59l-6 -14l-22 -48l-5 -11q-4 -10 -19 -72l-5 -21q-12 -54 -50 -124q-10 -19 -11 -25l-5 -40 q-3 -16 -15 -24l-24 -12l-42 -41q-7 -6 -25 -10l-8 -1l-26 18q-9 9 -10 17q0 4 6 23q1 6 3 20l6 39q5 34 9 73q3 35 23 75q4 41 20 89q2 7 23 87q6 20 11 36l26 79l10 54q5 25 25 82q25 72 32 102l16 77q8 35 28 85q6 17 7 19l13 40l17 53q10 33 10 62q0 37 -21 50l-36 18 l-33 17l-49 9l-66 19l-50 7q-8 2 -28 8q-49 16 -69 18l-24 2q-5 1 -10 1l-58 9l-30 5q-46 9 -46 46q-50 105 -50 149z" />
<glyph unicode="8" horiz-adv-x="908" d="M118 841q0 81 50.5 172t93.5 88q11 -1 19 -12l6 -10l-26 -83l2 -37q5 -95 63 -169l51 -68q45 -59 63 -60q4 0 9 4l19 20l16 8l2 2q4 5 8 18q5 16 33 53q216 284 216 415q0 75 -128 75q-109 0 -193 -33l-75 -30q-45 -18 -56 -24q-53 -30 -68 -30q-47 0 -47 44q0 17 8 31 l30 37l29 36q103 128 218 141q24 2 27 5l17 16q2 2 11 2q8 0 16 -3l15 -5l37 10q9 3 13 3q7 -1 31 -11l96 -42q29 -13 51 -39l24 -31l29 -34q53 -68 53 -188v-2l-1 -8l-1 -9l-2 -54q0 -10 -5 -30l-18 -66l-14 -54l-19 -37l-24 -46q-4 -7 -43 -58l-77 -102q-8 -11 -21 -26 q-37 -42 -41 -48l-14 -20q-13 -20 -14 -29q-1 -7 15 -23q106 -110 106 -227q0 -99 -87 -182l-35 -27l-29 -23q-105 -83 -203 -78l-52 6l-37 3q-103 10 -127 82l-10 27l-8 25l2 38l-2 23q-1 9 -1 14q0 95 148 264q16 19 24 29q32 40 37 45q20 20 20 30q0 9 -16 22l-34 27 q-180 139 -180 243zM277 135q0 -15 28 -42q35 -11 65 -11q9 0 13 1l30 8l17 5q135 38 135 172q0 51 -52 109l-15 17q-17 19 -24 19q-15 0 -33 -28l-14 -20l-30 -34q-13 -14 -32 -43q-23 -35 -36 -49q-52 -53 -52 -104z" />
<glyph unicode="9" horiz-adv-x="864" d="M8 692q0 9 3 20l7 23l-2 35l24 65q22 39 37 70q42 81 86 139q18 24 52 71q26 40 43 57l23 22l20 19q21 20 24 23l23 25q66 75 129 114l48 27l30 20l28 14l20 12q2 1 5 1q4 0 23 -7q2 -1 24 -5q123 -21 123 -104q0 -33 -60 -45q-40 -9 -114 -66l-72 -55q-30 -23 -62 -56 l-60 -62l-38 -35q-14 -12 -47 -53q-17 -20 -33 -38q-36 -42 -63 -80q-36 -53 -42 -92q-4 -19 -5 -25q-3 -8 -3 -13q-1 -5 2 -6l1 -1l7 -1l24 9q2 0 20 8q53 22 104 64l27 23l54 37q114 81 243 230q59 69 95 69q61 0 61 -55q0 -66 -30 -184l-55 -219l-12 -65q-7 -27 -23 -61 q-22 -49 -24 -56l-14 -75q-1 -5 -8 -28q-12 -34 -17 -55q-9 -33 -16 -42l-12 -16q-7 -9 -8 -20l-4 -36q-6 -48 -39 -93q-16 -23 -19 -34l-11 -34q-1 -3 -20 -39q-6 -11 -33 -77q-18 -42 -47 -49l-45 -9q-26 -6 -28 -6q-17 2 -16 20q1 29 31 68l14 21l1 26q0 10 15 44l36 135 l28 88q21 67 46 196l18 93q6 30 12 47l12 34q2 8 8 71q4 32 12 58q8 25 9 43q1 6 -5 5t-13 -8q-17 -19 -37 -35l-34 -26q-6 -4 -28 -24q-58 -55 -86 -73l-71 -45l-33 -22q-55 -33 -121 -33q-142 0 -142 117z" />
<glyph unicode=":" horiz-adv-x="453" d="M111 132l9 24l9 43q7 31 41 31q47 0 89 -55q6 -17 9 -23l12 -26q11 -23 11 -60q0 -29 -11 -37l-19 -14l-5 -14q-7 -17 -26 -17q-84 0 -117 115q7 6 7 7zM170 545l9 24l9 43q7 31 41 31q47 0 89 -56q6 -17 9 -22l12 -26q11 -23 11 -61q0 -29 -11 -37l-19 -14l-5 -14 q-7 -17 -26 -17q-84 0 -117 116q7 5 7 7z" />
<glyph unicode=";" horiz-adv-x="453" d="M38 -260q0 6 5 17l12 32q69 177 70 183l6 57l9 42v4q-1 16 -15 41q-6 13 -6 19l3 17l6 32q8 48 58 48q7 0 18 -2l17 -2q59 -16 74 -84l11 -45l5 -21l-2 -15q-5 -18 -39 -80q-6 -12 -7 -15l-16 -54q-56 -184 -131 -191q-9 -1 -22 2q-4 0 -31 -1q-13 -1 -19 3q-7 4 -6 13z M181 538l10 31l9 43q10 31 41 31q48 0 90 -56q6 -17 9 -22l12 -26q11 -23 11 -61q0 -29 -11 -37l-19 -14l-5 -14q-7 -17 -26 -17q-85 0 -117 116q-1 4 -1 7z" />
<glyph unicode="&#x3c;" d="M87 704v13l850 545v-85l-620 -403l620 -415v-226z" />
<glyph unicode="=" d="M33 427q1 7 7 25q6 15 6 40v21l-1 26l1 3q5 7 17 7q6 0 14 -1h28q47 0 56 1l31 2h6q80 -7 82 -7l51 4q14 1 35 1q24 0 57 -2l37 -2q32 -2 58 -2l56 1h45h5l8 -5l4 4q4 4 8 4h4l6 -1q6 0 9 -2l6 -4l18 8l27 -7l84 6l22 -2q30 3 42 3q18 0 33 -1q19 -2 23 -2l28 2 q15 1 22 -10q2 -5 2 -12l-7 -60l-1 -26q-3 -32 -31 -30l-74 8l-103 -7q-23 0 -60 5q-16 2 -22 2l-51 -6l-48 6l-21 -4l-28 1l-15 1l-52 4l-43 -2q-63 -4 -90 -4l-89 -3q-17 0 -44 -3q-29 -3 -36 -3q-11 0 -53 8q-23 5 -45 5q-25 0 -24 10zM57 701q1 7 7 24q6 15 6 40l-1 21 v27l1 2q5 8 17 8q4 0 13 -1t29 -1q45 0 56 1l31 3h6l82 -7l51 3q15 1 35 1q26 0 56 -2l38 -2q28 -2 58 -2l56 1h44q5 0 6 -1l8 -3l4 3q4 4 8 4l3 -1h7q6 0 8 -2l7 -4l18 8l27 -7l84 6l21 -1q31 2 43 2q18 0 33 -1t23 -1l28 1q16 0 22 -10q2 -4 2 -12l-7 -59l-1 -27 q-3 -31 -31 -29l-74 7l-103 -7q-22 0 -60 5q-16 2 -22 2l-51 -6l-48 6l-21 -4l-28 1l-15 1l-52 4l-43 -2q-63 -4 -90 -4l-89 -2q-19 0 -44 -3q-29 -3 -36 -3q-10 0 -53 8q-23 5 -45 5q-25 0 -24 10z" />
<glyph unicode="&#x3e;" d="M87 133v85l620 403l-620 415v226l850 -571v-13z" />
<glyph unicode="?" horiz-adv-x="811" d="M123 47l7 16q14 29 32 44l13 11l22 23l52 39q49 36 74 36q10 0 22 -5l45 -19q9 -9 9 -51q0 -11 -15 -27q-10 -11 -14 -20l-13 -28l-10 -9q-27 -28 -53 -38l-35 -14l-27 -3l-71 -19l-28 19l-6 24zM132 1196q0 9 6 22q13 32 13 34l7 44q7 49 80 49q78 0 181 -61l89 -52 l54 -26l49 -48q2 -1 8 -6q90 -66 90 -167q0 -140 -52 -247l-46 -93l-36 -75l-54 -87l-40 -97q-34 -75 -120 -70q-29 1 -29 28q0 13 27 71l26 58q126 276 126 388q0 105 -64 152q-36 26 -50 39l-22 21l-54 34q-20 13 -24 13q-9 0 -8 -13q0 -4 1 -5l11 -31v-8q-3 -42 -29 -42 q-5 0 -11 7l-13 14l-28 20q-1 1 -5 6l-10 13l-22 38q-4 6 -9 11l-29 29q-13 13 -13 37z" />
<glyph unicode="@" horiz-adv-x="1484" d="M73 655q0 316 202.5 524t509.5 208q250 0 438.5 -152t188.5 -355q0 -149 -142 -310.5t-272 -161.5q-106 0 -149 193l-4 -1q-8 -4 -22 -24q-11 -16 -51 -47q-28 -20 -57 -48q-97 -92 -125 -106l-33 -17q-4 -2 -20 -13q-54 -18 -59 -18q-78 0 -84 95q-1 9 3 20l19 52l-1 2 q-1 2 -3 4q-3 1 -5 2l-5 1q-6 2 -7 8l-2 36l-4 56l7 23q7 11 44 37q17 13 51 54q24 29 59 59q44 37 46 39l60 59l60 42l43 41q57 56 131 97q24 13 35 21q10 8 12 9l44 7q9 2 16 2q52 0 52 -48t-61 -82l-21 -11l-2 -4l-19 -30l-48 -42l-40 -41q-3 -2 -17 -13q-26 -21 -38 -35 l-30 -37l-43 -39l-33 -42l-42 -44l-34 -49q-1 -2 -14 -17q-6 -7 -6 -11q0 -9 11 -9q9 0 18 7l42 34l26 20l48 42l64 52l34 41q65 74 126 74q45 0 45 -66l-1 -49q0 -22 3 -49q10 -83 81 -83q76 0 126 98q10 19 15 26l16 24q48 71 48 174q0 144 -127.5 269.5t-285.5 137.5 l-65 5q-31 2 -41 2q-203 0 -377.5 -135.5t-202.5 -314.5l-12 -80l-10 -66l5 -57l13 -99q22 -182 187 -329.5t346 -147.5l40 2l75 3l56 14q64 14 81 24l33 20l34 17l32 20q32 20 60 47q21 21 37 21q68 0 63 -58q-1 -8 -13 -18l-25 -20l-48 -45q-143 -126 -299 -118l-100 5 l-54 -3q-166 11 -268 76l-17 12l-68 41q-111 72 -195 236.5t-84 309.5z" />
<glyph unicode="A" horiz-adv-x="903" d="M-79 -73q0 41 5 58l41 136q6 19 15 74q11 60 26 87q13 22 13 39q0 9 -5 8l-32 -5q-3 0 -7 2q-15 8 -15 28q0 13 9 35q-4 23 -4 30q5 104 76 121q56 13 64 58q2 11 10 31l5 14l17 27q10 14 35 111l22 68l23 75l24 72q42 121 64 147q33 40 33 46q0 4 -1 6l-31 48l13 15 l26 30l50 10q16 4 28 28q25 51 43 57q11 3 86 58q23 16 35 16q51 0 51 -39q0 -22 -23 -65q-22 -39 -22 -62q0 -19 13 -26l121 -65q26 -14 34 -132l10 -84l-14 -87l18 -92q5 -21 4 -26l-13 -116q-1 -8 4 -16q3 -4 5 -4l19 -1q16 -2 16 -31q0 -30 -16 -40l-22 -13 q-14 -9 -13 -15l13 -61l-20 -142q0 -82 -11 -112q-23 -62 -20 -72l6 -21l3 -12q-8 -30 -10 -45q-20 -129 -84 -129h-6q-22 2 -22 45q0 17 5 41q3 12 3 16q0 3 -5 40l6 94l3 52l2 36l-10 36l4 39v36l13 27l-5 45q-3 44 -5 47l-2 2q-5 2 -8 2q-14 -1 -46 -18q-22 -11 -49 -12 l-55 -3q-1 0 -34 -15q-15 -7 -74 -22q-27 -6 -66 -27q-52 -28 -87 -28q-24 0 -32 -36q-7 -30 -22 -62l-23 -51q-10 -23 -27 -91q-8 -34 -15 -48l-16 -30l-11 -70l-23 -52l-12 -31q-19 -31 -62 -31q-36 0 -36 47zM254 589q-1 -19 16 -19q4 0 11 2q11 3 25 3l28 -1l69 13l40 6 q24 3 26 3l29 -5l68 16q46 0 48 23q1 13 1 21l1 27l2 64q6 24 6 26l-13 45l5 40l-11 48v4l3 23l-2 7q-4 10 -15 25l-44 65q-25 36 -60 36q-42 0 -81 -128q-17 -52 -35 -70q-18 -17 -19 -30l-1 -14q0 -3 -25 -66l-37 -95q-4 -11 -29 -51q-5 -10 -6 -18z" />
<glyph unicode="B" horiz-adv-x="936" d="M1 -19q1 16 27 27q29 40 55 49q51 20 51 56l-2 81l12 197l7 19l-3 29l-7 8q2 25 2 34q0 53 -32 63l-22 7q-43 12 -43 60q0 30 111 85l2 8v18l3 12q2 8 3 26q5 45 9 69q6 35 7 42q3 37 5 42l4 18l-8 27q-1 5 -1 10q0 104 65 162q54 49 54 71q0 16 -24 16q-6 0 -16 -2 l-37 -6q-16 -3 -71 -18q-73 -21 -94 -21q-19 0 -22 13q0 1 1 14l2 28q1 10 4 13l28 21q8 7 8 15v13q0 15 44 28l181 52q110 31 218 31q12 0 23 -1q14 -2 16 -2l42 7l20 -2l49 -3q7 -1 15 -4l25 -10q4 -2 7 -2l18 4q4 1 6 1q50 0 71 -24l8 -11l4 -2q4 -1 6 -1l17 2q2 0 6 -1 q108 -33 108 -160q0 -140 -169 -253l-95 -62l-50 -41q-28 -22 -107 -63q-84 -45 -118 -69q-29 -21 -36 -25q-28 -14 -28 -29q0 -41 69 -63q49 -16 93 -33l73 -28l86 -34q40 -21 43 -22l11 -4q158 -53 158 -182q0 -178 -642 -321q-6 -13 -8 -21q-16 -58 -65 -58q-39 0 -42 37 l-2 19q-1 7 -13 6l-59 -14l-22 13l-26 12q-14 8 -13 27zM262 121l2 -10q3 -5 8 -5q4 0 14 6q2 1 20 6l35 9q8 2 20 2q34 0 42 7l10 9q8 7 45 20l65 29l76 32q24 10 48 29l7 6l15 9q26 15 26 36t-36 43l-51 32q-18 11 -89 34q-28 9 -47 16q-35 14 -42 16q-46 13 -47 14 l-34 19q-4 2 -13 3h-2q-31 0 -39 -77l-23 -233zM352 817q0 -27 24 -27q27 0 92 55l68 42q7 4 13 8l85 60l47 26q1 2 28 37q5 7 19 21q37 41 37 71q0 67 -108 92l-52 13q-73 17 -77 17l-65 -7q-41 -4 -51 -53l-13 -57q-9 -44 -9 -59l2 -48q0 -15 -4 -20l-14 -18l-4 -6l4 -25 l-5 -23q-3 -8 -5 -32q-2 -25 -9 -47q-3 -12 -3 -20z" />
<glyph unicode="C" horiz-adv-x="973" d="M28 486q0 14 6 65l12 97q4 35 22 62q7 11 8 18v4q-3 17 -3 18q0 14 13 42l94 199q29 61 82 112l40 38q5 5 15 18l17 23q9 11 21 20l32 20l68 63q13 11 28 17l29 11l31 25q6 4 39 15l31 11q71 24 101 24h5l34 -4h48q10 -1 22 -9l20 -14l30 -6q79 -21 79 -210 q0 -87 -4 -113l-25 -122l-7 -58q-6 -41 -31 -99q-24 -59 -37 -99q-20 -61 -40 -68l-37 -10l-13 -5q-15 -7 -37 -7q-37 0 -40 15q0 1 6 36q1 5 1 7l-5 76l17 91q9 49 20 91q7 31 9 38q18 83 37 101l22 22q34 33 34 74q0 74 -86 92l-54 10l-19 4l-43 -13q-6 -2 -23 -4 q-118 -19 -227.5 -177.5t-130.5 -340.5q-13 -109 -14 -111q-13 -28 -13 -32q0 -7 12 -38q4 -13 4 -17l-10 -92q-1 -8 13 -28l24 -37q24 -34 34 -92q3 -19 29 -34q9 -6 20 -18l24 -26q59 -66 171 -66q6 0 20 3q46 10 75 12q25 2 32 6l34 21l32 8l20 16l15 9l9 7q6 3 9 3l21 1 h3q6 4 17 24q5 11 15 15l18 8q15 7 42 35q29 19 43 35q9 -7 11 -19q4 -25 21 -50q8 -12 8 -22q-63 -50 -79 -59l-100 -60l-13 -9q-163 -114 -333 -114q-38 0 -60 7l-52 18l-34 7l-14 11q-2 1 -28 4q-36 5 -99 67.5t-78 107.5l-28 86l-22 67q-4 17 -4 33v7l10 45l-9 26 q-7 18 -7 35z" />
<glyph unicode="D" horiz-adv-x="990" d="M60 1373q-4 33 26 27l40 -8l40 14q74 0 108 -27q15 -12 22 -13q1 0 5 1q20 4 27 4q6 0 11 -2l20 -14q12 -8 66 -14q24 -3 50 -16l64 -32q414 -208 414 -487q0 -235 -238 -515l-67 -81l-27 -30q46 13 90 28q198 37 248 90q8 -7 10 -19q4 -25 21 -50q8 -12 8 -23 q-41 -40 -82 -52l-49 -14q-62 -17 -65 -18l-137 -11q-4 0 -28 -7q-46 -35 -96 -63q-41 -23 -54 -32q-49 -36 -87 -44l-4 -1q-3 -1 -14 -13q-3 -3 -43 -17l-43 -16q-6 -2 -30 -2q-23 0 -28 -1l-53 -5l-15 5q-9 5 -17 14l-15 19l-7 9l48 52q2 2 12 19q27 43 93 56q59 11 67 18 l13 11q5 5 45 26q46 24 128 108q34 35 68 63q11 30 22 37l16 11q3 2 15 29l19 32l51 84l29 35q39 65 39 183q0 81 -86.5 189t-189.5 156l-18 9q-35 16 -107 58q-14 -49 -18 -70l-13 -65q-4 -21 -18 -75q-32 -125 -38 -162q-7 -45 -9 -51l-8 -31q-1 -3 -4 -29q-3 -22 -16 -81 q-6 -26 -9 -45q-4 -23 -6 -30q-7 -31 -7 -41l1 -18l-10 -49l-6 -35l-5 -17q0 -1 -8 -35q-1 -2 -2 -7q-7 -41 -10 -62q-4 -34 -8 -42l-16 -30l-21 -43l-12 -12l-24 -37q-10 -12 -26 -12q-14 0 -21 33l-3 15l11 57l-5 12q-1 2 -1 5l7 84l5 73l4 22q3 15 3 52q0 28 5 69l17 134 l4 40q2 13 10 38q3 9 3 11l-11 52l18 69l1 49q0 6 6 39l11 67l10 39l9 41q3 11 9 16l44 41l23 34l22 4q17 4 19 14q3 20 -46 25q-45 4 -56 11l-28 20l-22 8q-86 29 -84 61l10 40z" />
<glyph unicode="E" horiz-adv-x="868" d="M60 121l3 47l3 82q12 34 13 42v3l-6 13q-2 4 -2 14l7 53l11 111q3 37 9 67q19 94 19 106l-4 89l76 334q7 50 38 81q9 9 24 28q12 9 13 12l19 35q2 5 13 17q21 16 29 20l28 15q14 6 25 18l19 19q2 3 8 8q18 7 21 9l49 39q37 29 108 35l64 3l67 11l66 -7l21 1l26 -9 q52 -27 52 -81q0 -136 -55 -136q-23 0 -34 8l-17 14q-27 22 -112 22l-40 1l-99 -21q-21 -18 -24 -17l-36 13q-3 1 -17 -10q-19 -14 -27 -26l-33 -71q-9 -20 -9 -60q0 -19 -37 -132q-10 -28 -20 -80q-11 -57 -20 -81q-7 -19 -7 -36q0 -27 20 -27q10 0 32 22q41 40 63 47 l42 10l46 20q21 8 59 11l94 9l29 -8l53 9l27 -12q20 -21 35 -56q0 -122 -52 -122q-12 0 -27 8q-26 14 -28 14l-46 -8q-6 -1 -28 -1q-367 0 -375 -172q-2 -34 -6 -48q-16 -58 -16 -60l8 -29l-12 -69l-6 -67q-1 -12 -1 -14q0 -17 10 -17l29 3l25 -1q11 0 19 1q43 5 45 5l46 -4 h6l63 6q3 1 27 12q39 17 78 17q89 0 187 48q31 15 35 16l39 13q6 2 26 18q8 -7 10 -19q4 -25 21 -49q8 -13 8 -23q-49 -41 -63 -47l-88 -33q-12 -4 -32 -17q-56 -36 -73 -36h-20q-5 0 -55 -18l-34 -12l-28 -14l-50 -17q-74 -26 -83 -26h-1l-60 13l-39 -17l-38 2l-43 2 q-58 3 -53 30l6 35q1 5 -6 7h-20q-37 0 -37 51v11z" />
<glyph unicode="F" horiz-adv-x="861" d="M21 533l37 59l13 23q3 5 13 10l23 12q24 13 24 71q0 117 24 179q10 26 9 31l-5 37q0 2 4 24l11 65q20 120 118 219l34 34q64 66 128 80q35 8 41 10q16 6 21 5l25 -6l33 12q2 0 9 -2l23 -9l35 10q10 3 32 3q124 0 124 -68q0 -11 -4 -35q-3 -15 -6 -41q-11 -92 -38 -94 l-29 12l-15 5l-29 12l-15 6q-19 9 -21 8l-35 -14l-37 6q-6 1 -19 -2l-99 -22q-29 -11 -40 -32l-18 -43q-6 -15 -15 -27q-14 -17 -17 -53q-1 -15 -10 -44q-14 -44 -19 -66l-26 -120l-9 -22q-5 -11 -5 -24q0 -28 18 -30q6 -1 29 14q22 15 73 21l29 3q31 4 34 4l69 20q6 2 14 2 q18 0 36 -1q8 -1 10 -1l68 10l68 -12q49 -13 49 -51q0 -11 -1 -24l-5 -72l-3 -6q-15 -40 -24 -40q-4 0 -26 8q-4 1 -6 1l-92 13l-26 8l-39 -10q-10 -3 -72 -3q-26 0 -51 -7q-20 -5 -25 -5l-32 -1l-15 -10q-8 -5 -28 -5h-24q-45 0 -53 -39l-12 -58l-9 -43l7 -32l-19 -119 l2 -29l1 -6l-8 -53q-10 -45 -10 -94q0 -22 -2 -47q-6 -74 -6 -89l2 -26q0 -25 -16 -51q-5 -9 -13 -19q-10 -1 -23 -1q-58 0 -64 70l-5 57l2 31l-5 106l1 41q3 49 4 55q4 24 4 25l-7 62l16 108q0 6 -1 13q-3 37 -3 44q0 6 4 20q3 12 3 21q0 24 -14 23l-25 -10l-17 -3l-19 -8 l-10 6q-3 5 -3 10z" />
<glyph unicode="G" horiz-adv-x="1018" d="M28 318l12 70l-4 42q0 9 6 39q3 12 14 111q40 367 277 589l39 37l77 74q19 14 88 50l34 18q37 19 50 20l69 8l25 3l32 -9l13 7q15 -6 19 -7l56 -18q28 -8 46 -31l40 -50q36 -44 40 -55l15 -49l13 -17q6 -8 12 -35q3 -11 15 -45q6 -18 6 -29q0 -47 -63 -94 q-22 -16 -23 -17l-20 -19q-10 -9 -32 -9q-40 0 -40 49q0 28 -14 68l-17 72l-21 32l-14 29q-45 87 -135 87q-99 0 -183 -104l-34 -44l-20 -24q-4 -5 -10 -16q-40 -73 -44 -78l-14 -16l-16 -48q-3 -8 -7 -14l-17 -28q-6 -11 -13 -45q-10 -47 -19 -70q-15 -35 -16 -38l-5 -38 l-15 -85l-3 -36l-7 -97l3 -70q0 -48 29 -102q25 -115 134 -115q98 0 193 100l58 65l56 57l66 96q36 53 86 57q10 1 19 1q81 0 81 -72q0 -11 -5 -26q-9 -32 -10 -41l-2 -40l-13 -52q0 -3 -1 -16q-4 -81 -30 -140l-10 -21q-4 -10 -18 -83q-15 -86 -29 -115l-10 -20l-11 -65 q-11 -59 -48 -75l-38 -14l-4 -19q-9 -26 -37 -28h-2q-27 0 -27 53q0 21 6 44l10 41q8 32 12 108q5 94 18 125q17 38 16 45l-13 64l7 27q1 15 -14 15q-8 0 -23 -16l-35 -30l-73 -62q-112 -96 -225 -116l-6 -1l-45 9l-11 -2q-14 -4 -23 -4q-42 0 -101 42.5t-70 80.5l-21 67 q-31 104 -31 108z" />
<glyph unicode="H" horiz-adv-x="1042" d="M52 550q0 27 34 72q14 19 17 25l12 47l13 54q1 4 6 54l12 127q12 127 20 154q14 47 14 67v4l-6 24l4 16q1 4 3 41l2 33q2 36 7 41l28 24l16 22q5 5 15 7l12 2l22 10q12 6 25 6q71 0 71 -72q0 -19 -19 -74q-17 -46 -42 -244q-21 -159 -44 -246q-3 -9 -3 -16q0 -22 20 -27 q1 0 29 2l38 3q11 1 37 11q27 11 32 11l78 -1l91 7l78 -13q3 -1 7 -1q24 0 79 21q25 0 31 11l12 44l13 32l3 54q1 8 4 28l7 48l9 44q19 104 19 159q0 20 -14 31q-12 10 -13 14q-2 9 15 35l22 34l21 37q3 4 13 15q20 17 30 23l45 31q24 16 26 16q31 0 31 -71q0 -73 -31 -231 l-1 -6l13 -66l-18 -53q-10 -26 -18 -82q-10 -68 -21 -105q-19 -59 -24 -109q-13 -120 -49 -229l-21 -61l-5 -33q-2 -11 -35 -132q-2 -7 -28 -122l-18 -78q-35 -156 -88 -156q-23 0 -27 23l1 50l-7 22l21 77l-6 27q-1 12 16 111q16 94 19 122q11 84 12 86l22 110l15 82 q8 26 8 47q0 24 -11 22l-23 -10l-25 13q-5 1 -21 -16q-21 -23 -35 -21l-104 14h-2q-18 0 -75 -29q-10 -5 -24 -17q-99 -14 -128 -41l-20 -21l-29 -24q-7 -6 -11 -75l-6 -92l4 -61q6 -70 26 -70h2q16 2 30 19q24 29 28 30q23 4 21 -17q0 -3 -5 -10l-31 -61l-27 -40l-35 -52 q-27 -40 -52 -44l-34 -5q-9 -1 -14 -1q-55 0 -55 290q0 111 -29 168q-27 53 -27 81z" />
<glyph unicode="I" horiz-adv-x="433" d="M100 222q0 11 4 50q3 22 3 48q0 32 3 42l5 15l-4 35l1 9q10 89 10 111q0 39 8 74l7 32l8 101l9 39l-6 21l-3 46q-1 13 -4 15l-21 15q-5 4 -5 12q0 2 2 20l6 62l3 16l6 58q5 41 18 68l16 34l10 50q26 116 59 138l27 18q19 13 30 14l22 3l28 15q28 15 52 15q30 0 30 -42 q0 -47 -15 -105l-9 -37l-9 -46l-12 -64l-1 -13q-2 -32 -16 -80q-12 -41 -14 -54l-14 -82l-6 -22l-18 -112l-4 -15l-27 -202q-11 -67 -11 -72l4 -51q0 -3 -1 -10l-11 -81q-3 -21 -3 -54q0 -104 6 -124l14 -50q1 -3 1 -7q0 -18 -42 -48l-22 -16q-29 -21 -47 -21t-28 15l-7 15 l-15 35q-6 16 -5 22l9 37q2 7 -5 20l-14 30l2 18v2q0 4 -3 23q-1 9 -1 15z" />
<glyph unicode="J" horiz-adv-x="618" d="M-72 484q0 130 39 130h2q103 0 138 -101q8 -21 14 -37q37 -92 37 -110q0 -19 -12 -26l-27 -18q-8 -5 -8 -15l12 -25l25 -61q15 -36 37 -35q17 1 37 47l25 58q2 4 18 75q6 25 25 86q17 52 31 138q6 34 12 49l21 60l6 47l22 127l9 72l19 100v37l5 74l-4 20q-12 21 -47 23 q-48 3 -48 21q0 32 67 75q23 34 50 39l25 6l28 33q10 12 46 28q11 4 17 9q9 7 13 7h3q48 0 48 -141q0 -20 -7 -83l-14 -119q-12 -97 -33 -148q-13 -33 -14 -40l-6 -46l-16 -51l-7 -61q-7 -55 -28 -96q-14 -26 -14 -30q0 -2 3 -16l1 -5l-15 -46l-20 -72l-19 -45 q-7 -18 -12 -42q-11 -54 -25 -83l-10 -22q-3 -4 -6 -45q-2 -24 -17 -61l-14 -31q-4 -11 -18 -49q-16 -43 -69 -54q-7 -1 -29 -9q-53 -17 -76 -17q-69 0 -92 56l-21 52q-2 5 -10 24q-9 18 -10 22l-21 71q-13 44 -13 48q0 2 1 12l-10 14q-4 11 -6 17q-11 32 -16 51l-10 42 q-12 51 -12 70z" />
<glyph unicode="K" horiz-adv-x="920" d="M63 113l10 49l-6 51l19 146q2 15 4 52q7 124 22 158l12 30q5 9 4 11l-16 58q-1 2 4 29l11 95l11 73q2 11 8 65l12 98l9 90l10 78q4 36 31 58q6 6 19 18q26 26 41 31l29 8q6 2 15 13q12 14 19 15q11 1 32 -35t21 -56q0 -9 -17 -69q-3 -11 -9 -40q-9 -52 -20 -84l-15 -45 q-33 -99 -45 -205q-4 -33 -13 -59q-10 -30 -10 -51q0 -28 10 -29q3 0 13 9q49 48 76 71q15 13 20 19l8 12l58 63l51 59l16 18l38 47l31 37q42 50 61 80l61 97q45 72 45 95q0 13 -17 32q-13 15 -14 21v8q0 53 74 67l23 4q9 2 17 8l19 14q20 15 34 12l24 -4q1 0 3 1l31 18 l10 -10q17 -19 18 -41q1 -13 1 -26q0 -97 -49 -142l-22 -21q-7 -6 -9 -11l-18 -40q-3 -7 -29 -40l-63 -85l-89 -101l-40 -52q-8 -9 -45 -47q-18 -19 -62 -68q-33 -35 -51 -52q-49 -46 -49 -66q0 -8 4 -15l25 -49q11 -20 27 -61q17 -40 26 -58l7 -11l23 -51l11 -24 q26 -58 59 -99q8 -9 17 -22q47 -64 84 -64q17 0 32 9l17 10l48 25l18 20l45 29q1 1 6 7q9 -7 11 -19q3 -25 21 -49q8 -13 8 -23q-31 -33 -64 -55q-10 -7 -31 -22q-136 -99 -184 -99q-83 0 -129 88l-15 29l-48 48q-11 12 -39 59q-10 16 -20 31l-41 59l-64 106q-27 38 -28 42 q-12 33 -19 36l-3 1l-11 -14q-8 -21 -10 -38l-12 -95q-3 -23 -7 -37q-8 -26 -7 -29l6 -33l-11 -103q-2 -24 -5 -63q-2 -16 -2 -28q0 -51 -37 -51h-4l-30 6l-26 -6h-1q-24 0 -24 57v17z" />
<glyph unicode="L" horiz-adv-x="642" d="M62 156v8q0 41 19 121q33 140 32 147l-5 41l28 155q0 42 9 88q3 14 3 23q0 17 -8 23l-13 9q-9 5 -8 22q3 48 25 145l22 90l13 76q13 74 28 106l37 78q4 8 13 33q22 65 48 81l29 11l26 11q12 4 26 4q51 0 51 -75q0 -30 -12 -79q-8 -33 -9 -44l-3 -41q-1 -10 -6 -40 q-14 -22 -16 -29l-12 -71l-4 -17v-36q0 -65 -26 -126l-17 -39q-1 -3 -1 -5l1 -31q0 -7 -11 -48l-19 -74l-16 -62l-13 -81l-13 -41q-2 -4 -6 -29q-4 -23 -12 -59q-15 -63 -15 -159q0 -58 30 -68q138 0 221 35l40 18l25 7q11 6 24 29q26 19 40 35q9 -7 11 -19q3 -25 21 -50 q8 -12 8 -22l-19 -30q-28 -70 -104 -103l-73 -27l-53 -27q-46 -22 -78 -22l-13 -1q-14 0 -36 -4q-49 -11 -63 -10l-21 1l-15 -1q-11 0 -20 5l-40 27l-27 14q-23 15 -23 127z" />
<glyph unicode="M" horiz-adv-x="1216" d="M61 112q0 10 10 60q1 9 5 64l3 49q2 31 5 40q9 31 9 36q0 1 -1 6l-5 35l10 87l7 77l12 68l2 59l4 36l-7 46l9 32q4 14 8 43q3 35 4 52q3 42 10 60q10 26 10 29l-7 42l5 37q7 54 7 56q17 33 16 35l-14 21q-2 3 -2 7q-1 9 3 35l11 84q4 33 58 71q28 20 34 25q20 19 59 32 q9 3 15 7q18 12 23 13h3q32 0 33 -64q0 -10 -1 -21t-8 -35q-7 -25 -8 -35q0 -2 2 -51l5 -109q7 -153 69.5 -283t128.5 -130q20 0 80 36q33 22 66 58q25 28 78 82l42 52q98 122 134 183q60 103 119 131q14 7 21 12q29 18 38 18q36 0 36 -64l1 -43l-10 -97q-25 -181 -72 -324 q-16 -50 -19 -62q-8 -42 -9 -43l-11 -28l-13 -77l-21 -51q-3 -9 -10 -48q-4 -20 -8 -33l-11 -32l-2 -42q0 -16 -17 -68q-8 -24 -10 -39l-6 -33l-14 -58q-4 -22 -9 -23l-21 -6q-11 -3 -40 -39q-36 -46 -50 -46h-1q-21 1 -19 22q0 6 4 13q28 68 44 256q15 174 60 352 q12 101 27 145q14 41 16 68q1 18 -14 18q-17 0 -58 -59q-3 -4 -32 -38l-30 -38l-51 -52l-74 -75q-16 -16 -26 -20l-28 -13l-5 -3l-14 -22q-4 -6 -30 -18l-59 -27q-12 -6 -35 -6q-33 0 -73 23q-91 69 -127 168q-8 21 -16 25l-3 1l-5 -2h-1q-7 -13 -11 -41l-10 -61l-11 -84 l-8 -52q-14 -101 -19 -117q-9 -30 -11 -42v-2l-3 -59q0 -3 -6 -33q-3 -15 -7 -44q-13 -49 -13 -70l-1 -40q0 -64 -43 -74l-43 -6l-37 -11l-6 2q-7 4 -6 9l5 37z" />
<glyph unicode="N" horiz-adv-x="1071" d="M6 -30q0 20 7 43q8 28 8 34v30l20 76l11 56l2 38l7 25q2 6 7 39l2 15l2 36l3 17l2 12l8 28q2 6 5 21q15 76 33 201q13 93 24 152l14 73q20 107 27 169q4 35 7 47q5 23 4 26l-16 63l18 53q7 60 42 60l22 -2l49 8q12 1 19 -6l27 -22q2 -2 4 -2q5 1 16 16l20 26q17 22 18 23 l26 17q12 7 14 7l11 -7l21 -8q10 -4 9 -21q-1 -13 -19 -52q-22 -47 -27 -96q-31 -45 -31 -75q0 -43 62 -198q38 -95 49 -127l40 -127q24 -74 56 -147l36 -83l35 -81q44 -89 62 -90t18 49q0 15 16 68q8 25 13 55l21 102l13 54q3 19 3 58q10 58 15 176q2 43 6 58l7 33l5 46 q0 71 -3 94q-6 40 -6 44q0 2 1 9q4 30 12 59l14 56l8 43l25 77q21 68 47 86q28 20 34 26q10 11 15 12q29 3 23 -26l-8 -22l6 -37q1 -8 -7 -43q-5 -24 -5 -89q0 -31 -15 -157q-7 -68 -11 -132q-5 -82 -5 -87l-19 -173l-3 -38q-11 -166 -52 -312q-30 -109 -30 -143 q0 -39 -23 -73l-32 -50q-7 -7 -52 -21q-1 -1 -50 -20q-18 -8 -28 -7q-36 2 -117 164l-34 69l-28 54q-20 40 -28 66l-10 39q-3 11 -6 16l-43 83l-18 60q-1 4 -59 120q-12 24 -18 43q-12 42 -25 43q-5 0 -7 -3l-21 -66l-7 -21l-2 -34q-1 -11 -7 -21l-14 -28q-2 -4 -9 -35 l-14 -51l-13 -51l-30 -104l-9 -31q-9 -29 -11 -39q-14 -70 -15 -73l-18 -33q-1 -3 -9 -59q-3 -23 -10 -39l-26 -68l-2 -6l-4 -20q-9 -43 -30 -45l-16 -2l-2 -2q-20 -16 -23 -16q-24 -3 -24 48z" />
<glyph unicode="O" horiz-adv-x="1086" d="M33 587q0 9 2 16l7 25q2 6 4 22q-2 7 -2 10q0 28 54 110q17 25 19 30l27 62l7 9q9 15 24 57l19 56l9 32q11 34 22 56l17 35l27 89q7 24 16 34l21 26l19 40q18 34 60 53l10 4l21 -15q13 -13 13 -28q0 -32 -35 -92q-9 -16 -9 -31t9 -16q4 -1 22 22q5 6 21 19q13 11 37 33 q68 61 97 69l74 19l4 1q6 3 14 10q18 16 29 17q4 0 16 -4q12 -10 17 -11l43 -5l22 -9l19 -1q3 0 23 -21q4 -4 29 -19q71 -43 130.5 -173.5t59.5 -243.5q0 -338 -169 -492q-47 -43 -48 -47l-1 -12q-1 -13 -36 -47l-24 -20l-111 -99q-97 -88 -199 -119h-2l-17 -15 q-21 -18 -91 -18q-112 0 -142 28l-20 19l-29 22q-54 49 -67 190l-2 16l-8 82l5 39q5 23 5 28l-2 36q-1 13 5 33l13 40q4 15 4 50q0 17 -7 17q-8 0 -23 -31q-9 -20 -18 -22q-34 -9 -34 35zM264 439q0 -264 144 -280q7 -1 13 -1q74 0 183 80q119 86 164 182l65 139l13 22 q33 69 40 214q1 18 -8 42q-5 14 -5 16l7 43q0 1 -2 5q-1 2 -2 3l-13 16q-2 2 -4 12q-55 204 -215 217l-51 -7l-24 -4l-25 -12l-97 -44q-19 -8 -50 -45l-19 -24l-28 -33q-25 -32 -38 -109q-2 -13 -15 -77q-27 -131 -27 -188l-2 -59l-3 -81z" />
<glyph unicode="P" horiz-adv-x="906" d="M8 290q-1 10 13 17l36 17q49 24 49 64q0 5 -1 10l-8 52l20 118q1 11 3 24l4 38l6 59q4 44 12 67q11 31 10 37l-8 35l17 93q0 6 8 49l10 55l11 49l9 50q1 6 4 22q-17 55 -63 109q-36 42 -37 65q-1 17 8 29l24 27l28 35l40 29q1 2 9 10q25 27 50 27q7 0 12 -4l20 -13l29 -1 q3 0 29 -17q6 -3 34 -14q78 -29 151 -81q9 -13 12 -16l51 -33l27 -37q4 -5 9 -9l37 -27l23 -28l41 -48q114 -131 114 -333q0 -222 -123 -301l-40 -25l-12 -13q-19 -19 -77 -47l-38 -17l-19 -11q-28 -15 -116 -47q-54 -19 -89 -37q-54 -28 -74 -28h-18q-13 0 -17 -5 q-5 -6 -10 -81l-6 -96l4 -27q4 -20 14 -32q24 -26 24 -28q1 -4 -13 -25l-29 -46q-40 -63 -79 -63q-64 0 -64 141q0 57 15 98q13 34 13 38l-5 49l-1 11q-4 5 -23 13q-58 23 -60 53zM254 418q0 -23 18 -22q24 1 65 24q10 5 42 18q21 9 34 16l36 21l30 13q11 5 21 13l70 54 q3 2 22 15q88 60 88 182q0 15 -8 49q-6 23 -8 40q-4 36 -10 46l-8 18l-1 24q0 4 -20 26q-10 11 -25 41q-30 63 -79 105q-20 16 -23 19l-38 36l-30 25l-41 37l-49 22l-55 25q-11 -1 -11 -11q0 -9 16 -22q96 -78 102 -147q1 -6 1 -12q0 -27 -11 -62l-15 -43l-9 -43 q-2 -9 -13 -36q-21 -50 -24 -80q-4 -25 -6 -31l-14 -29l8 -41l-19 -70q-11 -30 -22 -114q-7 -56 -9 -66q-5 -27 -5 -40z" />
<glyph unicode="Q" horiz-adv-x="1037" d="M-7 337q0 8 5 20q6 14 5 19q0 3 -5 9q10 52 12 75l3 29q12 128 68 128q21 0 30 -12l1 -4l-9 -32l-1 -6l10 -50l-1 -41l5 -34l10 -25l36 -110q49 -148 148 -148h10l21 1l8 1q8 2 7 11q-1 6 -7 14l-24 35l-22 23q-13 15 -50 83q-7 13 -22 38q-99 167 -99 297l2 56 q0 3 -2 12l-8 40l4 35l9 63q30 228 235 399q16 13 42 35q126 110 264 110q150 0 242 -103t92 -270q0 -73 -6 -100l-7 -36l-4 -57q-5 -73 -31 -140q-9 -25 -10 -30l-3 -23q-3 -21 -25 -61q-34 -61 -43 -78q-41 -84 -60 -109l-27 -36l-41 -54l-40 -41l-32 -47q-47 -56 -47 -60 q0 -17 50 -56q20 -17 43 -48q13 -17 38 -35q9 -7 14 -10q37 -30 39 -31l29 -17q13 -8 41 -33q27 -24 41 -33q58 -36 58 -57q0 -6 -3 -9l-23 -18l-14 -21q-2 -3 -10 -6l-31 -12l-35 3q-15 1 -19 3l-34 24q-8 6 -12 6l-19 1q-15 0 -34 15q-24 19 -26 20l-20 10q-17 8 -35 22 l-22 17l-26 20l-24 23l-50 40l-31 31l-26 24q-21 21 -34 22q-6 1 -15 -6l-3 -2l-11 -13q-3 -4 -20 -7q-7 -2 -56 -17q-24 -8 -35 -8l-45 -3l-12 -1l-55 17l-37 6q-6 2 -15 10l-30 29l-36 22q-55 38 -80 158l-9 47q-9 41 -9 47zM281 858l4 -35l1 -68l20 -93q8 -35 19 -61 q24 -55 24 -58l11 -48q3 -6 19 -22q14 -13 33 -48q39 -72 72 -110l37 -43q24 -28 32 -27q58 3 169 188.5t126 304.5l18 144q3 26 3 28q0 5 -10 33q0 2 -11 56q-41 200 -237 214h-3q-122 0 -224.5 -111t-102.5 -244z" />
<glyph unicode="R" horiz-adv-x="946" d="M46 503l3 15v14q2 21 49 49l36 22q11 6 11 44l-1 39l7 173q0 37 -6 88l-1 7l4 40l-6 15q-9 20 -9 52l4 70l-6 75v2q0 68 66 129t140 61l68 -6l31 2q19 0 61 -19q12 -5 14 -5l30 -1q29 0 53 -14l13 -7q17 -10 34 -16l24 -7q8 -2 26 -14q28 -17 40 -21l29 -10l18 -13 q3 -2 14 -7q33 -15 48 -30l17 -20l34 -33q59 -63 59 -137v-9l-4 -40l-2 -15q-4 -27 -26 -53l-25 -29l-16 -23q-6 -7 -28 -22l-28 -19q-5 -3 -48 -30l-6 -4l-15 -13l-13 -7l-42 -22l-17 -5q-5 -2 -20 -17q-30 -32 -163 -86q-38 -15 -110 -52q-42 -9 -41 -33q1 -23 32 -57 l27 -30q2 -2 68 -56q12 -9 30 -25q62 -56 90 -74l22 -14l108 -88l82 -59q18 -21 26 -22h8q9 -1 48 -38q18 -17 62 -42q40 -23 43 -85l2 -39l-9 -27q-5 -5 -10 -5q-20 1 -69 33q-8 5 -47 22l-41 20l-74 34q-83 38 -140 88q-46 40 -103 71q-71 39 -110 72q-60 49 -73 56 q-19 9 -22 11q-31 23 -39 24t-12 -29q-10 -71 -24 -128q-29 -119 -30 -157q-2 -34 -25 -34q-78 0 -78 76q0 9 4 36q3 21 3 52q0 51 19 137q11 54 11 88q0 44 -26 66l-24 20q-31 26 -29 45zM225 1089q4 -48 17 -47q3 0 18 16q26 27 62 27q15 0 35 -36l8 -14q5 -8 5 -17 q0 -12 -6 -31q-28 -89 -41 -190q-7 -56 -14 -77q-7 -20 -8 -34q-1 -18 13 -17q5 0 9 3l20 12q4 3 35 16q6 3 9 5l87 44q34 17 45 24q9 7 14 7h1q16 0 21 6l14 19l98 64q99 70 99 132t-142.5 130t-271.5 68q-123 0 -127 -67q-1 -19 0 -43z" />
<glyph unicode="S" horiz-adv-x="708" d="M6 16q0 60 115 112l28 13l22 12q10 5 59 28l34 16q37 17 48 24q19 10 29 10q32 0 30 -28q-3 -28 -52 -46q-27 -10 -26 -19q1 -10 13 -10t57.5 38.5t43.5 47.5l-4 24q0 3 1 4l39 35q12 10 12 35q0 66 -130 195q-14 14 -23 25l-38 43q-16 18 -58 52q-39 32 -52 59l-17 35 l-34 35q-44 51 -44 157q0 80 27 118l15 21q5 7 12 31q60 98 159 167q36 25 63 50l20 13q30 14 48 29q29 25 79 42q30 10 42 16l26 13q17 8 28 11l34 10l25 12q9 4 21 4q24 0 42 -20l14 -15q9 -13 9 -44q0 -77 -24 -103l-37 -29l-21 -19l-46 -33l-39 -31q-10 -7 -46 -27 q-30 -16 -52 -31q-30 -19 -49 -19q-31 0 -31 30q0 31 48 63q41 27 41 45q0 8 -9 8q-12 0 -26 -11q-20 -18 -51 -40q-33 -25 -49 -46q-18 -23 -22 -28q-53 -64 -53 -112q0 -25 11 -54l14 -35l19 -49l45 -56l26 -34l20 -23l13 -16q14 -18 16 -20q17 -24 18 -25l19 -16 q13 -11 29 -33q14 -18 17 -21l25 -25q2 -2 14 -19q8 -12 21 -27q62 -76 62 -176l-1 -39q0 -23 7 -28q2 -2 24 -2q9 0 17 8q8 -7 10 -19q4 -25 21 -50q9 -12 9 -22l-6 -4q-34 -16 -107 -23l-54 -5q-3 0 -18 -1q-179 -176 -349 -228l-29 -9q-12 -4 -17 -4q-37 0 -82 29.5 t-45 53.5z" />
<glyph unicode="T" horiz-adv-x="569" d="M-88 1181q0 9 3 18l19 42l3 49q10 81 74 103q81 23 135 23q6 0 24 -2q43 13 71 15l69 4q9 0 36 3q13 2 21 2q14 0 38 -8l8 -2l20 2l25 -6q8 -3 27 -5l8 -1l29 8l16 -5q14 -5 20 -11l7 -7l17 11q3 2 6 2q38 0 38 -65l-2 -43l3 -51q0 -22 -18 -21q-14 1 -42 5q-17 3 -45 4 q-27 1 -39 7q-21 10 -23 10l-29 -10l-53 -2q-12 -3 -11 -13q0 -4 11 -12q23 -18 30 -28l8 -21l13 -35q8 -20 8 -40q0 -68 -25 -168q-7 -27 -9 -39l-3 -28q-2 -20 -4 -28l-9 -33q-7 -25 -11 -57l-3 -29q-2 -20 -9 -39q-22 -63 -22 -68l3 -30l-9 -59l-7 -49q-9 -61 -9 -65 q0 -48 -6 -59l-11 -18q-2 -5 -2 -8v-1q5 -20 5 -44q0 -10 -2 -24q-6 -39 -6 -40v-28l-2 -91l8 -34l-3 -16q-7 -18 -16 -23l-29 -14l-12 -14q-7 -8 -17 -8q-43 0 -40 25l8 61q0 2 -1 4l-7 12q-4 6 -4 16l-1 16l-5 45q-3 28 -3 46v23l-3 28v2l1 39q0 7 3 37l1 9l-2 33l1 13 q5 38 5 80v16q0 33 7 84q10 81 10 96l1 48q0 24 5 45l4 20q8 39 8 93v5l-3 21l7 17q13 24 13 44q0 2 -1 4l-7 21l1 3q10 51 12 74q5 43 5 44l8 26v43l3 27l-7 18q-6 4 -15 6l-26 4l-13 -9q-6 -3 -26 -6q-6 -1 -28 -7q-10 -3 -22 -5q-72 -15 -101 -31l-21 -6q-18 -4 -25 -7 q-23 -7 -37 -8q-20 -1 -20 25z" />
<glyph unicode="U" horiz-adv-x="1032" d="M107 908l2 48q12 160 12 172v31q0 18 6 69l7 69q11 94 57 99q20 2 28 -18l12 -30q3 -7 10 -12l34 -26q39 -29 39 -97q0 -31 -8 -67q-17 -74 -17 -95v-1q0 -104 -14 -142l-11 -31l7 -50q1 -5 1 -18l-4 -109q0 -24 1 -35l3 -43q5 -55 5 -59l7 -33l1 -18q0 -4 13 -50l17 -67 l5 -11q53 -123 117 -126h4q61 0 115 100q6 10 10 18l42 61q14 21 19 37l35 116q3 10 7 20l39 107q1 2 9 43t20 82l11 33q16 52 37 170l5 30l21 99l4 23q8 32 34 93q9 20 12 30l11 51l12 21l22 56q23 49 83 49q29 0 29 -40q0 -5 4 -41q2 -12 2 -18q0 -14 -3 -42q-1 -8 -4 -48 q-4 -54 -11 -107l-4 -34l-6 -45q-3 -19 -37 -150q-6 -24 -10 -42q-8 -43 -11 -52l-11 -28l-16 -72l-9 -24q-1 -5 -2 -17l-3 -41q-1 -13 -9 -42q-22 -70 -27 -128l-2 -21l-11 -60l-3 -42q-1 -1 -4 -15q-18 -78 -18 -132l-1 -22l6 -53l21 -27q4 -4 4 -11q0 -4 -2 -7l-1 -3 l-30 -44l-40 -42l-14 -17q-22 -26 -59 -26q-41 0 -52 70v3l7 21v3l-6 19l-1 4l13 35l1 4l-11 26l-1 3l9 29q2 5 2 6l-3 17v4l4 50l9 30q3 9 3 20q0 21 -7 22t-19 -19l-19 -32l-20 -34q-6 -10 -9 -13l-17 -19l-4 -16l-15 -20l-9 -12q-66 -89 -132 -109l-33 -8l-18 -7 q-9 -4 -17 -4q-83 0 -111 38l-28 33l-9 14l-7 10l-20 47l-7 10q-10 14 -16 40l-5 19l-10 40l-14 75q-8 38 -8 45q0 4 3 21q-19 122 -19 136q0 8 4 80v7l-5 55q-2 20 -2 120z" />
<glyph unicode="V" horiz-adv-x="861" d="M68 1236v2l10 54l3 20q15 96 61 124l18 10l15 10l35 10l14 11q17 12 31 12q34 0 34 -43q0 -6 2 -14q7 -44 7 -46l-9 -72q-1 -3 -1 -27v-19l-4 -46l-1 -27q-2 -10 -8 -24q-7 -16 -7 -24q0 -3 3 -13q11 -35 11 -52q0 -24 -8 -73q-1 -9 -1 -10l10 -46l-6 -74l10 -39l3 -28 l4 -29l6 -60l4 -26l16 -120l4 -22q4 -24 4 -35l1 -33q0 -14 4 -20l12 -16q5 -6 8 -33q4 -34 9 -50l10 -38q7 -25 17 -24q7 1 12 7l10 15l15 23q3 4 11 18q14 28 17 35l29 67q7 19 18 37l21 34q1 2 20 49q2 5 24 50q13 28 23 55q9 25 10 27l21 44q3 6 5 12l15 47l9 15l15 47 l9 24l12 43q6 17 6 19t-1 4l-9 26l12 51l13 76l4 12q19 63 49 76l64 27q21 8 29 9q23 2 23 -38q0 -29 -4 -55l-15 -78l-1 -23q-3 -38 -13 -58l-18 -33v-5l-3 -16v-1l-15 -56l-10 -41q-1 -2 -16 -30q-15 -27 -31 -79q-6 -22 -9 -28l-33 -72l-6 -28q-1 -2 -5 -9 q-15 -28 -24 -52q-10 -25 -13 -30l-19 -36l-5 -19q-2 -9 -25 -52q-5 -8 -9 -17l-28 -60l-15 -25q-4 -6 -10 -23q-16 -38 -34 -62q-10 -13 -10 -19q0 -4 13 -22l1 -2q3 -6 3 -12q0 -15 -4 -21l-30 -30q-7 -7 -44 -54q-9 -11 -11 -13l-35 -17q-8 -4 -13 -12l-17 -26l-5 -3 q-23 -12 -29 -13l-14 -4q-12 -3 -19 -3q-20 0 -32 11l-9 13l-15 17q-10 13 -10 32q0 17 23 43l18 20q7 9 7 14t-2 9l-10 13q-1 3 -4 25q-2 18 -26 60q-17 31 -38 95q-2 9 -4 13q-11 29 -11 33l-4 32l-9 31l-1 31l-15 30q-3 5 -5 19l-10 54l-8 40q-1 5 -1 10v27l-8 40l-1 30 q-1 12 -9 38q-11 38 -11 54l2 57l-5 21v5l10 36l-1 3l-15 18q-6 7 -8 57q-1 24 5 34l5 9l-12 28l-1 3v36l-6 11q-2 4 -5 20l-3 19q-1 4 -1 6l6 39q1 5 -8 22z" />
<glyph unicode="W" horiz-adv-x="1225" d="M82 911q0 11 3 37q0 67 1 84l7 79q10 119 12 125q10 24 10 27v27q0 4 4 23l16 87q14 76 71 76q61 0 89 -55l13 -26l16 -29q15 -26 14 -35q-23 -224 -25 -227l-7 -19q-3 -8 -2 -13l9 -49v-60l1 -75l1 -48l2 -71l-4 -26l10 -72l1 -62q0 -20 10 -69q7 -36 8 -47l5 -62 l13 -79q7 -52 18 -67l4 3l7 3l51 91l28 49q12 20 23 60q13 40 15 45l35 69q3 8 22 76q3 14 18 60q14 43 39 130q4 17 5 21l19 72l11 67l13 70q21 114 74 130l89 30l16 -6q27 -18 27 -58l-9 -52l-26 -176l-10 -47q-2 -10 -4 -43q-2 -51 -12 -95q-15 -65 -16 -82q0 -3 3 -44 q1 -8 1 -93v-42v-89l2 -90q-2 -45 12 -46q12 -1 31 43l23 58l42 96l31 103l13 35q24 72 26 75l11 13q7 12 10 37l4 31q2 12 16 40q7 15 46 149l24 82q11 40 23 90l2 9l-13 43l15 51q2 7 5 22q16 25 23 33l23 26q25 27 35 28q20 3 20 -44q0 -119 -9 -137q-22 -42 -20 -48 l13 -49l-1 -3l-20 -76l-10 -55l-12 -54q-16 -82 -21 -91q-12 -20 -12 -27v-1q0 -36 -25 -82q-13 -24 -31 -107q-7 -37 -24 -74q-4 -11 -5 -13l-13 -42l-8 -10q-13 -17 -18 -33l-13 -48q-7 -23 -18 -47q-14 -28 -16 -33l-11 -31q-7 -20 -27 -59l-18 -37q-10 -20 -18 -25 l-24 -14l-8 -11q-6 -8 -20 -8q-4 0 -8 1q-13 2 -14 2q-3 -1 -24 -15q-12 -8 -30 -8t-32 7l-10 6q-27 15 -38 59l-10 44l-11 41q-3 13 -3 59l-4 74v6l-8 32l-1 37l-2 11v28l-5 17l-6 21l-3 1l-4 -1q-9 -5 -25 -49q-12 -34 -25 -57l-18 -32l-18 -33l-3 -25l-14 -29l-16 -40 l-22 -47l-25 -57q-11 -26 -25 -52q-14 -25 -16 -30q-33 -69 -103 -69q-21 0 -32 23l-20 55l-17 39l-19 81l-9 28l6 21l1 2l-4 12q-21 40 -27 84l-9 68l-10 65v35q0 32 -13 58l-9 18q-7 14 -7 72q0 92 -22 109l-27 20q-5 4 -7 30l-5 67q-1 6 -1 19z" />
<glyph unicode="X" horiz-adv-x="828" d="M-77 74l3 42l-2 37q0 64 41 124l30 42l27 42q7 11 15 20l34 39l26 36l56 66l44 63l21 26l25 39q5 7 22 29q12 15 27 37q18 25 26 35q42 52 42 78q0 14 -15 47q-2 4 -21 55q-10 25 -17 39l-37 70l-41 87l-24 29l-46 86l-26 36q-29 41 -29 55q0 38 42 38h8l55 -21l24 -4 q4 0 58 -60l21 -22l15 -29q1 -3 28 -31q22 -25 51 -81q18 -37 21 -41l30 -48l15 -27q8 -10 17 -10q8 0 37 49q2 4 25 30q22 25 36 61q14 38 15 40l30 43q10 16 21 42q18 39 24 48l33 37l19 28l26 39q14 22 41 71q21 39 37 40q26 1 26 -32l-6 -49l2 -36q0 -6 -1 -7l-13 -24 q-10 -17 -11 -29l-1 -15q-1 -8 -37 -63q-5 -8 -13 -24q-17 -34 -24 -44l-19 -31q-10 -15 -33 -61q-50 -97 -119 -193q-33 -48 -33 -68q0 -8 8 -25q37 -76 47 -113q14 -52 15 -53l16 -33q2 -5 8 -25q9 -30 17 -49l12 -28q8 -20 8 -50q17 -20 20 -36l8 -47l3 -15l7 -40 q1 -7 1 -8l16 -35q6 -13 9 -45v-1l-1 -16v-38q0 -15 -5 -24l-19 -38q-4 -8 -13 -33q-15 -40 -30 -52l-21 -15l-21 -17q-23 -17 -46 -17q-9 0 -14 6l-18 34l-24 23q-27 26 -27 73q0 32 9 61l18 59l-6 20q-7 23 -7 48q0 34 -11 67q-10 30 -19 64l-17 72l-15 31l-12 40 q-8 22 -8 24q-7 36 -16 36q-10 0 -28 -40q-9 -19 -24 -38l-49 -59q-15 -19 -19 -25l-42 -75q-4 -9 -34 -47q-26 -33 -35 -53q-18 -41 -21 -46q-9 -11 -8 -17t14 -9q5 3 8 4q28 20 30 20q33 5 35 -32q0 -5 -8 -19l-15 -29q-8 -14 -35 -37l-32 -27l-38 -32l-28 -19l-30 -25 l-30 -25q-43 -35 -54 -35q-57 0 -57 73v12z" />
<glyph unicode="Y" horiz-adv-x="755" d="M41 1249v5q0 84 52 84h7l20 -2q1 0 5 1q24 7 43 19q18 12 26 12q64 0 68 -74l5 -83l-5 -55q-3 -29 -3 -52q0 -10 5 -34q6 -29 14 -122q4 -50 9 -67l11 -32q2 -7 5 -30q4 -34 13 -66q12 -39 13 -52q2 -29 5 -33l16 -22l16 -33q4 -6 8 -5q8 1 50 89q6 11 13 23q7 22 10 30 l21 41l33 77l24 40l12 43q5 18 29 63q12 24 35 72q7 11 11 17q8 12 9 14l11 33q2 7 24 40l27 47l31 51l14 23l28 45l19 31q16 25 31 26h4q40 0 40 -59l-2 -48l1 -39q0 -16 -2 -22l-13 -35l-15 -64l-27 -77q-15 -50 -17 -52l-17 -21l-3 -5l-5 -38q-2 -15 -13 -24l-11 -10 q-3 -3 -4 -10l-2 -15q-1 -11 -14 -30l-20 -30q-17 -24 -27 -44l-19 -36l-21 -33l-45 -75q-18 -30 -21 -36l-4 -8l-17 -22l-1 -3l-2 -27q0 -9 -25 -51q-7 -13 -30 -69l-20 -47l-5 -13q-7 -16 -17 -33l-5 -10q-10 -21 -29 -102l-7 -33l-9 -41q-3 -19 -4 -33t8 -27 q16 -26 16 -32q0 -23 -58 -57l-35 -15l-13 -10q-8 -6 -20 -8h-5l-46 9l-37 7q-22 9 -22 30q0 1 6 26q0 2 2 12q11 86 37 121l19 26l1 4l-6 20l-1 4l10 36q1 3 4 15q9 33 22 53l6 9q13 21 16 33l10 34l7 27l-24 19q-9 6 -25 27l-8 11q-22 29 -27 46l-6 25q-5 20 -25 52 q-16 26 -24 55l-16 55l-9 18l-8 38l-25 85l-2 20q0 5 -1 8l-13 31l-2 22q0 4 -7 32q-9 39 -9 57q0 36 -2 40l-5 15l8 23l-14 18q-2 2 -3 4l-4 54z" />
<glyph unicode="Z" horiz-adv-x="863" d="M-54 80q0 105 71 178l9 10q10 10 26 33q18 29 30 38l15 11l17 24l59 68l38 51l63 74q10 12 25 34q30 44 41 56l17 19l28 36l20 19l21 35l20 23l53 83l30 40l40 63l6 7q10 14 28 52q10 22 21 44q18 34 18 56q0 38 -143 77l-8 2l-76 3q-3 0 -51 15l-7 2l-49 -15l-10 3 q-22 8 -54 8q-9 0 -19 -1l-93 -9l-28 9q-5 3 -8 19l-6 28l8 18l11 21l23 41l6 21q18 71 115 71h2q73 0 78 -5l12 -11l3 -1l29 11q9 4 23 4q30 0 84 -12l36 -10l25 -1l47 -11l27 -3l38 -17q2 -1 8 -3q18 -7 28 -14l11 -7l38 -13q2 0 12 -9q8 -7 17 -14l9 -6q16 -13 22 -23 l16 -29l17 -27q13 -22 13 -68q0 -63 -18 -91l-14 -20q-2 -4 -8 -26l-4 -12q-6 -24 -37 -59q-11 -12 -29 -39l-15 -24q-14 -25 -24 -30l-12 -6q-9 -5 -20 -27q-17 -35 -57 -78q-6 -6 -8 -9l-41 -52q-1 -2 -23 -27q-34 -40 -68 -87q-15 -22 -22 -27l-23 -13q-5 -4 -6 -6 l-12 -31q-4 -10 -16 -25l-15 -18q-8 -9 -16 -21q-14 -18 -16 -20l-19 -21q-10 -10 -33 -42q-21 -28 -48 -63q-17 -22 -20 -27l-25 -40q-14 -23 -14 -29q0 -10 9 -9l38 7l27 -5l50 6l35 -11q3 0 30 10q17 6 55 6q106 0 167 25l10 4q8 3 34 7q58 9 85 19q46 18 48 18l18 2 q12 1 37 11q8 -7 10 -19q4 -25 21 -50q9 -12 9 -22q-40 -19 -53 -23l-54 -17q-7 -2 -20 -7q-57 -23 -66 -26l-22 -5l-50 -17l-88 -19q-5 -1 -18 -5q-74 -23 -111 -36q-39 -15 -47 -17l-92 -18l-33 -8l-53 -11q-71 -14 -89 -14q-126 0 -126 96z" />
<glyph unicode="[" horiz-adv-x="726" d="M184 -17q0 29 5 73q5 33 6 58q3 19 3 23l7 50q5 30 8 70q12 153 15 170q10 58 10 64l1 45q0 39 7 96l10 84l2 27q3 36 11 60l11 35l4 70q0 5 2 14q6 41 6 46l-4 67l39 136q16 85 21 96l7 14l24 46q28 49 54 57l77 22q2 1 16 7q39 17 63 19l19 3l48 14q5 1 12 1l60 2 l35 -5q19 -11 18 -36q-4 -72 -33 -72l-30 7l-23 -6h-34q-165 0 -192 -185l-27 -188l-5 -30l-12 -107l-10 -23l-14 -102l-15 -79l-4 -40l-7 -32q-8 -39 -8 -98q0 -12 -2 -23l-19 -129l-3 -46l-24 -120q-5 -30 -5 -56q0 -51 73 -58q10 -1 17 -2q22 -3 33 -3q18 0 48 9l56 17 q18 5 49 7q24 1 24 -19q0 -6 -2 -12l-10 -26l-16 -43q-23 -25 -77 -29l-28 -2l-22 -1q-35 -2 -42 -3l-54 -8h-10q-22 0 -25 1l-12 3l-79 7q-12 3 -18 11l-10 18l-21 15q-4 4 -4 19z" />
<glyph unicode="\" horiz-adv-x="777" d="M-54 1477q0 20 23 20q17 0 40 -7l24 -6l25 -13q10 -5 32 -6q29 -1 42 -50q11 -46 13 -49l27 -61q1 -3 12 -41q3 -9 9 -26q9 -30 14 -43q37 -123 67 -175q14 -24 18 -33l13 -35l32 -60l51 -97q11 -22 35 -66q19 -33 25 -46l24 -53l22 -46l27 -65l30 -57q7 -13 16 -35 q13 -32 31 -60q24 -38 33 -76q57 -94 67 -149q4 -21 5 -24l12 -28q10 -25 8 -44l-9 -74l-2 -19q-4 -8 -16 -8q-91 0 -91 85q0 33 -16 69l-34 76l-40 101l-74 134l-36 68l-114 202q-18 32 -28 54l-27 58l-50 81q-15 25 -21 39l-47 105q-8 18 -24 47q-50 92 -57 109l-21 57 l-28 65l-31 136q-11 37 -11 46z" />
<glyph unicode="]" horiz-adv-x="725" d="M-28 -46q4 73 33 73l30 -8l23 7h34q165 0 192 185l27 187l5 31l12 106l10 24l14 102l15 79l4 39l7 32q8 41 8 98q0 12 2 24l19 129l3 45l23 120q6 30 6 57q0 50 -73 57q-11 1 -17 2q-22 3 -33 3q-19 0 -48 -9l-56 -17q-18 -5 -49 -7q-24 -1 -24 19q0 5 2 11l10 27l16 42 q23 25 77 29l28 1l22 2q35 2 42 3l55 8h10q21 0 24 -1l12 -3l79 -7q12 -3 18 -11l10 -18l22 -15q3 -3 3 -18q0 -28 -5 -73q-5 -34 -6 -58q-3 -19 -3 -23l-7 -49q-4 -31 -8 -70q-12 -154 -15 -171q-10 -58 -10 -64l-1 -45q0 -42 -7 -95q-9 -71 -10 -84l-2 -27q-3 -36 -11 -60 l-11 -36l-4 -70q-1 -5 -2 -13q-6 -43 -6 -46l4 -67l-39 -137q-16 -85 -21 -95l-7 -14l-23 -47q-29 -49 -55 -57l-77 -22q-2 -1 -16 -7q-39 -16 -63 -19l-19 -2l-48 -15q-5 -1 -12 -1l-60 -2l-35 5q-19 11 -18 36z" />
<glyph unicode="^" d="M-52 583l570 850h14l544 -850h-85l-402 620l-416 -620h-225z" />
<glyph unicode="_" d="M42 -189h939v-89h-939v89z" />
<glyph unicode="`" d="M488 1087q0 18 26 27q4 14 9 18l16 5q6 2 11 2q35 0 40 -44q13 -13 17 -19l11 -26q14 -35 41 -64l19 -21l14 -20q12 -16 37 -35l23 -16l25 -26q29 -27 30 -30v-13v-5q0 -26 -18 -24q-1 0 -14 8l-33 16l-10 12q-3 3 -41 24q-17 9 -35 28q-52 54 -54 55l-45 27 q-55 34 -61 67l-6 42q-2 9 -2 12z" />
<glyph unicode="a" horiz-adv-x="769" d="M-41 86q0 32 20 69l5 8l20 22q2 2 2 11v11q-2 13 -9 22q-17 23 -21 50q-2 12 -10 19q3 4 5 6l1 2q8 10 11 15l13 21l91 61q7 5 26 36q17 26 31 32l16 7q3 2 20 25q11 17 40 35q51 34 66 48l37 35q26 26 50 42l24 16l21 18l24 13l20 15q42 32 99 32q51 0 51 -41 q0 -51 -53 -82l-23 -14q-6 -3 -9 -8l-20 -30q-2 -2 -26 -23l-23 -19l-24 -19q-4 -3 -17 -22q-16 -23 -32 -33q-23 -14 -24 -16l-11 -20q-3 -4 -20 -17q-20 -15 -54 -55q-19 -23 -49 -49q-24 -21 -32 -35l-20 -35l-18 -29l6 -8l5 2q75 41 135 101q33 34 46 42l25 15l4 3 l33 39q14 17 41 35l42 30q12 4 44 4q45 0 45 -86l-2 -76q0 -23 9 -42q20 -41 57 -41q15 0 27 12l35 39l19 12q2 1 6 7q9 -7 10 -19q4 -25 22 -50q8 -12 8 -22q-28 -22 -55 -50q-80 -83 -154 -83q-131 0 -139 149q-2 36 -14 38q-5 1 -25 -25q-10 -13 -42 -34q-28 -19 -36 -27 l-61 -62q-54 -54 -95 -76l-42 -23q-44 -24 -59 -24h-1q-92 5 -92 96z" />
<glyph unicode="b" horiz-adv-x="598" d="M-35 298q3 4 5 6l2 2q8 11 10 15l13 21q8 13 41 38q23 69 34 172q10 95 31 163l31 99q52 170 59 186l42 101l10 26q40 106 77 154l23 31q32 42 41 46l25 9l47 26q31 16 70 16q43 0 52 -42l5 -41q1 -15 1 -22q0 -78 -49 -211q-32 -89 -33 -90l-5 -21q-6 -24 -29 -64l-4 -9 l-29 -61q-6 -12 -10 -19l-26 -46l-30 -62l-27 -25q-3 -2 -3 -4v-23q0 -5 -10 -17q-23 -30 -50 -87q-22 -48 -46 -80l-20 -27q-46 -59 -48 -102v-1l-1 -86l14 -33q4 -21 4 -31l1 -12q6 -90 56 -90q46 0 70 27l13 16l12 12q5 6 11 24q-55 25 -55 54q0 5 14 49l9 31l40 62 q67 108 111 108l47 -5l38 7q31 0 31 -43q0 -53 -31 -103q-19 -31 -20 -47q-1 -12 10 -13q7 0 17 10q3 2 7 6q8 -7 10 -19q4 -25 21 -50q9 -12 9 -22q-28 -29 -44 -41l-20 -14l-31 -21q-20 -15 -33 -16q-2 0 -19 1q-6 1 -14 1h-8q-25 -27 -36 -40l-41 -51q-9 -12 -38 -31 q-17 -12 -21 -16l-21 -21q-37 -36 -94 -36h-12q-13 1 -42 17l-29 17q-21 13 -26 26l-7 22l-10 23q-5 11 -12 53l-7 39q-4 26 -4 42l1 32q0 15 -5 23q-2 3 -5 3h-3q-3 -1 -8 -2l-9 -10q-1 13 -9 22q-16 23 -21 50q-2 12 -10 19zM219 642q0 -9 2 -9t7 8l9 17l22 33q7 12 16 36 q10 28 14 34l25 47l34 88l6 12l11 43l18 44q7 18 15 57q14 23 21 34q8 13 8 25q0 14 -7 15h-1q-14 0 -28 -55q-10 -36 -54 -112q-73 -123 -108 -269q-6 -28 -7 -33q-3 -8 -3 -15z" />
<glyph unicode="c" horiz-adv-x="631" d="M-35 298l7 8q1 10 17 28l17 20l82 56l25 24l63 55q100 88 131 96q23 7 32 14l2 1l11 14q7 7 19 14l29 16q31 17 35 19l34 11q29 9 44 9q35 0 32 -31l-2 -24l3 -28q-5 -78 -125 -125l-23 -10q-3 0 -6 -3l-36 -35l-53 -37l-47 -38l-36 -27q-55 -49 -55 -131q0 -60 47 -78 l23 -8q25 -9 29 -9l76 22l18 3q10 2 29 16q38 30 53 39l59 33q18 10 26 18l46 50q4 4 25 18q9 -7 11 -19q4 -25 21 -49q8 -13 8 -23q-24 -18 -33 -28l-15 -17q-5 -5 -31 -21q-8 -5 -25 -16q-18 -16 -26 -19l-32 -13q-4 -2 -27 -25q-98 -99 -267 -99q-51 0 -79 20l-32 25 l-25 17q-50 37 -50 123q0 7 7 34q1 6 4 19q-1 13 -9 23q-16 22 -21 49q-2 12 -10 19z" />
<glyph unicode="d" horiz-adv-x="836" d="M-35 298q5 5 5 6l3 11l16 19l17 20q17 20 85 48q8 3 12 7l1 1l19 30l22 21l28 29q3 2 35 31q52 46 68 65l27 31q8 8 19 18l22 18l37 33l35 29q40 34 57 35l10 1q30 2 30 44v11l23 51l17 64q3 8 14 37l36 91l27 56l24 50l27 46l14 34q7 17 20 34l20 27l19 26q22 22 57 22 q36 0 36 -57q0 -83 -10 -109l-19 -46q-3 -8 -6 -44q-4 -33 -15 -47l-13 -14l-3 -29q0 -6 -2 -9l-14 -19q-2 -3 -2 -32q0 -19 -24 -58q-18 -32 -25 -51l-15 -42q-3 -10 -12 -21q-14 -18 -14 -21l3 -22l-65 -231q0 -109 24 -152l14 -23l16 -26q23 -37 59 -37q35 0 77 44 q8 -7 10 -19q4 -25 21 -50q8 -12 8 -22q-27 -19 -33 -28l-15 -25q-32 -54 -113 -54q-155 0 -188 157q-23 89 -37 89q-4 0 -12 -14q-4 -7 -19 -19q-31 -27 -36 -42l-7 -21q-7 -18 -26 -38l-39 -39q-4 -4 -45 -54q-124 -152 -196 -152q-98 0 -98 97q0 21 3 30l31 91q1 3 1 5 q0 7 -6 17q-1 13 -9 22q-16 23 -21 50q-2 12 -10 19zM160 192q0 -12 8 -13q3 -1 14 7l25 17q9 6 26 26l34 36l44 47l28 36l32 36l26 43l27 42l16 27q21 34 25 63l2 24v2q0 14 -5 14l-63 -61l-25 -18q-2 -3 -9 -22q-3 -7 -93 -114q-29 -34 -66 -101l-22 -40l-20 -35 q-4 -8 -4 -16z" />
<glyph unicode="e" horiz-adv-x="503" d="M-35 298q5 12 8 17l16 19l17 20q8 10 37 31q3 19 3 26l4 50q1 24 12 47l15 30l21 55q14 37 43 75l15 20q22 30 35 39l19 15l20 30l1 2l17 11l16 12q28 21 79 21q73 0 87 -67l3 -18l7 -28q1 -6 1 -16q0 -9 -6 -21q-5 -9 -8 -19l-9 -32q-18 -64 -87 -139l-21 -23l-31 -38 l-8 -8l-32 -31l-16 -15q-16 -16 -17 -33v-8q0 -57 52 -72l13 -4q28 -9 31 -9q1 0 19 2l29 3q5 0 18 5q27 9 29 10l4 1q12 3 17 7l11 10l32 16q2 1 7 7q8 -7 10 -19q4 -25 21 -50q8 -12 8 -22q-15 -15 -24 -21l-4 -3l-67 -57q-41 -33 -94 -33q-32 -18 -85 -18 q-122 0 -153 117q-13 46 -36 44q-19 -1 -39 -29q-1 13 -9 22q-16 23 -21 50q-2 12 -10 19zM188 482q-1 -14 12 -13t23 16l9 17l49 56q17 21 17 44q0 21 -14 21q-16 0 -54 -51l-4 -6q-36 -50 -38 -84z" />
<glyph unicode="f" horiz-adv-x="483" d="M-35 298l5 6l19 30l18 24q70 95 82 188q3 23 16 76l17 77q16 67 22 90l31 110q21 77 26 90l33 86l5 18l47 112q50 134 127 134q64 0 64 -63v-19l3 -47q0 -11 -6 -56q-2 -13 -5 -52q-3 -31 -5 -38l-24 -75q-2 -6 -6 -30q-2 -27 -23 -80q-6 -15 -6 -23v-15q0 -6 -28 -87 q-23 -68 -31 -87l-17 -38q-26 -57 -28 -60l-9 -14l-16 -45l-19 -23q-7 -9 -16 -41l-10 -31l-12 -45q-7 -25 -8 -30l-1 -8q-2 -25 -7 -53l-11 -59q-8 -41 -18 -155q-5 -49 -8 -78q-5 -41 -5 -43l-9 -123l-4 -58l4 -50q5 -64 15 -66q11 -2 33 47l15 33l5 15l16 31q17 35 25 57 l8 25q1 2 17 32q1 2 1 4l1 3l-3 20l1 3q2 6 9 20q7 13 14 35l8 28l20 66l13 55l27 59l11 33q12 34 54 78q2 2 6 7q9 -7 10 -19q4 -25 21 -50q9 -12 9 -23q-22 -28 -35 -67q-5 -17 -13 -39q-12 -36 -15 -52l-14 -62l-19 -60l-7 -33l-24 -84q-24 -87 -31 -99q-15 -27 -17 -31 l-2 -7q-12 -41 -20 -59l-22 -50q-20 -46 -25 -53l-22 -30l-24 -37q-30 -42 -63 -42q-107 0 -115 142q-3 56 -4 61l-5 17q-6 26 -6 91l1 49l-1 82q0 23 2 35l5 34l-10 62l9 44q5 21 5 59v14l8 51l4 31l2 11l-25 22q-1 13 -9 23q-16 22 -21 50q-2 12 -10 19zM303 806 q-1 -9 6 -8q2 0 7 7l8 9l3 28q0 7 28 61q16 29 16 45q0 21 -13 22q-10 1 -15 -30q-6 -36 -25 -81q-13 -31 -15 -53z" />
<glyph unicode="g" horiz-adv-x="550" d="M-35 298q5 5 5 7l6 11q1 4 13 18l17 20l33 31q25 24 35 45l33 67l14 19l4 22q2 9 20 33l43 57l8 8l45 61l25 23l31 32l10 10l16 23q60 90 147 90q57 0 57 -99q0 -33 -45 -85q-33 -37 -39 -46l-21 -32q-12 -17 -47 -51q-30 -28 -36 -35l-42 -51q-11 -12 -21 -22 q-40 -35 -46 -45l-7 -23q-7 -23 -7 -26q0 -2 3 -32l8 -63q2 -18 29 -53l46 -62q30 -40 40 -40q8 0 22 17q7 9 35 35q24 23 65 74l51 62q8 -7 10 -19q4 -25 21 -49q9 -13 9 -23q-46 -49 -99 -131q-13 -19 -23 -30q-17 -17 -17 -27q0 -20 32 -53q13 -15 15 -18l16 -30l21 -38 q3 -6 7 -26l11 -63q3 -16 3 -18l-4 -18l-2 -24q-10 -112 -140.5 -228.5t-244.5 -116.5q-133 0 -138 94v60l-2 51l10 38l14 35l19 49l62 86l21 34q6 10 23 25q68 64 74 100q3 18 -24 43q-120 110 -132 230q-2 19 -8 20q-1 0 -3 -1l-3 -2q-8 -6 -29 -31q-3 -4 -9 -10 q-1 13 -9 23q-16 22 -21 49q-2 12 -10 19zM82 -471q0 -37 42 -37q28 0 65 19l34 19l20 9q36 18 78.5 88t42.5 110t-26 90.5t-46 50.5q-14 0 -27 -34q-2 -5 -61 -76q-9 -11 -53 -87q-13 -24 -30 -47t-20 -38l-6 -33l-12 -29q-1 -3 -1 -5z" />
<glyph unicode="h" horiz-adv-x="734" d="M-35 298q29 26 40 37l29 30q16 17 21 35l10 41l12 59q11 56 29 105l30 79l11 40q33 106 71 164q27 39 28 47l1 8q1 2 8 11q5 7 13 27q11 28 25 49l38 55l3 5l44 62l17 26q13 20 44 52q49 52 54 59q18 20 21 23l49 39l38 32q38 24 59 24h3q8 -1 14 -13l4 -8l15 2l5 -1 q44 -22 44 -61l1 -21l-7 -37q-4 -20 -5 -22l-8 -11q-5 -7 -5 -12l-1 -29q0 -12 -9 -30l-17 -32l-16 -42l-14 -32l-12 -32q-11 -31 -34 -67l-27 -42l-20 -44q-9 -19 -20 -34l-25 -34l-33 -49l-22 -20l-14 -33q-5 -9 -39 -53l-8 -9l-49 -61l-16 -23l-51 -59l-6 -13 q-2 -5 -21 -21q-13 -11 -34 -40l-22 -30q-10 -39 -11 -50l-13 -71l-12 -69q-2 -19 -2 -45q0 -37 12 -35q5 1 13 13q3 7 21 25q58 58 124 226q34 86 69 100l35 15q21 8 31 9h1q22 0 38 -50l5 -17l16 -66q26 -96 87 -96q8 0 48 10q9 2 26 5q8 -7 10 -19q4 -25 21 -50 q9 -12 9 -23q-30 -17 -44 -27l-20 -14q-51 -34 -79 -36l-41 1l-30 -3q-71 0 -105 78l-10 23q-6 14 -19 13q-3 0 -5 -1l-40 -53l-27 -26l-3 -4l-14 -34q-2 -4 -20 -25q-5 -6 -26 -34q-77 -107 -120 -107h-2l-26 4h-13q-31 2 -43 31l-10 48l-8 37q-3 12 -3 44v52q-2 12 -1 14 l7 24q5 15 -11 15q-3 0 -5 -3l-5 -6q-2 -5 -11 -11q-1 13 -9 23q-16 22 -21 50q-2 12 -10 19zM269 628q-1 -7 5 -7q10 1 17 12l17 27l23 27l54 71l37 47l24 40l55 85l23 49l54 106l41 90q8 17 8 30q0 16 -13 16q-15 0 -58 -57l-25 -33q-45 -59 -54 -76l-12 -23l-33 -45 l-36 -61q-10 -17 -23 -30q-23 -23 -23 -32l1 -16q0 -2 -2 -7q-9 -31 -23 -62q-27 -59 -30 -69l-15 -45q-11 -33 -12 -37z" />
<glyph unicode="i" horiz-adv-x="572" d="M-35 298q5 5 5 6l3 11q2 4 16 19q3 3 17 20q15 18 100 91q26 22 37 38l19 26q21 29 49 29q94 0 105 -130q4 -40 10 -65l17 -63l3 -19q8 -45 51 -45q40 0 73 28l42 35q6 5 25 19q9 -7 10 -19q4 -25 21 -50q9 -12 9 -22q-28 -30 -43 -41l-21 -14l-30 -22q-5 -3 -22 -11 q-69 -57 -103 -57h-3l-28 2l-24 -1q-75 0 -107 90l-16 47q-4 11 -21 32q-7 9 -10 15l-22 39q-3 6 -14 6q-34 0 -85 -59l-14 -16q-2 -2 -9 -10q-1 13 -9 22q-16 23 -21 50q-2 12 -10 19zM178 895q-1 27 18 52l34 42l6 9q15 21 26 23l17 2q1 1 2 3l8 14q24 46 93 46 q45 0 47 -38q0 -9 -10 -47l-13 -51l-12 -31l-7 -18q-15 -37 -40 -51l-17 -10q-44 -25 -58 -27h-3l-24 3l-38 1q-26 14 -29 78z" />
<glyph unicode="j" horiz-adv-x="602" d="M-35 298l7 8q22 35 87 78q20 22 28 28l32 28q44 38 99 113q20 20 29 31l30 34l37 36q3 3 23 31q50 69 97 69q56 0 56 -56q0 -42 -8 -84l-2 -15l-1 -63q0 -13 -10 -66q-3 -17 -6 -41q-4 -31 -6 -39l-8 -42q0 -2 -4 -28q-6 -39 -14 -70q-9 -39 -12 -64q-1 -5 3 -12 q95 70 145 124q8 -7 10 -19q4 -25 21 -50q9 -12 9 -22q-26 -19 -33 -28l-15 -17q-18 -20 -40 -33q-46 -29 -52 -47l-3 -8q-6 -18 -35 -34q-14 -8 -17 -12l-9 -11l-18 -14l-8 -19l-37 -62q-2 -3 -11 -28l-19 -55l-11 -40q-7 -26 -34 -87q-15 -33 -23 -52q-13 -35 -28 -60 q-21 -37 -45 -88q-14 -30 -35 -53q-7 -9 -17 -21q-29 -35 -49 -34h-1l-42 2q-31 2 -31 62q0 59 9 88l12 38v15l11 32l16 46q10 31 44 89l20 34l9 19q31 61 74 101l4 5l7 19q1 3 7 10q36 44 37 54l6 41q0 4 7 25q7 24 12 66q9 79 16 106q10 41 10 61v2l-6 52l17 54l-6 15 q-5 10 -19 10q-38 0 -68 -39l-23 -31q-7 -10 -37 -37l-32 -30q-8 -8 -40 -34q-42 -36 -76 -72q-1 13 -9 22q-16 23 -21 50q-2 12 -10 19zM145 -285q-1 -7 5 -7t6 12q0 3 -1 5l-1 2l-4 -3q-4 -4 -5 -9zM389 1037q0 34 29 63l23 24l24 26l16 10l40 33l8 4l29 13q23 11 40 11 q45 0 45 -38q0 -52 -18 -86l-14 -25l-21 -53q-7 -16 -28 -30l-16 -11q-38 -25 -62 -28q-6 -1 -31 1q-16 1 -18 1q-46 0 -46 85z" />
<glyph unicode="k" horiz-adv-x="789" d="M-35 298q6 7 17 26q12 20 43 47q55 49 93 137q4 9 6 12l17 28l16 30l10 18q11 18 24 45q11 24 19 34l6 7l9 31l16 44l3 9q1 3 28 65q1 4 20 54l24 61q49 125 50 128q22 43 22 44l19 61q6 18 36 73q6 11 17 31q19 19 28 19q80 0 80 -122q0 -15 -6 -47l-6 -30 q-3 -17 -10 -34l-24 -61l-16 -44l-8 -22q-16 -46 -35 -83q-22 -40 -41 -88q-12 -29 -14 -35l-15 -29q-40 -78 -65 -172q-11 -40 -31 -99q-6 -17 -17 -53l-13 -39q-8 -24 -12 -41l-10 -40l-25 -73l-5 -37q-2 -9 -2 -13q0 -11 10 -12q19 -1 30 22l22 43q5 11 27 44 q26 37 29 60l3 29q15 106 78 123l38 10q9 2 48 66l26 40q6 11 16 29l38 69q58 106 80 106q43 0 43 -60q0 -8 -1 -16q-4 -45 -25 -79l-18 -31l-10 -19q-14 -27 -32 -51l-32 -40q-55 -71 -55 -112v-5q1 -6 12 -24l16 -24l19 -24l17 -24q6 -7 25 -21q21 -11 34 -11q15 0 26 9 l52 43q7 6 25 18q9 -7 11 -19q3 -25 21 -50q8 -12 8 -22q-24 -18 -33 -28l-15 -17l-42 -36l-32 -30q-41 -35 -92 -35q-31 0 -81 45q-24 21 -73 60q-15 18 -24 18q-13 0 -50 -53q-10 -15 -31 -37q-20 -22 -27 -29l-27 -35l-42 -41l-20 -26q-25 -30 -54 -30q-81 0 -81 93 q0 30 4 52l4 21l6 37q1 3 4 19q6 27 8 44l1 7q2 13 7 34l9 31q4 16 4 35q1 7 2 11q2 6 2 10q0 11 -8 11q-4 0 -20 -26q-12 -18 -60 -65q-9 -8 -10 -11l-6 -15q-2 -4 -12 -14q-1 13 -9 22q-16 23 -21 50q-2 12 -10 19z" />
<glyph unicode="l" horiz-adv-x="564" d="M-35 298l4 4q25 41 37 52l66 58q7 7 6 14l-4 29l6 46l9 71l10 25l-6 18l12 59q1 5 7 34q5 21 22 77l29 89l21 61q18 52 36 80q8 13 9 16l20 57q4 13 22 45q11 21 35 66q113 217 181 217h2l9 -1h20q69 -4 69 -106l-9 -50q-3 -16 -3 -50q0 -21 -10 -42q-12 -22 -12 -38 l1 -25l-5 -16l1 -14l-20 -52q-2 -14 -6 -19l-7 -10q-1 -2 -8 -34q-1 -5 -14 -36q-4 -10 -9 -28q-8 -25 -13 -33l-36 -57l-12 -36q-5 -15 -17 -35l-23 -41l-17 -19l-10 -23q0 -1 -6 -12l-13 -25q-8 -14 -42 -60q-18 -24 -28 -41q-31 -52 -38 -60q-27 -28 -27 -44 q0 -197 155 -197q12 0 21 3l56 18q20 6 22 7l14 11l50 40l7 7q8 -7 10 -19q4 -25 21 -50q9 -12 9 -22q-25 -20 -33 -28l-41 -40q-81 -81 -157 -81h-10l-50 9l-31 -1q-124 6 -153 181q-5 30 -14 31q-1 0 -3 -1l-35 -34l-17 -16q-7 -6 -20 -20q-1 13 -9 22q-16 23 -21 50 q-2 12 -10 19zM223 617q0 -9 7 -8q16 2 51 68q38 72 57 99q26 37 33 72q6 12 9 17q8 14 12 30q12 47 16 58q19 48 19 52l3 27l11 50l-4 6l-3 -1l-7 -7l-26 -28q-7 -7 -23 -29l-5 -5l-21 -39q-28 -51 -32 -63v-3l1 -21l-1 -9l-15 -33l-22 -51l-21 -42l-8 -39q-5 -22 -16 -46 q-14 -32 -15 -55z" />
<glyph unicode="m" horiz-adv-x="1262" d="M-35 298q8 10 13 17l17 27l30 29q1 2 32 36q7 8 40 41q23 24 39 42q20 24 24 28l23 21l54 59l19 17q4 3 13 15q69 31 80 31q51 0 51 -66q0 -32 -3 -48l-11 -48l-3 -32l-11 -24q-3 -8 -3 -28v-1q0 -13 13 -13q7 0 35 28q2 2 16 15q12 11 23 24l15 17l33 33l25 25 q20 20 22 23l8 9q25 33 65 67l30 25q23 19 30 23l28 9q9 3 15 3h4q55 0 55 -85q0 -9 -3 -28q-2 -21 -4 -31q-14 -120 -32 -167q-7 -18 -7 -30q0 -14 8 -15q2 0 4 2l9 11l16 15l17 26l11 7q4 3 16 15q22 24 64 52q7 5 10 7l35 26q6 4 36 10q8 2 14 3q14 3 26 3q6 0 20 -11 l16 -13q29 -23 43 -51l7 -15q6 -13 22 -40q11 -19 22 -40q31 -64 71 -64q9 0 20 9q8 -7 10 -19q4 -25 21 -49q8 -13 8 -23q-71 -58 -113 -58h-3q-74 4 -134 83q-72 96 -118 96q-13 0 -51 -26l-20 -14q-40 -28 -80 -91q-12 -18 -15 -20l-35 -34q-10 -8 -30 -40 q-27 -42 -45 -54l-20 -14q-19 -13 -27 -13h-1h-26q-32 0 -30 42q0 4 9 34q1 4 3 18q5 25 16 58l5 16q14 43 19 68l2 11l8 38l1 20l12 83l-3 13q-5 9 -17 9t-22 -8l-39 -38l-46 -35l-26 -33q-8 -10 -17 -18q-33 -30 -34 -32l-14 -23q-3 -5 -30 -29q-32 -29 -58 -67 q-16 -23 -38 -42q-21 -17 -38 -36q-21 -23 -32 -23h-1l-27 1q-34 6 -34 28q0 16 13 56q4 9 11 45q8 34 18 56l6 12q8 19 13 63q3 22 6 32q4 14 4 22q0 15 -16 15q-27 0 -46 -27l-20 -29l-8 -8q-74 -75 -75 -78l-6 -15q-3 -5 -12 -14q-1 13 -9 23q-16 22 -21 49q-2 12 -10 19 z" />
<glyph unicode="n" horiz-adv-x="956" d="M-35 298q5 5 5 7l3 10q2 4 16 19l36 37q5 5 26 21q68 80 107 120q32 32 38 40l14 18l19 19l27 31q58 65 128 65t70 -88q0 -46 -28 -131l-16 -49l-26 -80q-8 -24 -16 -39q-12 -21 -12 -37q0 -13 8 -14q7 -1 19 20q21 35 49 54q16 10 17 12l12 25q6 11 15 18l28 22 q8 6 25 32q103 86 159 86q91 0 129 -150l8 -32q14 -57 53 -57q24 0 43 21q8 -7 10 -19q4 -25 21 -49q9 -13 9 -23q-25 -17 -34 -28l-10 -13l-20 -14l-31 -21q-29 -21 -58 -21q-67 0 -104 75l-24 48q-5 10 -15 21l-25 28l-29 36q-4 3 -9 3q-6 0 -45 -24l-22 -15 q-23 -15 -38 -32q-14 -18 -36 -28q-21 -10 -28 -23l-16 -28l-45 -50l-30 -35l-42 -39l-34 -36q-32 -34 -83 -34q-47 0 -47 41l1 20l-3 22q0 5 6 23l9 30l15 40l8 37l28 84l10 39q1 6 13 35q9 22 9 39q0 15 -21 15q-26 0 -93 -80q-19 -23 -40 -37q-45 -27 -55 -49l-6 -15 q-2 -4 -12 -14q-1 13 -9 23q-16 22 -21 49q-2 12 -10 19z" />
<glyph unicode="o" horiz-adv-x="723" d="M-35 298q13 16 17 23l13 21l78 53q11 7 30 32q39 47 69 65q15 9 16 10l21 32l28 25l25 25l24 21l68 69q23 19 58 19t46 -19l1 -3l-21 -40q-1 -3 -1 -6q0 -7 6 -8q3 0 23 12q22 14 78 22q13 -2 20 -2q91 -9 114 -87l8 -52q5 -29 5 -38q0 -82 -60 -168l-1 -1q7 -25 22 -26 q14 -1 36 21q8 -7 10 -19q4 -25 21 -49q9 -13 9 -23q-24 -17 -34 -28l-10 -13l-20 -14l-30 -21q-29 -21 -61 -21q-46 0 -62 42q-55 -71 -109 -95l-30 -12l-40 -20q-12 -5 -17 -5l-25 2l-35 -9h-7q-56 0 -102 45q-50 48 -49 110q0 59 17 94q4 10 4 16q0 16 -16 15 q-13 -1 -28 -16l-50 -41l-7 -15q-2 -5 -12 -14q-1 13 -9 23q-16 22 -21 49q-2 12 -10 19zM263 207q0 -57 58 -57q90 0 144 82l13 20q2 3 16 15q24 20 38 74l16 58l-15 46q-16 30 -41 30l-47 6q-14 -4 -33 -35q-43 -69 -60 -72l-25 -5q-14 -2 -39 -65t-25 -97z" />
<glyph unicode="p" horiz-adv-x="699" d="M-35 298q13 16 17 23l13 21l30 29l35 43l31 30q1 2 2 5l2 15q1 6 19 32q29 42 82 135l34 60q35 60 52 99q13 29 18 37l14 25l14 38l22 28q17 23 32 23q39 0 39 -70q0 -38 -13 -74l-17 -43l-27 -83l-20 -59q-8 -26 -14 -44q-20 -70 -24 -81l-23 -55l-11 -43l-11 -37 l-17 -71q-2 -6 -14 -48q-13 -43 -20 -75l-17 -75q-15 -64 -17 -102q-13 -34 -15 -46l-8 -60l-7 -42v-4q0 -6 4 -7q6 -2 10 17q13 57 19 70q7 17 7 31q0 5 -1 11q-1 7 -1 11q0 3 14 31q8 16 38 113l34 111q1 4 12 33q14 33 18 50l5 22l11 25l15 31q3 8 9 18l12 24 q15 35 18 39l7 9l9 23l13 12q36 31 59 31q91 0 157 -185q17 -47 49 -51q8 -7 10 -19q4 -25 21 -49q9 -13 9 -23q-21 -13 -44 -13q-10 -1 -14 -2l-29 -6l-37 13l-31 11q-20 7 -60 48q-32 41 -55 50l-3 1l-20 -16q-39 -56 -75 -158q-19 -50 -22 -56l-11 -20l-15 -73 q-1 -4 -16 -44l-25 -63q-16 -43 -16 -49l-4 -30q-2 -18 -21 -58q-24 -53 -28 -76l-6 -37q-4 -25 -21 -54l-6 -10q-39 -69 -60 -71h-8q-61 0 -61 115q0 55 11 144q4 41 6 76l2 32q3 45 12 106l9 52l13 78l16 84q6 32 9 70q2 21 3 28q1 9 1 12v8l-7 -2q-12 -5 -36 -31l-23 -23 l-15 -22q-4 -4 -12 -14q-1 13 -9 23q-16 22 -21 49q-2 12 -10 19z" />
<glyph unicode="q" horiz-adv-x="714" d="M-35 298q5 5 5 7l3 10q2 5 16 19l17 18l87 53l26 18l30 13l10 14l34 26l26 21l19 11l63 42l35 17l25 24l11 3l49 31l39 20l45 23l20 6l22 10q15 6 49 6q36 0 49 -20l12 -18q15 -22 15 -25q2 -18 -38 -33q-32 -12 -36 -16l-15 -14q-5 -5 -31 -22l-25 -16q-5 -4 -7 -5 l-42 -20l-20 -20l-28 -22l-30 -26l-35 -28q-9 -7 -12 -10l-17 -20q-1 -2 -12 -10q-79 -63 -79 -111q0 -21 13 -22q7 0 22 12q13 11 32 20q38 17 76 51q24 22 65 47q40 25 83 58q24 20 40 27l16 7q22 10 28 10q2 0 3 -1l34 -21l16 -11q15 -19 15 -60v-15t-6 -26 q-4 -15 -6 -35l3 3q8 -7 10 -19q4 -24 21 -49q9 -13 9 -23q-24 -16 -27 -28l-3 -13q-1 -2 -11 -13q-7 -8 -33 -60l-4 -8q-35 -67 -62 -166q-5 -18 -6 -20l-17 -55l-16 -61l-18 -58q-7 -22 -14 -50q-10 -45 -15 -57l-6 -15l-22 -66l-17 -38l-20 -49q-20 -43 -68 -43 q-39 0 -37 24q0 5 11 34q2 6 5 37q3 20 16 64q9 26 13 44q6 22 11 31q14 28 14 30l-7 38l31 99q2 21 5 29l7 24l14 60l13 56l4 21l15 58q3 13 8 59q2 14 3 19l12 63l2 14q4 24 4 44q0 14 -16 14q-8 0 -18 -10q-20 -19 -26 -23l-39 -28l-41 -31q-26 -19 -61 -35 q-17 -24 -102 -67q-37 -19 -68 -19q-49 0 -61 25l-8 21l-12 21q-5 9 -5 17q0 9 8 38l13 45q1 4 8 16q9 16 11 28q1 8 -8 7q-11 -1 -20 -11q-12 -14 -16 -17l-22 -15l-4 -9q-3 -6 -12 -15q-1 13 -9 23q-16 22 -21 49q-2 12 -10 19z" />
<glyph unicode="r" horiz-adv-x="667" d="M-35 298q13 16 17 23l13 21l85 72q17 16 34 41l21 32q6 9 29 43q20 27 19 32l-9 47q0 3 4 8q7 9 24 23l24 19q52 43 95 43q47 0 80 -37l23 -25l15 -11q81 -63 81 -212q0 -37 -16 -80l-36 -97l-7 -38q-2 -7 -2 -11q0 -10 8 -11h4q25 0 77 49q50 47 58 51q19 10 26 18 q8 -7 10 -19q4 -25 21 -49q9 -13 9 -23q-24 -17 -33 -28l-10 -13q-2 -2 -5 -4l-31 -21q-2 -2 -25 -21q-24 -20 -45 -32l-52 -29l-49 -33l-17 -6l-31 -18q-5 -3 -15 -3q-80 0 -84 52q0 5 6 22q5 13 10 34q5 18 7 22l19 34l15 60l17 63q14 48 14 91q0 106 -66 113 q-3 0 -21 -14l-49 -40q-38 -30 -81 -92q-11 -15 -18 -19l-24 -14l-20 -26l-61 -49l-6 -15q-2 -5 -12 -14q-1 13 -9 23q-16 22 -21 49q-2 12 -10 19z" />
<glyph unicode="s" horiz-adv-x="626" d="M-35 298q5 5 5 6l3 11q3 9 16 19l84 65q6 5 8 6l19 14l12 18q13 19 43 41l20 14l32 42l12 12l23 20l31 26l19 25l31 27l22 23l20 19q3 3 16 18q11 11 20 16l2 1q29 12 45 12q90 0 90 -83q0 -47 -4 -65l-7 -27l-3 -38q-4 -46 -18 -93l-22 -68l-19 -61q-7 -24 -14 -37 l-6 -11q-12 -25 -14 -48q-1 -6 -1 -8q-2 -8 -2 -11q0 -7 8 -8q12 -1 28 13l28 26l9 7q17 12 47 42q18 19 43 35q8 -7 10 -19q4 -25 21 -50q8 -12 8 -22q-24 -17 -33 -28l-10 -13q-2 -3 -20 -14q-10 -6 -24 -17q-22 -18 -31 -23l-34 -17l-37 -33l-27 -23q-31 -28 -34 -28 l-20 -5l-21 -25q-9 -11 -20 -15l-23 -7l-50 -20l-10 4q-12 8 -12 23q0 2 1 5l1 8l-12 20q-2 2 -10 42l-5 22q-3 15 -6 53l-1 10l4 26l-1 5l-6 23v4q9 65 75 69q14 1 19 -11l8 -16q3 -7 8 -6q15 2 24 86l5 46l5 33l3 31q4 38 4 45q0 26 -25 26q-13 0 -68 -47l-74 -64l-17 -14 q-21 -18 -33 -30l-90 -84q-8 -8 -10 -12l-6 -15q-2 -4 -12 -14q-1 13 -9 22q-16 23 -21 50q-2 12 -10 19z" />
<glyph unicode="t" horiz-adv-x="554" d="M-35 298q1 7 3 8l10 9q1 1 11 19q6 10 17 20l71 65q16 14 35 41l30 47l26 35l16 24l17 19l32 57l22 37l22 42l14 24l19 33q8 14 8 18q-1 14 -17 11l-27 -5q-3 -1 -9 -1h-18h-12h-51h-20h-24l-27 2l-26 1l-12 7q-7 4 -14 6q-34 6 -33 27q6 132 54 132q40 0 91 -7l5 -1 l29 6l26 -1l39 -4l9 -2q26 4 40 8q11 4 13 4l33 -11l8 1q27 3 50 60q10 25 15 35l30 56q22 40 55 40q50 0 50 -59q0 -32 -19 -80q-8 -21 -9 -37q0 -5 5 -9l16 -14q6 -7 6 -33q0 -122 -23 -126l-68 -14q-4 -1 -7 -18l-7 -39l-11 -25q-3 -6 -7 -27q-2 -11 -2 -13l-12 -32 q-2 -7 -8 -33q-7 -32 -15 -56l-11 -34q-9 -27 -14 -60l-4 -30l-19 -87q-3 -17 -4 -27l-5 -53q-1 -12 -3 -21q-2 -12 -2 -19q0 -29 20 -30q9 0 59 45q41 37 63 51l16 11q2 1 9 7q9 -7 10 -19q4 -25 21 -50q9 -12 9 -22q-48 -47 -71 -60q-11 -14 -15 -18l-44 -38l-29 -35 q-78 -92 -131 -92q-88 0 -88 105q0 123 18 169l5 14l1 28q1 8 10 40q8 27 10 58q1 17 2 19l23 48q1 2 1 4q1 8 -8 8q-7 0 -10 -6l-14 -21q-1 -2 -11 -12q-23 -21 -33 -36l-5 -6q-10 -15 -38 -35q-20 -15 -25 -22l-19 -25l-54 -47l-17 -26q-3 -4 -12 -14q-1 12 -9 22 q-16 23 -21 50q-2 12 -10 19z" />
<glyph unicode="u" horiz-adv-x="832" d="M-35 298q5 5 5 7l3 10l16 19l17 20q1 2 19 17q20 18 36 40l8 12q9 13 29 35q14 15 17 19l30 42l11 12q39 46 63 92q16 30 26 35l19 8q2 1 19 11q25 15 53 15q35 0 32 -42q-1 -10 -13 -38q-4 -10 -12 -39q-2 -8 -19 -64q-15 -47 -22 -82l-5 -25l-12 -53q-4 -22 -4 -60 q0 -108 22 -108q6 0 29 20q8 7 16 10l15 6l21 30l8 7l46 55l18 20l38 54q6 7 11 14q21 24 23 29l7 18q7 18 24 35l13 13q28 28 51 28q71 0 71 -58v-8l-1 -25q0 -17 3 -33q6 -31 6 -34v-22q0 -52 50 -52h6q16 1 39 10q8 -7 10 -19q4 -25 21 -49q9 -13 9 -23q-20 -12 -56 -33 q-19 -11 -29 -17q-35 -23 -72 -23q-101 0 -129 102q-13 48 -25 48q-7 0 -17 -20q-3 -7 -28 -33q-9 -9 -30 -38q-27 -37 -66 -74l-24 -24q-71 -68 -126 -68q-93 0 -110 109q-4 24 -9 46q-8 32 -8 50q0 8 2 14l2 6q1 5 -4 46q-1 13 -12 12q-4 0 -6 -2l-56 -59q-8 -6 -11 -12 l-6 -15q-2 -5 -12 -15q-1 13 -9 23q-16 22 -21 49q-2 12 -10 19z" />
<glyph unicode="v" horiz-adv-x="659" d="M-35 298q4 12 24 36l17 20q3 4 19 17q43 36 73 99q7 16 9 19l12 20q3 4 8 20q10 29 18 45l4 9l13 26q5 9 12 13l38 22q3 2 14 11q16 13 28 14q26 1 26 -49l1 -26l-3 -77l1 -22q1 -13 1 -15l-8 -41q-1 -4 4 -14l5 -12l-5 -22l1 -9q3 -29 3 -72q0 -38 2 -57l6 -60 q4 -41 23 -39q16 1 51 54l18 27q19 29 46 81l17 34q4 8 21 33q5 8 7 12l24 51q4 9 12 33q6 16 24 60q20 48 24 76q13 114 84 114q18 0 18 -22q0 -10 -3 -25q-2 -11 -5 -41q-5 -54 -22 -77q-11 -14 -13 -21v-5q-6 -71 -38 -113l-13 -18q-1 -1 -3 -8l-11 -45q-2 -9 -14 -29 q-20 -30 -22 -35l-10 -31q-1 -2 -12 -20q-10 -16 -18 -35q-4 -9 -6 -11l-19 -23v-13q0 -5 -5 -11l-6 -9l-3 -5q-29 -50 -50 -69l-30 -27q-3 -3 -4 -5l-33 -42l-15 -13q-23 -17 -45 -17q-89 0 -102 98l-6 46l-3 14v5q0 4 4 21l1 4l-9 17q-7 13 -7 73q0 34 -5 61l-1 5l8 19 l-1 3q-4 6 -10 6q-8 0 -18 -12q-29 -34 -49 -52q-30 -27 -35 -35l-7 -11q-3 -4 -12 -14q-1 13 -9 23q-16 22 -21 49q-2 12 -10 19z" />
<glyph unicode="w" horiz-adv-x="1011" d="M-35 298l5 7q7 6 54 34q40 23 68 70l16 26q10 17 22 33q35 48 49 77q73 152 148 152q30 0 30 -30l-5 -54v-11l-4 -26v-23l-1 -48v-16q0 -26 6 -86q3 -38 5 -64q1 -18 1 -31q0 -23 8 -35q3 -6 10 -6q9 0 21 20q1 3 9 14l36 65q11 20 15 31l22 58l43 80q6 11 12 24 q63 157 128 157h1q24 0 34 -14l2 -3q12 -36 11 -52q-1 -25 -13 -32l-10 -6q-8 -6 -8 -32q0 -38 -8 -55q-8 -18 -7 -20l10 -29q2 -4 -3 -31l-3 -38l-9 -122l2 -17q5 -44 17 -46h1q21 0 86 109l26 45q51 85 51 93l3 26q1 8 12 32q11 25 18 45q16 48 23 59q17 26 16 30l-8 29 l17 74q10 53 50 53q33 0 33 -34l-1 -5l-6 -92l-16 -60l-16 -62l-19 -47l-13 -39l-27 -57q-28 -58 -29 -59l-19 -29q-2 -3 -12 -33q-12 -33 -41 -78l-24 -36l-32 -49l-22 -30l-17 -24q-41 -57 -81 -66l-26 -5q-8 -2 -9 -2q-74 0 -74 162l-1 34v36q0 26 9 48q1 3 1 6q0 8 -7 9 q-8 1 -18 -19q-6 -12 -19 -35q-12 -22 -17 -35q-10 -27 -13 -30l-17 -19q-4 -4 -7 -20q-3 -21 -8 -30l-34 -63l-29 -58q-21 -40 -72 -40q-19 0 -24 5l-13 13l-5 5q-4 6 -7 22q-1 10 -2 15l-11 34l-1 17l-8 26l-3 37q-1 3 -8 39q-7 33 -11 92q-3 40 -6 48q-3 12 -4 19l-6 44 h-2l-3 -2q-18 -12 -32 -28l-12 -14l-17 -16q-11 -11 -25 -30q-19 -25 -42 -36q-12 -5 -18 -10l-2 -2l-12 -10q-5 -4 -12 -14q-1 13 -9 23q-16 22 -21 49q-2 12 -10 19z" />
<glyph unicode="x" horiz-adv-x="770" d="M-35 298q8 10 17 15l48 23l19 14l29 15q5 2 61 51q7 6 22 17q26 20 25 32q0 7 -7 20l-15 47l-12 34q-4 12 -4 22q0 62 34 97l18 16l18 16q10 9 25 9q34 0 44 -54q9 -44 13 -55l9 -25q6 -18 17 -23q12 7 17 9q27 14 31 18l30 34q5 6 12 11l59 48l56 50l15 10l23 23l27 20 q27 19 34 18l18 -2l19 2q21 -3 39 -33l4 -7l17 -25q8 -17 8 -53q0 -11 -4 -34l-2 -13q-7 -41 -19 -54l-18 -19q-2 -2 -10 -18q-17 -31 -54 -68q-22 -21 -24 -23l-28 -32l-34 -31q-13 -13 -42 -44q-14 -15 -22 -22q-35 -30 -34 -42q1 -15 16 -33l18 -21q27 -32 57 -32 q15 0 34 4l54 9l37 28l68 44l7 7q8 -7 10 -19q4 -25 21 -49q9 -13 9 -23q-25 -17 -34 -28l-10 -13l-20 -14l-31 -22l-52 -19l-24 -14q-62 -36 -104 -36q-59 0 -76 17l-103 101q-2 2 -7 2q-4 0 -5 -1l-38 -40l-21 -14l-30 -35q-8 -9 -12 -12l-38 -20q-46 -26 -51 -26 q-32 -3 -30 22q1 20 46 58l37 32q3 2 17 17q26 30 47 48q42 37 42 56v3l-8 14l-23 55l-18 34q-8 16 -15 16t-12 -4l-9 -10l-8 -7l-11 -12l-10 -9l-16 -22q-31 -42 -80 -71l-51 -31q-2 -2 -12 -15q-1 13 -9 23q-16 22 -21 49q-2 12 -10 19zM346 491q0 -21 20 -61.5t30 -40.5 q7 0 23 20q4 5 20 21q28 26 51 64q19 33 24 39l23 28l20 49q7 16 7 27q0 18 -21 19q-14 1 -41 -30q-6 -6 -9 -8l-38 -21l-46 -44l-62 -55q-1 -2 -1 -7z" />
<glyph unicode="y" horiz-adv-x="864" d="M-35 298q4 5 5 6l8 11q10 15 50 34q40 20 76 64q6 6 69 72l27 30q46 39 77 39q52 0 52 -49q0 -24 -15 -70q-5 -13 -13 -44q-9 -36 -16 -56l-4 -14q-11 -39 -11 -75q0 -20 13 -19q4 0 7 2l43 34l32 21q16 11 26 20l76 76l38 35q4 4 41 44q31 33 61 55q23 16 27 23l15 22 q27 38 94 38q46 0 46 -34q0 -12 -4 -26l-41 -132q-11 -39 -13 -44l-42 -107l-9 -27l-17 -42l-4 -13q-4 -9 -4 -14q0 -7 7 -8t22 21q8 11 88 73q22 17 50 47l7 7q8 -7 10 -19q4 -25 21 -50q9 -12 9 -22q-25 -18 -34 -28l-15 -17l-91 -63l-27 -26l-59 -54l-31 -31l-44 -45 q-19 -20 -38 -50l-16 -28l-48 -78l-22 -38q-202 -340 -358 -340q-42 0 -42 36q0 26 30 69l17 25l11 20l29 25q3 4 5 19q8 10 13 14l16 14l9 25q2 3 13 16q11 12 23 31q8 12 24 27q31 31 51 61q18 26 37 47l58 65l42 43l3 6l12 35l17 40l13 31l7 18l13 31l15 30l4 31 q1 12 7 32q15 47 19 78l1 7l-5 19l-1 8l-2 2l-35 -26l-9 -5q-21 -10 -42 -38l-29 -38l-7 -6q-22 -17 -27 -23l-11 -13q-13 -16 -26 -21l-32 -14l-8 -14q-42 -70 -128 -70q-68 0 -68 63q0 14 3 26l2 9l-7 20q-3 6 -2 10l5 17q3 8 3 19q0 61 -19 61q-2 0 -4 -1l-15 -12 l-23 -13q-11 -6 -32 -28q-3 -4 -9 -10q-1 13 -9 22q-16 23 -21 50q-2 12 -10 19z" />
<glyph unicode="z" horiz-adv-x="681" d="M-101 -540q0 21 5 33l7 16l13 37q3 10 8 17l20 29l13 24q11 19 29 40l22 25l18 24q1 3 16 18q7 7 11 12l12 17l28 22q12 9 18 19l14 20q5 8 21 24l14 13q40 38 39 49q0 7 -9 24l-11 57q-4 14 -4 26q0 6 4 24l10 41q7 27 17 42l28 37l20 39l29 42q9 14 12 22l7 26 q4 15 4 19q-1 13 -10 37l-11 28q-19 50 -46 50h-3q-26 -2 -69 -44q-10 -10 -16 -15q-23 -18 -24 -19l-11 -16q-12 -16 -61 -51q-29 -21 -40 -37l-6 -9q-3 -5 -12 -15q-1 13 -9 22q-16 23 -21 50q-2 12 -10 19q13 16 18 23l12 21l72 51q17 12 49 50q42 48 70 72q25 21 27 23 l45 51q17 19 50 19q163 0 163 -227q0 -108 -84 -200q-61 -66 -61 -111q0 -52 22 -52q5 0 7 2l43 33l25 17q1 1 12 18q8 14 78 69q26 20 77 79q27 31 50 55l6 7q8 -7 10 -19q4 -25 21 -50q9 -12 9 -22q-61 -44 -95 -79q-56 -60 -67 -67l-26 -18q-4 -2 -21 -21 q-23 -26 -49 -43q-35 -24 -41 -36l-3 -8l-5 -8q-2 -4 -2 -8q0 -10 6 -25l11 -26l19 -45q10 -32 10 -77q0 -101 -58 -176l-23 -29l-22 -31q-10 -13 -45 -38l-44 -32l-19 -14q-109 -73 -198 -73q-115 0 -115 107zM8 -506q0 -35 30 -35q65 0 144 75t79 136v10l5 39l-1 9 q-14 63 -25 63q-7 0 -23 -16l-35 -35q-13 -12 -32 -38q-41 -53 -67 -80q-25 -27 -41 -58q-6 -14 -13 -23q-21 -35 -21 -47z" />
<glyph unicode="{" horiz-adv-x="726" d="M171 692q10 20 42 51q53 52 68 151l6 36l3 55q26 470 426 470q64 0 64 -48q0 -68 -32 -68l-31 10l-27 -9h-42q-27 0 -78.5 -33t-62.5 -58l-20 -58l-13 -36q-16 -44 -28 -149l-8 -69q-15 -122 -38 -150l-71 -82q-3 -3 -15 -24q18 -21 23 -33l9 -22l7 -10l5 -12 q12 -38 12 -65l1 -59l-4 -25q-4 -28 -7 -51l-4 -39q-3 -24 -9 -63q-23 -136 -23 -194q0 -54 17 -66l37 -17l9 -5l39 -3l27 -2l32 10q66 27 105 27q27 0 25 -18l-14 -39l-6 -29q-5 -17 -28 -25l-26 -7l-32 -11q-10 -3 -51 -3q-20 0 -42 -3l-54 -8h-6q-147 0 -158 147l-2 37 q-1 14 -1 21q3 40 6 57l11 61l4 103l23 135q2 14 2 31q0 112 -70 191z" />
<glyph unicode="|" d="M451 -341v1706h123v-1706h-123z" />
<glyph unicode="}" horiz-adv-x="726" d="M35 -42q0 71 32 69l31 -11l27 10h42q27 0 78.5 33t62.5 58l20 58l13 36q16 44 28 149l8 68q15 123 38 150l70 82q3 4 15 25q-18 20 -22 33l-9 22l-7 9q-19 24 -19 126q0 9 4 35q6 43 7 51l5 39q3 25 9 63q23 137 23 194q0 54 -17 66l-37 17l-9 5l-39 3l-27 2l-32 -10 q-64 -27 -105 -27q-27 0 -25 18l14 39l6 29q5 17 28 25l26 7l32 11q10 3 51 3q19 0 42 3l54 8h5q148 0 158 -147l3 -37q1 -14 1 -21q-3 -40 -6 -57l-11 -60l-5 -104l-23 -134q-2 -14 -2 -32q0 -111 71 -191q-11 -19 -43 -51q-52 -52 -68 -151l-5 -36l-3 -54 q-26 -471 -426 -471q-64 0 -64 48z" />
<glyph unicode="~" horiz-adv-x="1365" d="M257 1272q120 203 281 203q55 0 182 -47q111 -41 160 -41q112 0 198 115l31 -20q-110 -201 -276 -201q-44 0 -125 27l-61 21q-117 40 -175 40q-85 0 -166 -97l-17 -20z" />
<glyph unicode="&#xa1;" horiz-adv-x="616" d="M150 35q0 28 15 85q17 63 20 108l6 83l25 128l2 16l45 276l8 46l12 46l7 63l13 29q2 4 6 32l8 61l5 54q4 21 38 49q18 15 28 25q36 33 53 33q10 0 13 -6v-13l2 -27l-7 -29q-3 -12 -3 -15l8 -71l-4 -32l-2 -50l-14 -44q-4 -13 -4 -33l2 -48l-4 -43q0 -32 -1 -35l-16 -43 q-4 -9 -4 -25q0 -17 4 -44q-22 -67 -22 -101q0 -8 3 -37q1 -19 3 -56q6 2 10 3h2l16 -11q3 -6 3 -16q0 -27 -10 -63q-16 -57 -16 -67l1 -54q0 -25 -11 -59q-17 -51 -41 -61l-26 -10l-66 -55q-48 -36 -81 -38q-26 -2 -26 49zM315 1266l12 77v26q0 57 58 57q22 0 55 9 q21 6 32 6q27 0 35 -34l5 -20q5 -24 5 -30q-3 -43 -44.5 -80.5t-85.5 -37.5q-76 0 -72 27z" />
<glyph unicode="&#xa2;" horiz-adv-x="697" d="M-14 298q0 42 60 132l25 21q20 32 46 58q18 17 29 28q28 30 44 30h5l6 13q3 6 19 13q28 13 30 37l3 29q1 13 7 34q7 34 9 49l1 15q0 50 33 50q24 0 40 4q4 1 8 1q12 0 12 -9q0 -7 -11 -20l-20 -67q-2 -5 -2 -10q-1 -13 9 -15q3 -1 25 15q6 3 33 16l29 15q8 3 19 7l20 5 q36 11 47 11q31 0 33 -27q0 -2 -1 -8q-4 -20 -4 -23l3 -39q1 -14 -24 -34l-34 -24l-30 -23l-18 -10l-30 -21l-18 -13q-3 -2 -18 -18t-34 -26q-25 -14 -23 -19l7 -20q1 -2 -8 -40l-6 -50l-11 -51l-3 -61q-2 -23 -2 -25q0 -40 17 -39q10 1 34 13q8 4 34 11q24 6 33 13l20 16 q15 11 35 14l27 4l26 17l26 18q20 12 22 12l13 -2l6 -1q4 -3 4 -11q0 -55 -87 -114l-68 -41l-54 -36q-18 -12 -64 -26q-41 -14 -47 -72q-7 -60 -32 -61q-24 -1 -19 36l6 47q2 14 -5 25q-3 4 -15 4q-175 0 -191 138l-6 43v6l8 20l-3 5l-22 19q-3 3 -3 12zM170 297 q0 -93 44 -93q12 0 15 7l11 70l9 31l-7 38l3 58l-2 9q-2 5 -8 5q-3 0 -6 -1l-9 -12l-21 -20q-29 -27 -29 -92z" />
<glyph unicode="&#xa3;" horiz-adv-x="1278" d="M75 372q0 8 17 33l8 12q39 60 56 60q22 0 43 -12q33 -20 38 -22q16 -5 18 -6l25 -23l22 -4l34 -21l23 -14q23 -14 34 -14q5 0 8 3l29 57l11 18l6 9l13 14l1 5l2 32l5 19q7 24 7 26l4 23l8 41l-2 7q-3 7 -11 7q-5 0 -12 -2q-17 -6 -34 -7l-32 -2l-81 -19l-20 -4 q-32 -5 -40 -6l-29 -2l-38 -6l-13 3q-7 4 -7 14q0 9 18 52q5 12 11 39q14 55 105 66q13 2 19 3q39 10 45 11q5 1 7 -3l9 -10q6 -8 19 -8q6 0 17 2q21 4 39 5q61 5 70 22l9 35l11 37q4 15 6 46q2 21 4 28l12 32l4 22l12 55l4 19l14 51l1 17q2 26 14 46q14 22 14 24l1 29 q0 2 3 11q6 14 10 29l10 32q7 20 16 41q5 11 6 15q16 45 65 75q22 9 33 13q79 35 87 34q86 -7 86 -181l-1 -65l3 -67q0 -99 17 -120q22 -27 22 -35q0 -17 -52.5 -59t-73.5 -42q-39 0 -36 56l5 52l-4 118l1 57q0 27 -4 56q-3 18 -14 18q-21 0 -27 -54q-3 -33 -14 -85 q-18 -38 -25 -94q-9 -89 -53 -191q-6 -14 -6 -24q0 -44 72 -32l69 12q2 0 75 5q15 1 97 13q22 4 40 6q14 1 21 4q7 2 9 2q11 -1 11 -12q0 -98 -150 -121l-51 -6l-70 -9h-13q-39 -13 -74 -16q-76 -5 -85 -50q-10 -51 -17 -67q-14 -36 -15 -43l-2 -22l-25 -60q-6 -31 -17 -53 l-5 -9q-14 -25 -14 -45q0 -59 143 -102l39 -13q28 -9 43 -9l38 6l55 6q24 2 40 12l53 49l34 30q30 26 58 56l20 22q47 50 65 77q31 46 47 45q13 -1 14 -18q0 -6 -2 -13l-2 -6l-25 -51q-4 -9 -6 -26q-3 -39 -27 -67l-51 -68l-25 -28l-32 -38q-113 -128 -255 -128l-19 1 l-42 -2q-111 0 -210 77q-47 37 -70 39q-8 1 -57 -45q-5 -4 -15 -13q-44 0 -86 38q-7 6 -17 13q-40 27 -54 47q-30 43 -49 65l-34 39q-37 41 -39 79z" />
<glyph unicode="&#xa4;" horiz-adv-x="1387" d="M354 682q0 70 10 97l35 78l26 64q23 50 67 94l27 27q7 7 26 32q-32 22 -55 53q-20 26 -33 35q-42 28 -42 37l-1 17l-13 16q-2 3 -2 9q0 36 41 34q22 -1 39 -18l35 -36q12 -12 61 -50q21 -25 37 -36l6 -4q34 20 51 31q34 22 45 24l58 7l61 22l15 -4q5 -1 12 -4 q59 19 83 19q34 0 90 -19q17 6 21 6l67 -20l30 -2q33 -3 176 -103q35 20 88 83q2 12 3 14l34 33l24 26l32 5l27 4l9 -2q16 -7 33 -30q-13 -35 -40 -61q-34 -32 -40 -41l-12 -18l-39 -30q-7 -6 -53 -47q14 -19 21 -28q35 -41 38 -47l20 -41l38 -78q27 -54 27 -159 q0 -22 -10 -66l-17 -69l-38 -78l-20 -42l-26 -25q-4 -4 -43 -59q-8 -10 -24 -29q15 -13 22 -21q26 -28 34 -32q13 -6 15 -8l3 -4l9 -14l31 -30l20 -36l14 -10q11 -6 14 -26q-22 -33 -55 -33q-43 0 -56 17l-13 19l-23 17q-6 5 -11 16q-12 29 -13 30l-30 23l-8 15q-5 8 -21 21 l-39 -21q-37 -19 -49 -29q-21 -17 -25 -17l-50 -4l-7 -3q-38 -21 -65 -21q-6 0 -23 7q-16 -4 -22 -5l-12 -2l-70 -11l-35 11l-13 2q-7 1 -21 5q-25 -5 -40 -5q-21 0 -34 9l-14 9q-5 4 -7 4l-51 4q-17 1 -45 24q-27 23 -53 31q-27 -21 -38 -31l-15 -14q-5 -5 -37 -31 q-12 -10 -16 -14l-36 -36q-16 -17 -38 -18q-39 -2 -39 43q0 28 20 43l32 21l16 28l39 29l11 17q6 9 28 21q-17 20 -24 31q-45 59 -53 67q-30 29 -41 54q-15 32 -22 47q-49 101 -49 190zM520 659q0 -188 147 -293l30 -22l16 -15q34 -34 74 -38l20 -2l29 -11q18 -7 42 -7 q153 0 175 7l29 11l36 11q77 23 153 118t87 182q2 16 4 24q5 36 4 48l-3 41l-1 39q0 82 -80 167l-39 42l-19 21q-27 29 -46 37l-40 14l-45 26q-5 3 -56 12l-53 9q-15 3 -39 3q-28 0 -73 -11q-29 -7 -51 -11q-43 -8 -88 -35q-30 -18 -40 -23q-31 -18 -39 -27l-19 -28l-42 -42 q-71 -75 -71 -158l1 -40z" />
<glyph unicode="&#xa5;" horiz-adv-x="968" d="M59 766l16 69l4 42q5 26 22 25l25 -6q1 0 23 6q16 4 16 15q0 10 -5 28q-14 54 -14 114q0 45 -5 63l-12 47q-5 19 -5 84q0 90 60 90l24 -1l72 31q69 -4 69 -89l-2 -95l-1 -29q0 -26 7 -111q1 -11 3 -31q7 -96 27 -95q16 1 38 7q39 11 64 11l71 -3q42 0 60 17q4 3 8 10 l19 45l52 97l11 28q8 22 34 64q38 61 55 88q16 26 22 36q21 31 23 36l17 31q14 25 38 25q43 0 43 -46l-2 -26l-1 -66q0 -25 -4 -44l-21 -76l-6 -20q-22 -83 -60 -140q-4 -7 -4 -9q1 -9 13 -9q6 0 37 5l58 10l21 3l8 -4q1 -3 1 -7q-2 -21 -16 -41q-11 -15 -11 -17l-21 -44 q-7 -14 -27 -16l-29 -3l-40 -10l-32 -4q-14 -2 -24 -18l-29 -47l-61 -104q-6 -10 -6 -14q1 -15 19 -13l36 10l45 9l20 6l53 1l18 -3q2 -2 2 -7q0 -7 -2 -9l-23 -20q-2 -2 -6 -15q-5 -16 -12 -27q-8 -13 -9 -17l-7 -23q-2 -2 -6 -3l-36 -4l-9 -4l-20 2l-17 -2l-29 -4l-19 -9 q-14 -6 -33 -6h-14q-35 0 -49 -40q-25 -72 -34 -86l-13 -22l-7 -20l-20 -43l-14 -55l-21 -66q-3 -12 -6 -28l-6 -36q-3 -12 -3 -17q0 -9 9 -21q17 -23 18 -32q1 -13 -10 -21l-39 -31l-23 -18l-31 -13l-12 -10q-7 -6 -19 -6q-8 0 -17 2l-37 8l-31 6q-20 9 -20 33q0 7 3 20 q17 69 21 91q6 38 23 63q8 11 8 19v12v10q1 17 27 79q8 19 13 30q23 62 32 77q5 11 5 13t-24 26l-23 23q-5 6 -11 5q-5 0 -13 -5q-24 -14 -44 -14l-71 5l-38 -10l-21 2l-34 -8q-41 0 -27 41q1 3 8 17q6 11 8 44q4 44 39 46l39 -2l14 1h27l32 4q22 2 22 13q0 8 -8 21 q-18 31 -26 71q-13 69 -27 66l-30 -18l-35 6l-57 -20q-11 -1 -18 14q-3 6 -3 10zM383 790q1 -6 12 -48l14 -52q5 -22 9 -28l27 -41q5 -9 7 -9q4 -1 12 8l30 45q4 19 6 24l18 35l23 48q17 32 18 44q1 8 -11 12q-32 -10 -64 -10q-104 0 -101 -28z" />
<glyph unicode="&#xa6;" d="M451 314h123v-655h-123v655zM451 674v691h123v-691h-123z" />
<glyph unicode="&#xa7;" horiz-adv-x="1089" d="M-27 -42q0 75 5 107l11 58l6 40q5 26 16 51l15 34q32 73 106 73q76 0 76 -72q0 -8 -5 -35q-15 -35 -23 -52q-30 -66 -38 -92q-8 -27 -10 -31l-24 -44q-5 -9 -5 -42q0 -55 103 -55q85 0 120 12l23 8l35 11q197 67 197 232q0 85 -91 163l-34 29q-25 22 -56 54l-38 41 l-122 122q-57 63 -57 139q0 131 109 225l27 24l33 41q9 11 8 18q-1 14 -16 50q-10 25 -10 53q0 163 157 292t356 129q142 0 198 -51t56 -180q0 -296 -161 -296q-71 0 -71 57q0 77 70 203q32 58 32 95q0 66 -108 66l-55 -5l-92 -6q-2 0 -47 -21l-38 -19q-140 -65 -140 -215 q0 -52 56 -109l74 -81l36 -27q67 -53 118 -126q19 -27 40 -45q81 -71 81 -171q0 -126 -123 -220q-55 -42 -52 -61l17 -98v-8l-3 -48q-7 -145 -178.5 -264t-373.5 -119q-210 0 -210 166zM340 783q0 -45 21 -68l13 -13l27 -42l14 -9l18 -18l10 -10l31 -34q13 -15 28 -26 q22 -17 23 -20l22 -33q5 -7 28 -25q29 -21 51 -53q21 -31 35 -31q7 0 19 8q8 11 11 15l19 18q27 26 29 79q5 116 -72 168l-9 7q-5 3 -15 13l-70 73l-14 19q-6 9 -33 34l-18 17q-17 15 -23 22q-45 53 -56 52q-18 -1 -46 -42q-6 -9 -11 -15q-32 -40 -32 -86z" />
<glyph unicode="&#xa8;" d="M414 922q0 47 57.5 107.5t101.5 60.5q70 0 73 -62q-35 -179 -166 -179q-66 0 -66 73zM655 913q0 89 58 115l27 12q7 3 12 11l15 21q12 18 36 17q79 -4 79 -78q0 -42 -56 -129q-48 -37 -81 -37q-90 0 -90 68z" />
<glyph unicode="&#xa9;" horiz-adv-x="1831" d="M512 693l14 82q51 227 130 312l51 51l57 77q17 18 79 46q27 44 44 51l61 21l61 47q17 11 72 19l197 28l164 -15q49 -5 55 -7l83 -28q266 -92 334 -297l37 -109l21 -57v-32l8 -46q7 -32 7 -117q0 -117 -28 -198q-12 -35 -16 -59t-19 -42q-32 -38 -33 -42l-8 -36 q-8 -36 -61 -60l-16 -24l-22 -40q-23 -39 -45 -51l-41 -21q-12 -6 -37 -25q-22 -52 -74 -65l-32 -7l-33 -30q-15 -15 -28 -16l-28 -4q-8 -2 -44 -15q-20 -8 -60 -19q-50 -25 -70 -26q-5 0 -120 18q-13 2 -65 5q-76 5 -101 15l-47 21l-97 30q-206 74 -296 334l-28 83 q-3 9 -7 55zM669 691q0 -3 3 -12q14 -38 14 -65l-1 -46q0 -23 6 -41l25 -69l24 -70q11 -25 30 -44l39 -37l21 -25q35 -41 98 -77q24 -23 35 -28l55 -20l34 -22q24 -15 84 -19q79 -5 97 -8q22 -2 26 -2l69 9l39 1q29 2 64 20l60 29l29 13q51 29 103 83l79 87l39 35 q15 14 20 32l10 32l21 38q37 68 37 178q0 231 -93 349q-57 92 -100 122q-22 14 -24 17l-15 20q-15 19 -44 30l-47 17l-42 24l-58 12l-16 9l-78 -11l-20 4q-30 9 -37 9l-20 -6l-54 -7q-22 -2 -42 -11q-37 -17 -39 -17l-39 -5q-56 -8 -201 -138q-34 -24 -67 -78 q-24 -40 -50 -70q-21 -25 -23 -36l-3 -18l-19 -57q-2 -7 -4 -20q-11 -73 -17 -87q-8 -17 -8 -24zM958 591q0 173 124 323.5t266 150.5q105 0 120 -103q1 -9 3 -20q3 -14 3 -21q0 -5 -1 -15q-4 -22 -3 -30l2 -15q1 -8 -26 -131q-24 -111 -66 -120l-16 -4l-12 -4q-9 -3 -18 -3 q-50 0 -48 41q0 7 2 16l9 99q8 88 33 114l14 15q8 9 9 18q0 6 -4 10l-15 7l-17 8h-6l-18 -1l-11 -4q-5 -2 -15 -3q-25 -4 -47 -26l-12 -12q-20 -20 -32 -42l-16 -28l-9 -16q-2 -4 -6 -14l-17 -47q-3 -8 -10 -39q-9 -44 -9 -70v-25l-8 -45l14 -30l19 -43q27 -64 100 -64 q62 0 87 22l12 11q10 8 32 21q17 9 33 22q27 25 44 25q25 0 30 -31q1 -7 6 -14q9 -12 9 -25q0 -20 -36 -43l-20 -13l-47 -28l-37 -23q-73 -43 -148 -43q-17 0 -35 4l-27 7l-20 5l-17 8l-41 20q-101 48 -101 248z" />
<glyph unicode="&#xaa;" horiz-adv-x="742" d="M30 648q0 6 18 33q16 23 18 36l3 14q3 13 32 13q11 0 34 -8q49 -3 69 -3q55 0 90 4l70 9h49h30l38 -7q15 -2 47 -5l19 -1l91 10l10 -4q27 -13 27 -64q0 -17 -14 -23l-20 -7l-10 -5q-4 -2 -21 -3t-35 -7q-10 -3 -12 -3t-34 11q-7 2 -14 2l-22 -3l-88 -6l-37 -3l-53 13 l-34 -8q-20 -6 -56 -6q-17 0 -33 2l-77 9l-63 -6l-15 4q-7 4 -7 12zM69 986q0 45 13 54l27 20q9 6 35 35q76 86 202 173.5t172 87.5q43 0 46 -40q2 -36 -46 -62l-15 -7l-19 -26q-5 -5 -30 -24q-13 -9 -45 -41l-54 -53l-43 -43q-53 -52 -76 -84q39 26 57 41l57 49l52 45 q60 52 81 52q57 0 57 -82v-25q0 -25 7 -42q9 -25 31 -24q27 2 62 46q15 19 25 20q11 1 18 -35l7 -39l-6 -11q-9 -10 -24 -22q-12 -9 -24 -20l-24 -22q-38 -36 -90 -36q-95 0 -115 132q-24 -26 -36 -36l-32 -24l-21 -22q-53 -56 -129 -94q-32 -13 -51 -13q-63 0 -66 68 q-1 20 17 52q-20 7 -20 52z" />
<glyph unicode="&#xab;" horiz-adv-x="950" d="M96 332q0 33 20 73q9 12 13 17q27 36 28 37l18 18q11 10 17 20l4 7q2 4 25 22q2 2 16 15l57 55q51 49 64 57q20 10 22 13l10 11q4 4 16 11l18 9q46 24 54 24q67 0 67 -36q0 -17 -26 -32q-34 -20 -40 -26l-48 -48q-11 -10 -35 -26q-10 -7 -12 -9l-44 -54l-56 -63 q-20 -22 -25 -40l-3 -21q-3 -23 -3 -26q0 -32 14 -59l22 -36l28 -61q9 -20 21 -36l21 -27q7 -10 8 -18q3 -45 -105 -45q-39 0 -83 79l-8 14q-32 57 -33 60l-2 10q-1 5 -7 16q-33 62 -33 95zM380 308q-1 15 13 39l11 21l21 37l12 6q3 1 9 11q43 67 90 99l44 29l54 44l24 18 q5 4 15 14q4 3 7 4q17 8 26 17l3 3l4 9l12 10l11 9q18 13 65 13q67 0 67 -38q0 -11 -7 -14l-35 -16q-6 -3 -16 -11l-82 -64l-16 -15q-6 -6 -18 -14q-23 -14 -25 -18l-28 -46q-6 -10 -25 -24l-13 -11q-18 -16 -44 -54q-3 -3 -6 -7q-16 -23 -16 -52q0 -22 11 -38l13 -19l7 -26 l2 -2q21 -21 30 -35l30 -49l11 -18q6 -9 6 -17q0 -22 -33 -34l-17 -7l-43 -16l-10 2q-12 7 -24 24l-15 12q-45 38 -56 59q-13 25 -17 27l-15 11q-10 7 -18 49q-6 29 -7 33q-12 39 -12 45z" />
<glyph unicode="&#xac;" d="M71 457v89h882v-546h-212v457h-670z" />
<glyph unicode="&#xad;" horiz-adv-x="515" d="M-12 361q1 14 21 31l17 15q8 7 13 22q8 24 12 28l18 6q18 6 26 6q6 0 22 -7q18 -7 25 -7l68 13l91 -3q17 0 34 1q25 2 62 2q52 0 52 -56q0 -80 -66 -80l-61 6l-31 -3l-26 3l-71 -13q-10 0 -30 4q-62 11 -70 10l-61 -7q-23 -3 -40 17q-5 6 -5 12z" />
<glyph unicode="&#xae;" horiz-adv-x="1831" d="M509 693l14 82q51 227 130 312l51 51l57 77q17 18 79 46q27 44 44 51l61 21l61 47q17 11 72 19l197 28l164 -15q49 -5 55 -7l83 -28q266 -92 334 -297l37 -109l21 -57v-32l8 -46q7 -32 7 -117q0 -117 -28 -198q-12 -35 -16 -59t-19 -42q-32 -38 -33 -42l-8 -36 q-8 -36 -61 -60l-16 -24l-22 -40q-23 -39 -45 -51l-41 -21q-12 -6 -37 -25q-22 -52 -74 -65l-32 -7l-33 -30q-15 -15 -28 -16l-28 -4q-8 -2 -44 -15q-20 -8 -60 -19q-50 -25 -70 -26q-5 0 -120 18q-13 2 -65 5q-76 5 -101 15l-47 21l-97 30q-206 74 -296 334l-28 83 q-3 9 -7 55zM666 691q0 -3 3 -12q14 -40 14 -65l-1 -46q0 -23 6 -41l25 -69l24 -70q11 -25 30 -44l39 -37l21 -25q35 -41 98 -77q24 -23 35 -28l55 -20l34 -22q24 -15 84 -19q79 -5 97 -8q22 -2 26 -2l69 9l39 1q29 2 64 20l60 29l29 13q51 29 103 83l79 87l39 35 q15 14 20 32l10 32l21 38q37 69 37 178q0 231 -93 349q-57 92 -100 122q-22 14 -24 17l-15 20q-15 19 -44 30l-47 17l-42 24l-58 12l-16 9l-78 -11l-20 4q-30 9 -37 9l-20 -6l-54 -7q-22 -2 -42 -11q-37 -17 -39 -17l-39 -5q-56 -8 -201 -138q-34 -24 -67 -78 q-24 -40 -50 -70q-21 -25 -23 -36l-3 -18l-19 -57q-2 -7 -4 -20q-11 -74 -17 -87q-8 -17 -8 -24zM985 616q0 41 50 62q10 17 10 19l-13 118l7 31q0 3 -5 15q-6 17 -6 34l2 39l-3 26q-8 123 161 123h23q19 -5 27 -7l41 -8l42 -18l41 -17q129 -55 129 -162q0 -85 -113 -145 l-39 -20l-67 -37q-40 -21 -83 -40q39 -28 64 -49l47 -38l51 -40q43 -34 59 -44q103 -63 103 -127q0 -49 -42 -49q-20 0 -36 12l-9 8l-19 10l-6 3q-4 2 -15 7q-14 5 -21 9l-20 10l-28 14q-24 13 -34 22l-16 17q-4 4 -38 22q-26 14 -95 67q-5 -28 -8 -42q-22 -118 -54 -118 q-60 0 -65 54q0 2 1 17v13q0 23 5 60q9 56 9 90q-37 26 -37 59zM1106 911q8 -8 10 -8l30 4q7 1 32 -23q17 -18 18 -37q0 -5 -4 -28l-14 -68q-1 -3 -3 -14q10 2 56 29l47 26l53 44q17 15 17 19q1 19 -50 40l-18 8q-55 23 -128 23q-23 0 -46 -15z" />
<glyph unicode="&#xb0;" d="M317 1081l4 22l14 54l12 33q6 18 9 22l17 23l15 27q17 25 47 25q9 0 26 -4q7 -2 11 -2q2 0 15 2l9 2l29 8q4 1 33 1h15l42 -6q91 -47 91 -190q0 -51 -66.5 -102.5t-132.5 -51.5q-163 0 -180 80l-4 25zM426 1116q-11 -93 35 -93q80 0 102 63l6 16q3 9 9 22q9 22 9 33 q0 51 -73 51q-57 0 -67 -29l-10 -30q-11 -32 -11 -33z" />
<glyph unicode="&#xb1;" d="M41 20q1 7 7 25q6 15 6 40v21l-1 26l1 3q5 7 17 7q6 0 14 -1h28q47 0 56 1l31 2l6 -1l82 -16l51 13l92 -4l37 4l58 -2l56 2h45l5 -1l8 -7l4 4q4 4 8 4h4q2 -1 6 -1q6 0 9 -2l6 -5l18 9l27 -7l90 6l16 -2q30 3 42 3q18 0 33 -1q19 -2 23 -2l28 2q15 1 22 -10q2 -5 2 -12 l-7 -60l-1 -26q-3 -30 -28 -30l-77 8l-109 -8q-19 0 -54 6q-15 3 -19 3l-54 -7l-48 6l-22 -4l-42 4l-44 -2l-51 2l-90 -4l-89 -3q-15 0 -44 -3q-26 -3 -36 -3q-11 0 -53 8q-23 5 -45 5q-25 0 -24 10zM98 676q1 8 7 24q6 15 6 40v22q-2 8 -2 11q0 6 2 15l1 3q4 7 16 7l14 -1 h45l18 -1l22 2q14 2 19 2l99 -17l51 13l92 -2h16q3 24 3 34q0 11 2 15l4 12l-3 8l1 4q7 15 7 21q0 1 -7 23q0 2 11 78l7 89l6 67q0 46 31 46l54 -2l27 1q26 -3 28 -24q0 -3 -3 -13q-6 -21 -8 -66q-7 -127 -14 -170q-3 -20 -3 -21l-2 -44q0 -18 -5 -38l-2 -11q-1 -1 -2 -7 q10 -3 13 -3l35 4l13 -9q1 0 5 3q4 4 6 4h5l15 -3l5 -4l19 8l28 -11l89 11l16 -2q26 4 40 1l35 -7l29 8q45 8 47 -28q0 -3 -5 -21q-3 -11 -3 -34q0 -55 -34 -55q-13 0 -27 2q-43 6 -49 5l-32 -7l-79 8l-31 -11l-34 11q-1 0 -11 -4q-11 -4 -22 -4q-6 0 -23 2l-11 1 q-35 4 -37 4q-4 0 -18 -3l-1 -62q0 -13 -3 -46q-3 -34 -12 -88q-1 -12 -1 -14l9 -54l-8 -33l-6 -33l-8 -34q0 -4 -1 -13q-2 -23 -14 -23q-11 0 -22 5q-15 6 -17 6l-34 -7q-5 -1 -18 -1h-19q-8 10 -9 15q0 3 3 15q1 3 3 31q0 8 2 14l5 20l-3 20q-1 6 -1 12q0 29 9 56 q12 34 12 36l-13 70l20 114l-97 -2q-49 0 -67 -2l-49 -7l-24 -1q-37 -3 -40 -3q-18 0 -49 8q-21 4 -29 5h-20q-14 0 -19 6q-1 1 -1 4z" />
<glyph unicode="&#xb2;" horiz-adv-x="587" d="M41 566q0 35 50 97l62 72l44 56l67 80q132 162 132 224q0 65 -120 71q-118 6 -132 -50l-11 -40q-7 -28 -35 -28q-21 0 -34 41l-9 27q-6 19 -6 21l6 22l-6 23q0 2 4 16l9 28q14 45 54 52l13 3l21 15l22 2l22 7q4 1 24 1q16 0 22 1q7 1 9 0l22 -13l23 12q10 5 45 -8 q15 -6 44 -9q132 -16 132 -157q0 -71 -59 -163l-36 -56l-7 -11l-31 -36q-2 -1 -6 -8q-21 -30 -31 -45q-42 -61 -47 -68l-37 -47q-50 -65 -49 -72q3 -16 98 -16l64 -1l40 2q20 1 44 4q35 5 59 6q33 2 31 -20q-6 -81 -179 -107l-35 -4l-48 -7q-27 -4 -71 -4q-37 0 -47 2 l-48 11l-36 7q-43 18 -43 67z" />
<glyph unicode="&#xb3;" horiz-adv-x="587" d="M21 495q1 18 34 36q63 33 66 35l10 7l63 35l57 39l85 55q35 27 34 41q-1 11 -53 25q-4 1 -13 4l-16 6q-41 15 -63 21q-74 20 -74 55q0 34 18 61l44 50l46 57l32 40q41 62 45 65q28 25 27 34q-1 19 -35 19l-38 -3l-52 -4q-40 -3 -116 -31q-14 -5 -25 -5q-31 0 -31 33 q0 124 114 139q44 6 51 8l27 10q14 6 54 6l50 1l82 -14q62 -23 62 -78q0 -42 -58 -116l-58 -74l-65 -89q-32 -33 -31 -45q2 -27 106 -61q113 -36 113 -119q0 -55 -58 -105l-25 -22q-42 -36 -82 -58l-61 -33l-47 -27l-42 -12q-50 -15 -54 -15l-38 4l-54 -4q-33 2 -31 29z" />
<glyph unicode="&#xb4;" d="M559 831q0 41 59 78l14 9q4 3 16 17q27 37 62 67q11 8 14 18q54 52 58 67l9 30q5 16 31 16q27 0 37 -41q4 -16 5 -19q9 -31 9 -36q0 -54 -56 -83l-25 -13q-18 -10 -40 -27q-19 -15 -23 -17l-34 -19l-42 -34l-37 -25q-23 -17 -34 -17q-23 0 -23 29z" />
<glyph unicode="&#xb5;" horiz-adv-x="832" d="M-110 -159l12 59l7 29q15 61 54 105l29 32l15 19q33 45 107 113q-1 28 -4 51q-6 52 -6 64q0 131 73 241l29 45l30 45q44 48 100 48q35 0 32 -42q-1 -13 -13 -38q-11 -21 -34 -103l-23 -81q-23 -79 -23 -137q0 -106 23 -108q3 0 28 20q5 3 8 5l24 11l8 11q5 9 21 26 q30 32 47 54l58 74l10 14l30 46l12 17q41 60 89 60q61 0 61 -59l-1 -35l9 -67v-22q0 -57 41 -51l50 7q7 1 10 -3l11 -39l21 -38l-15 -17q-12 -8 -43 -26l-25 -14q-43 -24 -76 -24q-93 0 -135 134q-6 18 -15 18q-8 0 -17 -20l-43 -55l-30 -37q-113 -144 -197 -144 q-47 0 -74 24l-25 30q-7 8 -9 23q-8 -23 -12 -34q-16 -43 -29 -105q-9 -46 -24 -72l-13 -23q-1 -3 -12 -55q-22 -111 -80 -118q-61 -7 -68 93z" />
<glyph unicode="&#xb6;" horiz-adv-x="1042" d="M-27 697q0 227 128 340q23 20 24 24l1 10l1 3q6 12 25 30l57 56l33 24l47 39q48 38 73 43q21 3 25 5l3 2q26 20 56 20h18q4 0 7 1l32 8l60 1l31 2l36 -5l39 -8q82 -18 160 -18q142 0 177 12l16 6l38 6l27 13q3 1 21 2q5 0 12 1q52 6 62 7q50 3 50 -52q0 -66 -39 -68 q-9 -1 -24 1q-10 1 -28 1h-29q-17 0 -39 -5q-90 -18 -124.5 -82.5t-52.5 -246.5l-11 -119l-21 -100q-8 -38 -17 -106q-7 -46 -10 -64l-13 -78l-6 -82q-1 -6 -12 -90q-6 -40 -12 -109q-15 -166 -32 -239q-11 -50 -11 -79q0 -13 14 -40q21 -39 21 -73q0 -51 -36 -56 q-2 0 -21 3h-7q-53 6 -64 21l-11 18l-26 36l2 9q5 17 5 62q0 19 6 58q6 25 10 96q2 25 13 113q4 30 5 45l15 171l10 67q1 15 1 43q0 73 31 248v13q0 12 2 29l13 91l9 91l19 121q10 81 25 104q13 20 12 24q-1 6 -39 33l-21 14q-9 7 -42 13q-9 -107 -19 -206l-20 -189 l-12 -130q-12 -119 -18 -162l-17 -107q-10 -62 -21 -184q-19 -224 -42 -312l-7 -23q-34 -127 -72 -156l-16 -12q-7 -6 -10 -6q-10 -1 -42 25.5t-31 34.5l9 42v19q0 12 14 51q15 44 21 153q4 56 21 173q10 74 14 121q7 94 34 186q-32 -37 -106 -72l-74 -36q-13 -6 -17 -6 l-29 3q-1 0 -2 -1q-5 -2 -10 -7q-12 -11 -20 -12q-3 0 -12 3q-8 7 -11 8l-30 3l-16 7h-13q-2 0 -16 15q-2 2 -20 13q-13 8 -41 44l-29 36q-64 81 -64 224zM139 712q0 -3 1 -9l5 -59l2 -25l17 -30l17 -42l26 -35l15 -21q33 -41 99 -41q103 0 172 89q4 21 4 28l2 29q0 7 7 36 q16 69 16 169q0 78 18 101q11 14 11 16l-11 43l17 47v33l-17 40q-24 57 -61 57q-116 0 -228 -140.5t-112 -285.5z" />
<glyph unicode="&#xb8;" d="M262 -282q0 12 30 13q184 45 180 78q-1 8 -14 8q-34 0 -73 -23q-31 -19 -65 -19q-39 0 -50 30q-5 13 124 217q16 26 37 26q31 0 39 -32l1 -7l-62 -95q-19 -23 -23 -45v-10l161 37l13 -6q21 -13 21 -33q0 -46 -34 -77l-15 -14l-37 -47q-3 -3 -31 -12l-50 -18l-14 -3 q-14 -3 -39 -13q-26 -10 -40 -10q-59 0 -59 55z" />
<glyph unicode="&#xb9;" horiz-adv-x="587" d="M65 922q0 34 19 56q14 16 32 41q13 19 18 23l20 18q4 4 8 10l18 27l43 49l10 14l45 46q1 1 7 8q78 98 112 98q83 0 83 -75q0 -23 -5 -55l-3 -21q0 -3 -3 -50q-5 -84 -23 -172l-16 -74q0 -2 -9 -56q-44 -276 -104 -323l-13 -10q-40 -31 -56 -33q-23 -2 -21 27q1 19 13 52 q9 23 19 85q6 37 15 80q15 72 17 84l13 84l7 42l3 42l9 124l-3 33q-11 -12 -16 -16l-29 -23l-22 -21l-35 -31l-48 -47l-39 -37l-23 -26q-12 -13 -25 -13q-5 0 -11 6q-7 21 -7 34z" />
<glyph unicode="&#xba;" horiz-adv-x="742" d="M23 648q0 6 18 33q16 23 18 36l3 14q3 13 32 13q11 0 34 -8q49 -3 69 -3q55 0 90 4l70 9h49h30l38 -7q15 -2 47 -5l19 -1l91 10l10 -4q27 -13 27 -64q0 -17 -14 -23l-20 -7l-10 -5q-4 -2 -21 -3t-35 -7q-10 -3 -12 -3t-34 11q-7 2 -14 2l-22 -3l-88 -6l-37 -3l-53 13 l-34 -8q-20 -6 -56 -6q-17 0 -33 2l-77 9l-63 -6l-15 4q-7 4 -7 12zM170 937q0 37 6 49l14 29l2 19q16 132 96 204l35 30l10 13q46 55 90 55q47 0 50 -27q0 -3 -12 -25q39 19 72 19q110 0 118 -114l2 -39l-18 -59q-115 -278 -327 -278q-138 0 -138 124zM313 958 q0 -42 32 -39q33 3 60 26l67 56q51 44 51 108q0 54 -50 54q-22 0 -68 -65q-11 -16 -43 -20l-9 -17q-40 -68 -40 -103z" />
<glyph unicode="&#xbb;" horiz-adv-x="950" d="M14 124q0 11 7 14l35 16q6 3 15 11l83 64l16 15q6 6 18 14q23 14 25 18l28 46q6 10 24 24l14 11q18 16 44 54q3 3 6 7q16 23 16 52q0 22 -11 38l-13 19l-7 26l-2 2q-21 21 -29 35l-30 49l-11 18q-6 9 -6 17q0 22 32 34l18 7l43 16l10 -2q11 -7 23 -24l15 -12 q45 -38 56 -59q13 -25 17 -27l15 -11q10 -7 18 -49q6 -29 7 -33q12 -39 12 -45q1 -15 -13 -39l-11 -21l-21 -37l-12 -6q-3 -1 -9 -11q-42 -66 -90 -99l-44 -29l-53 -44l-25 -18q-4 -4 -15 -14q-4 -3 -6 -4q-18 -8 -27 -17l-3 -3l-4 -9l-12 -10l-11 -9q-18 -13 -64 -13 q-68 0 -68 38zM337 93q0 16 26 32q35 20 40 26l48 47q10 11 35 27q10 7 12 8l44 54l56 63q20 23 25 40l3 21q3 23 3 26q0 32 -14 59l-22 37l-28 61q-9 20 -20 35l-21 27q-7 10 -8 18q-3 45 105 45q38 0 82 -79l8 -14q32 -57 33 -59l2 -11q1 -5 7 -16q33 -61 33 -94t-20 -74 q-9 -11 -13 -17l-27 -37l-19 -17q-11 -10 -17 -20l-4 -8q-2 -2 -24 -21q-3 -2 -17 -15l-57 -56q-50 -48 -64 -56q-20 -10 -22 -13l-10 -11q-4 -5 -16 -11l-18 -9q-47 -24 -54 -24q-67 0 -67 36z" />
<glyph unicode="&#xbc;" horiz-adv-x="1504" d="M65 922q0 34 19 56q14 16 32 41q13 19 18 23l20 18q4 4 8 10l18 27l43 49l10 14l45 46q1 1 7 8q78 98 112 98q83 0 83 -75q0 -23 -5 -55l-3 -21q0 -3 -3 -50q-5 -84 -23 -172l-16 -74q0 -2 -9 -56q-44 -276 -104 -323l-13 -10q-40 -31 -56 -33q-23 -2 -21 27q1 19 13 52 q9 23 19 85q6 37 15 80q15 72 17 84l13 84l7 42l3 42l9 124l-3 33q-11 -12 -16 -16l-29 -23l-22 -21l-35 -31l-48 -47l-39 -37l-23 -26q-12 -13 -25 -13q-5 0 -11 6q-7 21 -7 34zM294 -7q0 74 62 166q20 59 62 117q32 43 39 55l16 32l65 121l29 61l18 25l26 45q7 14 15 24 l8 9l16 22l5 6q27 32 45 69l10 20q2 3 12 20q4 8 30 52q16 28 28 38l8 5q11 9 15 30q5 23 11 32q20 26 30 45l22 47l21 27l20 38l18 27q4 5 10 22q9 13 12 19l13 36l5 5q3 3 28 57l5 11l24 72q19 46 79 56q15 2 22 5l38 17q20 10 36 10h4q10 0 10 -20q0 -10 -3 -16l-16 -28 q-1 -2 -9 -31l-31 -68l-27 -69l-8 -18q-39 -91 -52 -108l-23 -33l-32 -63l-25 -28q-23 -25 -61 -94l-19 -36l-25 -43l-6 -9l-38 -46q-3 -3 -11 -20q-27 -55 -38 -71l-52 -80l-9 -16q-6 -10 -37 -53q-56 -77 -93 -142l-17 -31q-8 -14 -34 -52q-81 -115 -108 -186l-22 -55 l-19 -35q-33 -57 -74 -57q-28 0 -28 65zM968 226v7q2 12 2 25q0 150 46 300q6 20 7 25q5 21 9 28q6 10 6 13l-8 13q-4 7 -4 12q0 7 7 26l15 42q11 33 27 42q3 3 20 15q3 3 9 7q48 38 88 38q30 0 30 -30q0 -26 -26 -79q-9 -18 -36 -93l-43 -118q-10 -29 -23 -73l-15 -54 q-20 -70 -19 -94q3 -59 139 -59q17 0 55 6q2 27 2 31q0 21 1 34l8 51l8 90q1 5 10 67q2 13 4 25q2 21 7 28l20 17q19 17 29 16q1 0 20 -5l25 -7q45 -12 45 -38q0 -8 -6 -26q-5 -15 -12 -63q-3 -22 -9 -51q-15 -71 -17 -93q-1 -21 -4 -29q-5 -16 -5 -23q1 -13 15 -13 q8 0 21 9q35 24 46 23q26 -2 26 -40q0 -15 -10 -24l-31 -17l-30 -21q-8 -5 -29 -13q-27 -10 -33 -20l-8 -30l-3 -10q-2 -7 -5 -40q-1 -11 -10 -60q-8 -42 -8 -78q0 -25 -27 -49l-15 -13q-15 -13 -28 -13q-28 0 -28 44l3 42v21l3 45l2 48l1 21q1 18 2 20q1 7 1 9 q-2 11 -15 11q-10 0 -25 -5q-19 -7 -71 -7q-151 0 -151 90l-1 28z" />
<glyph unicode="&#xbd;" horiz-adv-x="1504" d="M65 922q0 34 19 56q14 16 32 41q13 19 18 23l20 18q4 4 8 10l18 27l43 49l10 14l45 46q1 1 7 8q78 98 112 98q83 0 83 -75q0 -23 -5 -55l-3 -21q0 -3 -3 -50q-5 -84 -23 -172l-16 -74q0 -2 -9 -56q-44 -276 -104 -323l-13 -10q-40 -31 -56 -33q-23 -2 -21 27q1 19 13 52 q9 23 19 85q6 37 15 80q15 72 17 84l13 84l7 42l3 42l9 124l-3 33q-11 -12 -16 -16l-29 -23l-22 -21l-35 -31l-48 -47l-39 -37l-23 -26q-12 -13 -25 -13q-5 0 -11 6q-7 21 -7 34zM294 -7q0 74 62 166q20 59 62 117q32 43 39 55l16 32l65 121l29 61l18 25l26 45q7 14 15 24 l8 9l16 22l5 6q27 32 45 69l10 20q2 3 12 20q4 8 30 52q16 28 28 38l8 5q11 9 15 30q5 23 11 32q20 26 30 45l22 47l21 27l20 38l18 27q4 5 10 22q9 13 12 19l13 36l5 5q3 3 28 57l5 11l24 72q19 46 79 56q15 2 22 5l38 17q20 10 36 10h4q10 0 10 -20q0 -10 -3 -16l-16 -28 q-1 -2 -9 -31l-31 -68l-27 -69l-8 -18q-39 -91 -52 -108l-23 -33l-32 -63l-25 -28q-23 -25 -61 -94l-19 -36l-25 -43l-6 -9l-38 -46q-3 -3 -11 -20q-27 -55 -38 -71l-52 -80l-9 -16q-6 -10 -37 -53q-56 -77 -93 -142l-17 -31q-8 -14 -34 -52q-81 -115 -108 -186l-22 -55 l-19 -35q-33 -57 -74 -57q-28 0 -28 65zM960 20q0 35 50 97l62 72l44 56l67 80q132 162 132 224q0 65 -120 71q-118 6 -132 -50l-11 -40q-7 -28 -35 -28q-21 0 -34 41l-9 27l-6 21l5 22l-6 23l4 16l9 28q15 45 54 53l13 2l21 15l22 2l22 7q5 1 25 1q15 0 21 1q8 1 10 0 l21 -13l24 12q10 5 44 -8q16 -6 45 -9q132 -16 132 -157q0 -71 -60 -163l-35 -56l-8 -11l-30 -36q-2 -2 -7 -8q-21 -30 -31 -45q-42 -63 -46 -68l-37 -47q-50 -64 -49 -72q3 -16 98 -16l64 -1l40 1q20 2 44 5q35 4 58 5q33 2 32 -20q-4 -80 -179 -106l-35 -5l-48 -6 q-27 -4 -71 -4q-37 0 -47 2l-48 11l-36 7q-43 18 -43 67z" />
<glyph unicode="&#xbe;" horiz-adv-x="1504" d="M21 495q1 18 34 36q63 33 66 35l10 7l63 35l57 39l85 55q35 27 34 41q-1 11 -53 25q-4 1 -13 4l-16 6q-41 15 -63 21q-74 20 -74 55q0 34 18 61l44 50l46 57l32 40q41 61 45 65q28 25 27 34q-1 19 -35 19l-38 -3l-52 -4q-40 -3 -116 -31q-14 -5 -25 -5q-31 0 -31 33 q0 124 114 139q44 6 51 8l27 10q14 6 54 6l50 1l82 -14q62 -23 62 -78q0 -42 -58 -116l-58 -74l-65 -89q-32 -33 -31 -45q2 -27 106 -61q113 -36 113 -119q0 -55 -58 -105l-25 -22q-42 -36 -82 -58l-61 -33l-47 -27l-42 -12q-50 -15 -54 -15l-38 4l-54 -4q-33 2 -31 29z M296 -7q0 74 62 166q20 59 62 117q32 43 39 55l16 32l65 121l29 61l18 25l26 45q7 14 15 24l8 9l16 22l5 6q27 32 45 69l10 20q2 3 12 20q4 8 30 52q16 28 28 38l8 5q12 9 16 30q4 23 11 32q19 26 29 45l23 47l20 27l20 38l19 27q3 5 9 22q9 13 12 19l14 36l4 5q3 3 28 57 l5 11l25 72q19 46 78 56q15 2 22 5l38 17q20 10 36 10h4q10 0 10 -20q0 -10 -3 -16l-16 -28q-1 -2 -9 -31l-31 -68l-27 -69l-8 -18q-39 -91 -52 -108l-23 -33l-31 -63l-26 -28q-23 -25 -61 -94l-19 -36l-25 -43l-6 -9l-38 -46q-3 -3 -11 -20q-27 -55 -38 -71l-52 -80l-9 -16 q-6 -10 -37 -53q-56 -77 -93 -142l-17 -31q-8 -14 -34 -52q-81 -115 -108 -186l-22 -55l-19 -35q-33 -57 -74 -57q-28 0 -28 65zM970 226v7q2 12 2 25q0 150 46 300q6 20 7 25q5 21 9 28q6 10 6 13l-8 13q-4 7 -4 12q0 7 7 26l15 42q12 33 27 42q3 3 20 15q3 3 10 7 q47 38 88 38q29 0 29 -30q0 -26 -26 -79q-10 -20 -36 -93l-43 -118q-10 -30 -23 -73l-15 -54q-20 -70 -19 -94q3 -59 139 -59q17 0 55 6q2 27 2 31q0 21 1 34l8 51l8 90q1 5 10 67q2 13 4 25q2 21 7 28l20 17q19 17 29 16q1 0 20 -5l25 -7q47 -13 45 -38q-1 -9 -8 -26 q-6 -15 -15 -63q-4 -22 -11 -51q-19 -71 -21 -93q-2 -21 -6 -29q-6 -17 -6 -23q1 -13 17 -13q9 0 23 9q40 24 53 23q29 -1 29 -40q0 -15 -10 -24l-31 -17l-30 -21q-8 -5 -29 -13q-27 -10 -33 -20l-8 -30l-3 -10q-2 -7 -5 -40q-1 -11 -10 -60q-8 -42 -8 -78q0 -25 -27 -49 l-15 -13q-15 -13 -28 -13q-28 0 -28 44l3 42v21l4 45l1 48l1 21q1 17 2 20q1 7 1 9q-2 11 -15 11q-10 0 -25 -5q-19 -7 -71 -7q-151 0 -151 90l-1 28z" />
<glyph unicode="&#xbf;" horiz-adv-x="811" d="M123 345q0 140 52 247l45 93l37 75l53 87l40 97q31 70 117 70q32 0 32 -29q0 -12 -26 -70l-27 -58q-125 -276 -125 -388q0 -105 64 -152q36 -26 49 -39l22 -21l54 -34q20 -13 24 -13q9 0 8 14q0 2 -1 4l-10 31v8q2 42 29 42q5 0 11 -7l13 -14l28 -20l4 -6l11 -14l22 -37 q3 -6 8 -11l29 -29q13 -13 13 -37q0 -9 -6 -22q-13 -32 -13 -34l-6 -44q-8 -49 -81 -49q-78 0 -181 61l-89 53l-53 25l-49 48q-2 1 -8 6q-90 66 -90 167zM433 1189q0 11 15 27q10 11 14 20l12 27l10 10q28 28 54 38l35 14l26 3l72 19q25 -4 28 -19l6 -24l4 -21l-7 -16 q-14 -29 -32 -44l-13 -11l-22 -23l-52 -39q-48 -35 -70 -36q-80 -4 -80 75z" />
<glyph unicode="&#xc0;" horiz-adv-x="903" d="M-79 -73q0 41 5 58l41 136q6 19 15 74q11 60 26 87q13 22 13 39q0 9 -5 8l-32 -5q-3 0 -7 2q-15 8 -15 28q0 13 9 35q-4 23 -4 30q5 104 76 121q56 13 64 58q2 11 10 31l5 14l17 27q10 14 35 111l22 68l23 75l24 72q42 121 64 147q33 40 33 46q0 4 -1 6l-31 48l13 15 l26 30l50 10q16 4 28 28q25 51 43 57q11 3 86 58q23 16 35 16q51 0 51 -39q0 -22 -23 -65q-22 -39 -22 -62q0 -19 13 -26l121 -65q26 -14 34 -132l10 -84l-14 -87l18 -92q5 -21 4 -26l-13 -116q-1 -8 4 -16q3 -4 5 -4l19 -1q16 -2 16 -31q0 -30 -16 -40l-22 -13 q-14 -9 -13 -15l13 -61l-20 -142q0 -82 -11 -112q-23 -62 -20 -72l6 -21l3 -12q-8 -30 -10 -45q-21 -135 -90 -129q-22 2 -22 45q0 17 5 41q3 12 3 16q0 3 -5 40l6 94l3 52l2 36l-10 36l4 39v36l13 27l-5 45q-3 44 -5 47l-2 2q-5 2 -8 2q-14 -1 -46 -18q-22 -11 -49 -12 l-55 -3q-1 0 -34 -15q-15 -7 -74 -22q-27 -6 -66 -27q-52 -28 -87 -28q-24 0 -32 -36q-7 -30 -22 -62l-23 -51q-10 -23 -27 -91q-8 -34 -15 -48l-16 -30l-11 -70l-23 -52l-12 -31q-19 -31 -62 -31q-36 0 -36 47zM254 589q-1 -19 16 -19q4 0 11 2q11 3 25 3l28 -1l69 13l40 6 q24 3 26 3l29 -5l68 16q46 0 48 23q1 13 1 21l1 27l2 64q6 24 6 26l-13 45l5 40l-11 48v4l3 23l-2 7q-4 10 -15 25l-44 65q-25 36 -60 36q-42 0 -81 -128q-17 -52 -35 -70q-18 -17 -19 -30l-1 -14q0 -3 -25 -66l-37 -95q-4 -11 -29 -51q-5 -10 -6 -18zM393 1739q0 60 50 55 q20 -2 45 -33q54 -67 67 -76l27 -17l36 -36q19 -19 77 -47q45 -21 67 -26q51 -12 51 -33q0 -18 -17 -22l-30 5l-54 8q-6 1 -65 30l-50 23l-19 12l-34 21l-19 15q-5 3 -39 14q-93 30 -93 107z" />
<glyph unicode="&#xc1;" horiz-adv-x="903" d="M-79 -73q0 41 5 58l41 136q6 19 15 74q11 60 26 87q13 22 13 39q0 9 -5 8l-32 -5q-3 0 -7 2q-15 8 -15 28q0 13 9 35q-4 23 -4 30q5 104 76 121q56 13 64 58q2 11 10 31l5 14l17 27q10 14 35 111l22 68l23 75l24 72q42 121 64 147q33 40 33 46q0 4 -1 6l-31 48l13 15 l26 30l50 10q16 4 28 28q25 51 43 57q11 3 86 58q23 16 35 16q51 0 51 -39q0 -22 -23 -65q-22 -39 -22 -62q0 -19 13 -26l121 -65q26 -14 34 -132l10 -84l-14 -87l18 -92q5 -21 4 -26l-13 -116q-1 -8 4 -16q3 -4 5 -4l19 -1q16 -2 16 -31q0 -30 -16 -40l-22 -13 q-14 -9 -13 -15l13 -61l-20 -142q0 -82 -11 -112q-23 -62 -20 -72l6 -21l3 -12q-8 -30 -10 -45q-21 -135 -90 -129q-22 2 -22 45q0 17 5 41q3 12 3 16q0 3 -5 40l6 94l3 52l2 36l-10 36l4 39v36l13 27l-5 45q-3 44 -5 47l-2 2q-5 2 -8 2q-14 -1 -46 -18q-22 -11 -49 -12 l-55 -3q-1 0 -34 -15q-15 -7 -74 -22q-27 -6 -66 -27q-52 -28 -87 -28q-24 0 -32 -36q-7 -30 -22 -62l-23 -51q-10 -23 -27 -91q-8 -34 -15 -48l-16 -30l-11 -70l-23 -52l-12 -31q-19 -31 -62 -31q-36 0 -36 47zM254 589q-1 -19 16 -19q4 0 11 2q11 3 25 3l28 -1l69 13l40 6 q24 3 26 3l29 -5l68 16q46 0 48 23q1 13 1 21l1 27l2 64q6 24 6 26l-13 45l5 40l-11 48v4l3 23l-2 7q-4 10 -15 25l-44 65q-25 36 -60 36q-42 0 -81 -128q-17 -52 -35 -70q-18 -17 -19 -30l-1 -14q0 -3 -25 -66l-37 -95q-4 -11 -29 -51q-5 -10 -6 -18zM424 1508q2 32 54 54 q37 29 57 36l24 8q6 2 32 20l28 19l26 20l72 48l17 11q14 10 16 12l15 24q10 17 34 17q36 0 36 -76q0 -71 -112 -106l-80 -25q-51 -16 -103 -42l-16 -8l-56 -22l-26 -10l-11 5q-8 6 -7 15z" />
<glyph unicode="&#xc2;" horiz-adv-x="903" d="M-79 -73q0 41 5 58l41 136q6 19 15 74q11 60 26 87q13 22 13 39q0 9 -5 8l-32 -5q-3 0 -7 2q-15 8 -15 28q0 13 9 35q-4 23 -4 30q5 104 76 121q56 13 64 58q2 11 10 31l5 14l17 27q10 14 35 111l22 68l23 75l24 72q42 121 64 147q33 40 33 46q0 4 -1 6l-31 48l13 15 l26 30l50 10q16 4 28 28q25 51 43 57q11 3 86 58q23 16 35 16q51 0 51 -39q0 -22 -23 -65q-22 -39 -22 -62q0 -19 13 -26l121 -65q26 -14 34 -132l10 -84l-14 -87l18 -92q5 -21 4 -26l-13 -116q-1 -8 4 -16q3 -4 5 -4l19 -1q16 -2 16 -31q0 -30 -16 -40l-22 -13 q-14 -9 -13 -15l13 -61l-20 -142q0 -82 -11 -112q-23 -62 -20 -72l6 -21l3 -12q-8 -30 -10 -45q-21 -135 -90 -129q-22 2 -22 45q0 17 5 41q3 12 3 16q0 3 -5 40l6 94l3 52l2 36l-10 36l4 39v36l13 27l-5 45q-3 44 -5 47l-2 2q-5 2 -8 2q-14 -1 -46 -18q-22 -11 -49 -12 l-55 -3q-1 0 -34 -15q-15 -7 -74 -22q-27 -6 -66 -27q-52 -28 -87 -28q-24 0 -32 -36q-7 -30 -22 -62l-23 -51q-10 -23 -27 -91q-8 -34 -15 -48l-16 -30l-11 -70l-23 -52l-12 -31q-19 -31 -62 -31q-36 0 -36 47zM254 589q-1 -19 16 -19q4 0 11 2q11 3 25 3l28 -1l69 13l40 6 q24 3 26 3l29 -5l68 16q46 0 48 23q1 13 1 21l1 27l2 64q6 24 6 26l-13 45l5 40l-11 48v4l3 23l-2 7q-4 10 -15 25l-44 65q-25 36 -60 36q-42 0 -81 -128q-17 -52 -35 -70q-18 -17 -19 -30l-1 -14q0 -3 -25 -66l-37 -95q-4 -11 -29 -51q-5 -10 -6 -18zM361 1546q6 13 9 19 q12 32 30 42l21 10q11 6 66 47q90 67 118 67q17 0 61 -30q28 -18 81 -42q84 -36 90 -76l3 -21l4 -22l-20 -21l-35 12q-3 1 -22 10q-56 24 -85 44l-34 23q-25 17 -45 17q-28 0 -56 -19l-18 -12l-32 -17q-12 -6 -26 -16q-47 -34 -81 -34q-27 0 -29 19z" />
<glyph unicode="&#xc3;" horiz-adv-x="903" d="M-79 -73q0 41 5 58l41 136q6 19 15 74q11 60 26 87q13 22 13 39q0 9 -5 8l-32 -5q-3 0 -7 2q-15 8 -15 28q0 13 9 35q-4 23 -4 30q5 104 76 121q56 13 64 58q2 11 10 31l5 14l17 27q10 14 35 111l22 68l23 75l24 72q42 121 64 147q33 40 33 46q0 4 -1 6l-31 48l13 15 l26 30l50 10q16 4 28 28q25 51 43 57q11 3 86 58q23 16 35 16q51 0 51 -39q0 -22 -23 -65q-22 -39 -22 -62q0 -19 13 -26l121 -65q26 -14 34 -132l10 -84l-14 -87l18 -92q5 -21 4 -26l-13 -116q-1 -8 4 -16q3 -4 5 -4l19 -1q16 -2 16 -31q0 -30 -16 -40l-22 -13 q-14 -9 -13 -15l13 -61l-20 -142q0 -82 -11 -112q-23 -62 -20 -72l6 -21l3 -12q-8 -30 -10 -45q-21 -135 -90 -129q-22 2 -22 45q0 17 5 41q3 12 3 16q0 3 -5 40l6 94l3 52l2 36l-10 36l4 39v36l13 27l-5 45q-3 44 -5 47l-2 2q-5 2 -8 2q-14 -1 -46 -18q-22 -11 -49 -12 l-55 -3q-1 0 -34 -15q-15 -7 -74 -22q-27 -6 -66 -27q-52 -28 -87 -28q-24 0 -32 -36q-7 -30 -22 -62l-23 -51q-10 -23 -27 -91q-8 -34 -15 -48l-16 -30l-11 -70l-23 -52l-12 -31q-19 -31 -62 -31q-36 0 -36 47zM254 589q-1 -19 16 -19q4 0 11 2q11 3 25 3l28 -1l69 13l40 6 q24 3 26 3l29 -5l68 16q46 0 48 23q1 13 1 21l1 27l2 64q6 24 6 26l-13 45l5 40l-11 48v4l3 23l-2 7q-4 10 -15 25l-44 65q-25 36 -60 36q-42 0 -81 -128q-17 -52 -35 -70q-18 -17 -19 -30l-1 -14q0 -3 -25 -66l-37 -95q-4 -11 -29 -51q-5 -10 -6 -18zM305 1568l7 25 q7 11 19 16l22 8q5 2 59 33q37 21 84 34l77 22q28 8 38 8q17 0 40 -22q10 -28 10 -48q0 -47 24 -47q71 0 119 30q65 42 79 43q22 2 22 -29q0 -77 -184 -107l-59 -9q-41 -7 -60 -7q-40 0 -40 47q0 60 -38 60q-20 0 -105 -44l-78 -40l-25 -12z" />
<glyph unicode="&#xc4;" horiz-adv-x="903" d="M-79 -73q0 41 5 58l41 136q6 19 15 74q11 60 26 87q13 22 13 39q0 9 -5 8l-32 -5q-3 0 -7 2q-15 8 -15 28q0 13 9 35q-4 23 -4 30q5 104 76 121q56 13 64 58q2 11 10 31l5 14l17 27q10 14 35 111l22 68l23 75l24 72q42 121 64 147q33 40 33 46q0 4 -1 6l-31 48l13 15 l26 30l50 10q16 4 28 28q25 51 43 57q11 3 86 58q23 16 35 16q51 0 51 -39q0 -22 -23 -65q-22 -39 -22 -62q0 -19 13 -26l121 -65q26 -14 34 -132l10 -84l-14 -87l18 -92q5 -21 4 -26l-13 -116q-1 -8 4 -16q3 -4 5 -4l19 -1q16 -2 16 -31q0 -30 -16 -40l-22 -13 q-14 -9 -13 -15l13 -61l-20 -142q0 -82 -11 -112q-23 -62 -20 -72l6 -21l3 -12q-8 -30 -10 -45q-21 -135 -90 -129q-22 2 -22 45q0 17 5 41q3 12 3 16q0 3 -5 40l6 94l3 52l2 36l-10 36l4 39v36l13 27l-5 45q-3 44 -5 47l-2 2q-5 2 -8 2q-14 -1 -46 -18q-22 -11 -49 -12 l-55 -3q-1 0 -34 -15q-15 -7 -74 -22q-27 -6 -66 -27q-52 -28 -87 -28q-24 0 -32 -36q-7 -30 -22 -62l-23 -51q-10 -23 -27 -91q-8 -34 -15 -48l-16 -30l-11 -70l-23 -52l-12 -31q-19 -31 -62 -31q-36 0 -36 47zM254 589q-1 -19 16 -19q4 0 11 2q11 3 25 3l28 -1l69 13l40 6 q24 3 26 3l29 -5l68 16q46 0 48 23q1 13 1 21l1 27l2 64q6 24 6 26l-13 45l5 40l-11 48v4l3 23l-2 7q-4 10 -15 25l-44 65q-25 36 -60 36q-42 0 -81 -128q-17 -52 -35 -70q-18 -17 -19 -30l-1 -14q0 -3 -25 -66l-37 -95q-4 -11 -29 -51q-5 -10 -6 -18zM365 1589 q0 39 57.5 98t96.5 59q80 0 80 -51q0 -4 -1 -11q-11 -63 -24 -82l-21 -31q-48 -69 -59 -73q-44 -17 -86.5 13t-42.5 78zM669 1572q0 93 60 116l25 10q2 0 8 8q32 37 57 37q73 0 73 -78q0 -43 -56 -129q-44 -35 -92 -35q-75 0 -75 71z" />
<glyph unicode="&#xc5;" horiz-adv-x="903" d="M-79 -73q0 41 5 58l41 136q6 19 15 74q11 60 26 87q13 22 13 39q0 9 -5 8l-32 -5q-3 0 -7 2q-15 8 -15 28q0 13 9 35q-4 23 -4 30q5 104 75 121q56 13 64 58q2 11 10 31l6 14l16 27q9 14 35 111l22 68l22 75l25 72q41 121 63 147q33 41 33 46q0 4 -1 6l-29 48l13 15 l26 29l50 10q51 13 55 80q0 5 -7 20q-23 47 -23 63l2 39l1 32q0 59 48.5 168.5t87.5 139.5l7 4l36 -15l8 5q22 16 52 16q101 0 101 -154q0 -155 -45 -211l-79 -98q-46 -57 -46 -91q0 -23 14 -31l120 -64q26 -14 34 -133l10 -83l-14 -85l17 -94q5 -22 4 -28l-9 -112 q-1 -9 4 -18q2 -4 4 -4l17 -2q16 -1 16 -27q0 -33 -17 -43l-21 -13q-14 -9 -13 -15l13 -62l-20 -138q0 -85 -12 -115q-21 -56 -20 -72l6 -21q2 -4 4 -12q-8 -30 -10 -45q-21 -135 -90 -129q-22 2 -22 45q0 17 5 41q3 12 3 16q0 3 -5 40l6 94l3 52l2 36l-10 36l4 39v36l13 27 l-5 45q-3 44 -5 47l-2 2q-5 2 -8 2q-14 -1 -46 -18q-22 -11 -49 -12l-55 -3q-1 0 -34 -15q-15 -7 -74 -22q-27 -6 -66 -27q-52 -28 -87 -28q-24 0 -32 -36q-7 -30 -22 -62l-23 -51q-10 -23 -27 -91q-8 -34 -15 -48l-16 -30l-11 -70l-23 -52l-12 -31q-19 -31 -62 -31 q-36 0 -36 47zM254 589q-1 -19 16 -19q4 0 11 2q11 3 25 3l28 -1l68 13l41 6q24 3 26 3l29 -5l68 16q46 0 48 23q1 13 1 21l1 27l1 64q6 24 6 26l-12 45l5 40l-11 48v4l3 23l-2 7q-4 10 -15 25l-44 65q-25 36 -60 36q-42 0 -81 -128q-17 -52 -35 -70q-19 -18 -19 -30l-1 -14 q0 -4 -25 -66l-37 -95q-4 -11 -29 -51q-5 -10 -6 -18zM514 1481q0 -24 19 -25q22 -1 37 33l54 120q30 66 32 105q1 23 -26 23q-37 0 -71 -106l-16 -48q-29 -85 -29 -102z" />
<glyph unicode="&#xc6;" horiz-adv-x="1438" d="M-84 -74q0 35 18 102l16 65l22 88q19 77 28 96q10 21 11 35q1 9 -8 10l-23 2q-7 1 -12 4q-15 9 -14 25l9 45l-2 41q0 13 12 34l30 50l67 24q21 10 29 55q4 22 13 38l20 35q5 8 11 41q3 15 5 21l13 36l33 89l15 41l6 34q1 8 17 49l30 77q25 65 45 86l25 28q8 8 7 15 q-1 6 -11 16q-17 18 -18 31q-4 46 48 57l45 9q14 3 29 39l9 22q4 11 15 15l16 6l13 12q4 4 8 6l28 14l33 24q18 13 32 14q58 3 53 -34q0 -1 -33 -70q-2 -4 -2 -6l-4 -22l-14 -20q-6 -10 -6 -18q2 -34 98 -65q67 -22 75 -105l5 -48q0 -3 6 -19h2q5 13 7 20q9 34 12 39l19 22 l25 30l15 14l14 30q4 7 17 22q26 22 38 27l20 8q10 3 14 7l29 30l26 15l56 44q53 38 121 38q10 0 35 -3l9 -1l90 19l37 -8h14l31 -3q66 -12 66 -84q0 -136 -51 -136q-9 0 -19 4l-34 12q-54 19 -148 19q-70 0 -108 -16q-27 -11 -28 -12l-59 -12l-30 -36q-36 -44 -36 -93 q0 -27 -5 -46l-32 -107l-11 -58q-9 -47 -29 -102q-7 -18 -7 -35q0 -33 24 -34q11 -1 30 19l31 29q49 48 141 57l83 9l56 9l34 -3l49 6l29 -11q38 -30 36 -59l-8 -43l-2 -28q-5 -46 -39 -46q-12 0 -31 7q-24 8 -46 10h-3l-23 -5q-9 -2 -30 -2h-18l-54 -5l-58 -3 q-31 -3 -77 -19q-23 -8 -32 -8q-25 0 -29 -2l-6 -3l-54 -27q-32 -17 -43 -110l-6 -50l-15 -60l-1 -4l2 -16v-3l-5 -28q-3 -15 -8 -45q1 -16 1 -22q0 -15 -2 -24q-5 -26 -5 -37q0 -26 20 -26q5 0 16 6q22 11 43 11l101 -7l38 7l47 7l37 12l77 15l55 21l45 16l45 18l19 7 l50 46q6 6 25 18q8 -7 10 -19q4 -25 21 -49q9 -13 9 -23q-29 -31 -43 -41l-21 -14l-30 -22l-46 -21l-12 -9l-32 -18q-35 -20 -39 -20l-24 -3q-5 -1 -10 -4l-30 -23l-41 -15l-47 -20q-73 -31 -151 -35l-52 -2l-70 -6l-24 2q-63 9 -63 36q0 10 3 19q1 5 1 9q0 12 -8 12 q-4 0 -14 -22q-6 -15 -21 -26q-18 -13 -22 -17q-18 -16 -28 -16q-17 0 -17 46q0 11 1 19l5 38l-6 35q-1 4 -1 10q0 85 6 104l13 48l-16 47v9q0 50 5 71l6 31l-4 45l-4 43q-4 6 -17 6q-6 0 -9 -1l-56 -21q-17 -6 -47 -6q-29 0 -36 -3l-34 -15q-14 -6 -40 -11q-38 -8 -58 -18 l-34 -16q-62 -30 -77 -32l-26 -3q-5 -1 -8 -5l-21 -56l-4 -8l-19 -51q-10 -24 -23 -49l-5 -10l-12 -65l-28 -66q-2 -5 -10 -54q-2 -7 -4 -20l-15 -33q-4 -9 -6 -11l-11 -28q-8 -20 -40 -26l-23 -4l-20 10q-8 11 -8 25zM231 592q0 -16 14 -17q15 -1 38 -3q10 -1 15 -1l7 -1 l62 14l14 1l48 4l14 1l24 2l22 -3h2l71 14l40 7q7 5 8 17q0 3 -1 24l-1 36v4l2 29l2 51v11l-7 23q-2 6 -2 13l3 75q0 17 -6 33q-53 131 -125 135q-12 1 -36 -27l-22 -25l-9 -34q-4 -16 -20 -42q-7 -10 -9 -14l-21 -44l-15 -17q-8 -11 -10 -19l-4 -26q-3 -16 -24 -58 q-13 -25 -20 -46q-12 -35 -31 -63q-23 -35 -23 -54z" />
<glyph unicode="&#xc7;" horiz-adv-x="973" d="M28 486q0 14 6 65l12 97q4 35 22 62q7 11 8 18v4q-3 17 -3 18q0 14 13 42l94 199q29 60 82 112l40 38q5 5 15 18l17 23q9 11 21 20l32 20l68 63q13 11 28 17l29 11l31 25q6 4 39 15l31 11q76 26 106 24l34 -4h48q10 -1 22 -9l20 -14l30 -6q79 -21 79 -210q0 -87 -4 -113 l-25 -122l-7 -58q-6 -41 -31 -99q-24 -59 -37 -99q-20 -61 -40 -68l-37 -10l-13 -5q-15 -7 -37 -7q-37 0 -40 15q0 1 6 36q1 5 1 7l-5 76q0 1 17 91q9 47 20 91q7 28 9 38q18 83 37 101l22 22q34 33 34 74q0 74 -86 92l-54 10l-19 4l-43 -13q-6 -2 -23 -4 q-118 -19 -227 -177t-132 -341l-13 -111q-13 -28 -13 -32q0 -7 12 -38q4 -13 4 -17l-10 -92q-1 -8 13 -28l24 -37q24 -34 34 -92q3 -19 29 -34q9 -6 20 -18l24 -26q59 -66 171 -66q6 0 20 3q46 10 75 12q25 2 32 6l34 21l32 8l20 16l15 9l9 6q6 4 9 4l21 1h3q6 4 17 24 q5 11 15 15l18 8q15 7 42 35q29 19 43 35q9 -7 11 -19q3 -25 21 -50q8 -12 8 -23q-62 -48 -79 -59l-100 -59l-13 -9q-125 -88 -277 -110l-38 -67l-37 -66l8 -3l9 2q92 35 140 35q62 0 62 -52q0 -87 -105 -155.5t-238 -68.5q-50 0 -53 52q-1 17 38 23q15 3 38 12q43 15 67 21 q123 33 123 68q0 11 -10 11q-22 1 -78 -25q-62 -29 -96 -29q-48 0 -48 47q0 32 85 158l14 21q2 3 11 17q-23 7 -34 11q-20 8 -26 9l-34 6l-14 12q-2 1 -28 4q-36 5 -99 67t-78 108l-28 86l-22 67q-4 16 -4 33v7l10 45l-9 26q-7 18 -7 35z" />
<glyph unicode="&#xc8;" horiz-adv-x="868" d="M60 121l3 47l3 82q12 34 13 42v3l-6 13q-2 4 -2 14l7 53l11 111q3 37 9 67q19 94 19 106l-4 89l76 334q7 50 38 81q9 9 24 28q12 9 13 12l19 35q2 5 13 17q21 16 29 20l28 15q14 6 25 18l19 19q2 3 8 8q18 7 21 9l49 39q37 29 108 35l64 3l67 11l66 -7l21 1l26 -9 q52 -27 52 -81q0 -136 -55 -136q-23 0 -34 8l-17 14q-27 22 -112 22l-40 1l-99 -21q-21 -18 -24 -17l-36 13q-3 1 -17 -10q-19 -14 -27 -26l-33 -71q-9 -20 -9 -60q0 -19 -37 -132q-10 -28 -20 -80q-11 -57 -20 -81q-7 -19 -7 -36q0 -27 20 -27q10 0 32 22q41 40 63 47 l42 10l46 20q21 8 59 11l94 9l29 -8l53 9l27 -12q20 -21 35 -56q0 -122 -52 -122q-12 0 -27 8q-26 14 -28 14l-46 -8q-6 -1 -28 -1q-367 0 -375 -172q-2 -34 -6 -48q-16 -58 -16 -60l8 -29l-12 -69l-6 -67q-1 -12 -1 -14q0 -17 10 -17l29 3l25 -1q11 0 19 1q43 5 45 5l46 -4 h6l63 6q3 1 27 12q39 17 78 17q89 0 187 48q31 15 35 16l39 13q6 2 26 18q8 -7 10 -19q4 -25 21 -49q8 -13 8 -23q-49 -41 -63 -47l-88 -33q-12 -4 -32 -17q-56 -36 -73 -36h-20q-5 0 -55 -18l-34 -12l-28 -14l-50 -17q-77 -27 -84 -26l-60 13l-39 -17l-38 2l-43 2 q-58 3 -53 30l6 35q1 5 -6 7h-20q-41 0 -37 62zM375 1684q0 60 50 55q20 -2 45 -33q54 -67 67 -76l27 -17l36 -36q19 -19 77 -47q45 -21 67 -26q51 -12 51 -33q0 -18 -17 -22l-30 5l-54 8q-6 1 -65 30l-50 23l-19 12l-34 21l-19 15q-5 3 -39 14q-93 30 -93 107z" />
<glyph unicode="&#xc9;" horiz-adv-x="868" d="M60 121l3 47l3 82q12 34 13 42v3l-6 13q-2 4 -2 14l7 53l11 111q3 37 9 67q19 94 19 106l-4 89l76 334q7 50 38 81q9 9 24 28q12 9 13 12l19 35q2 5 13 17q21 16 29 20l28 15q14 6 25 18l19 19q2 3 8 8q18 7 21 9l49 39q37 29 108 35l64 3l67 11l66 -7l21 1l26 -9 q52 -27 52 -81q0 -136 -55 -136q-23 0 -34 8l-17 14q-27 22 -112 22l-40 1l-99 -21q-21 -18 -24 -17l-36 13q-3 1 -17 -10q-19 -14 -27 -26l-33 -71q-9 -20 -9 -60q0 -19 -37 -132q-10 -28 -20 -80q-11 -57 -20 -81q-7 -19 -7 -36q0 -27 20 -27q10 0 32 22q41 40 63 47 l42 10l46 20q21 8 59 11l94 9l29 -8l53 9l27 -12q20 -21 35 -56q0 -122 -52 -122q-12 0 -27 8q-26 14 -28 14l-46 -8q-6 -1 -28 -1q-367 0 -375 -172q-2 -34 -6 -48q-16 -58 -16 -60l8 -29l-12 -69l-6 -67q-1 -12 -1 -14q0 -17 10 -17l29 3l25 -1q11 0 19 1q43 5 45 5l46 -4 h6l63 6q3 1 27 12q39 17 78 17q89 0 187 48q31 15 35 16l39 13q6 2 26 18q8 -7 10 -19q4 -25 21 -49q8 -13 8 -23q-49 -41 -63 -47l-88 -33q-12 -4 -32 -17q-56 -36 -73 -36h-20q-5 0 -55 -18l-34 -12l-28 -14l-50 -17q-77 -27 -84 -26l-60 13l-39 -17l-38 2l-43 2 q-58 3 -53 30l6 35q1 5 -6 7h-20q-41 0 -37 62zM366 1467q2 32 54 54q37 29 57 36l24 8q6 2 32 20l28 19l26 20l72 48l17 11q14 10 16 12l15 24q10 17 34 17q36 0 36 -76q0 -71 -112 -106l-80 -25q-51 -16 -103 -42l-16 -8l-56 -22l-26 -10l-11 5q-8 6 -7 15z" />
<glyph unicode="&#xca;" horiz-adv-x="868" d="M60 121l3 47l3 82q12 34 13 42v3l-6 13q-2 4 -2 14l7 53l11 111q3 37 9 67q19 94 19 106l-4 89l76 334q7 50 38 81q9 9 24 28q12 9 13 12l19 35q2 5 13 17q21 16 29 20l28 15q14 6 25 18l19 19q2 3 8 8q18 7 21 9l49 39q37 29 108 35l64 3l67 11l66 -7l21 1l26 -9 q52 -27 52 -81q0 -136 -55 -136q-23 0 -34 8l-17 14q-27 22 -112 22l-40 1l-99 -21q-21 -18 -24 -17l-36 13q-3 1 -17 -10q-19 -14 -27 -26l-33 -71q-9 -20 -9 -60q0 -19 -37 -132q-10 -28 -20 -80q-11 -57 -20 -81q-7 -19 -7 -36q0 -27 20 -27q10 0 32 22q41 40 63 47 l42 10l46 20q21 8 59 11l94 9l29 -8l53 9l27 -12q20 -21 35 -56q0 -122 -52 -122q-12 0 -27 8q-26 14 -28 14l-46 -8q-6 -1 -28 -1q-367 0 -375 -172q-2 -34 -6 -48q-16 -58 -16 -60l8 -29l-12 -69l-6 -67q-1 -12 -1 -14q0 -17 10 -17l29 3l25 -1q11 0 19 1q43 5 45 5l46 -4 h6l63 6q3 1 27 12q39 17 78 17q89 0 187 48q31 15 35 16l39 13q6 2 26 18q8 -7 10 -19q4 -25 21 -49q8 -13 8 -23q-49 -41 -63 -47l-88 -33q-12 -4 -32 -17q-56 -36 -73 -36h-20q-5 0 -55 -18l-34 -12l-28 -14l-50 -17q-77 -27 -84 -26l-60 13l-39 -17l-38 2l-43 2 q-58 3 -53 30l6 35q1 5 -6 7h-20q-41 0 -37 62zM302 1491q6 13 9 19q12 32 30 42l21 10q11 6 66 47q90 67 118 67q17 0 61 -30q28 -18 81 -42q84 -36 90 -76l3 -21l4 -22l-20 -21l-35 12q-3 1 -22 10q-56 24 -85 44l-34 23q-25 17 -45 17q-28 0 -56 -19l-18 -12l-32 -17 q-12 -6 -26 -16q-47 -34 -81 -34q-27 0 -29 19z" />
<glyph unicode="&#xcb;" horiz-adv-x="868" d="M60 121l3 47l3 82q12 34 13 42v3l-6 13q-2 4 -2 14l7 53l11 111q3 37 9 67q19 94 19 106l-4 89l76 334q7 50 38 81q9 9 24 28q12 9 13 12l19 35q2 5 13 17q21 16 29 20l28 15q14 6 25 18l19 19q2 3 8 8q18 7 21 9l49 39q37 29 108 35l64 3l67 11l66 -7l21 1l26 -9 q52 -27 52 -81q0 -136 -55 -136q-23 0 -34 8l-17 14q-27 22 -112 22l-40 1l-99 -21q-21 -18 -24 -17l-36 13q-3 1 -17 -10q-19 -14 -27 -26l-33 -71q-9 -20 -9 -60q0 -19 -37 -132q-10 -28 -20 -80q-11 -57 -20 -81q-7 -19 -7 -36q0 -27 20 -27q10 0 32 22q41 40 63 47 l42 10l46 20q21 8 59 11l94 9l29 -8l53 9l27 -12q20 -21 35 -56q0 -122 -52 -122q-12 0 -27 8q-26 14 -28 14l-46 -8q-6 -1 -28 -1q-367 0 -375 -172q-2 -34 -6 -48q-16 -58 -16 -60l8 -29l-12 -69l-6 -67q-1 -12 -1 -14q0 -17 10 -17l29 3l25 -1q11 0 19 1q43 5 45 5l46 -4 h6l63 6q3 1 27 12q39 17 78 17q89 0 187 48q31 15 35 16l39 13q6 2 26 18q8 -7 10 -19q4 -25 21 -49q8 -13 8 -23q-49 -41 -63 -47l-88 -33q-12 -4 -32 -17q-56 -36 -73 -36h-20q-5 0 -55 -18l-34 -12l-28 -14l-50 -17q-77 -27 -84 -26l-60 13l-39 -17l-38 2l-43 2 q-58 3 -53 30l6 35q1 5 -6 7h-20q-41 0 -37 62zM347 1589q0 39 57.5 98t96.5 59q80 0 80 -51q0 -4 -1 -11q-11 -63 -24 -82l-21 -31q-48 -69 -59 -73q-44 -17 -86.5 13t-42.5 78zM651 1572q0 93 60 116l25 10q2 0 8 8q32 37 57 37q73 0 73 -78q0 -43 -56 -129 q-44 -35 -92 -35q-75 0 -75 71z" />
<glyph unicode="&#xcc;" horiz-adv-x="433" d="M100 222q0 11 4 50q3 22 3 48q0 32 3 42l5 15l-4 35l1 9q10 89 10 111q0 39 8 74l7 32l8 101l9 39l-6 21l-3 46q-1 13 -4 15l-21 15q-5 4 -5 12q0 2 2 20l6 62l3 16l6 58q5 41 18 68l16 34l10 50q26 116 59 138l27 18q19 13 30 14l22 3l28 15q28 15 52 15q30 0 30 -42 q0 -47 -15 -105l-9 -37l-9 -46l-12 -64l-1 -13q-2 -32 -16 -80q-12 -41 -14 -54l-14 -82l-6 -22l-18 -112l-4 -15l-27 -202q-11 -67 -11 -72l4 -51q0 -3 -1 -10l-11 -81q-3 -21 -3 -54q0 -104 6 -124l14 -50q1 -3 1 -7q0 -18 -42 -48l-22 -16q-29 -21 -47 -21t-28 15l-7 15 l-15 35q-6 16 -5 22l9 37q2 7 -5 20l-14 30l2 18v2q0 4 -3 23q-1 9 -1 15zM164 1739q0 60 50 55q20 -2 45 -33q54 -67 67 -76l27 -17l36 -36q19 -19 77 -47q45 -21 67 -26q51 -12 51 -33q0 -18 -17 -22l-30 5l-54 8q-6 1 -65 30l-50 23l-19 12l-34 21l-19 15q-5 3 -39 14 q-93 30 -93 107z" />
<glyph unicode="&#xcd;" horiz-adv-x="433" d="M100 222q0 11 4 50q3 22 3 48q0 32 3 42l5 15l-4 35l1 9q10 89 10 111q0 39 8 74l7 32l8 101l9 39l-6 21l-3 46q-1 13 -4 15l-21 15q-5 4 -5 12q0 2 2 20l6 62l3 16l6 58q5 41 18 68l16 34l10 50q26 116 59 138l27 18q19 13 30 14l22 3l28 15q28 15 52 15q30 0 30 -42 q0 -47 -15 -105l-9 -37l-9 -46l-12 -64l-1 -13q-2 -32 -16 -80q-12 -41 -14 -54l-14 -82l-6 -22l-18 -112l-4 -15l-27 -202q-11 -67 -11 -72l4 -51q0 -3 -1 -10l-11 -81q-3 -21 -3 -54q0 -104 6 -124l14 -50q1 -3 1 -7q0 -18 -42 -48l-22 -16q-29 -21 -47 -21t-28 15l-7 15 l-15 35q-6 16 -5 22l9 37q2 7 -5 20l-14 30l2 18v2q0 4 -3 23q-1 9 -1 15zM189 1508q2 32 54 54q37 29 57 36l24 8q6 2 32 20l28 19l26 20l72 48l17 11q14 10 16 12l15 24q10 17 34 17q36 0 36 -76q0 -71 -112 -106l-80 -25q-51 -16 -103 -42l-16 -8l-56 -22l-26 -10l-11 5 q-8 6 -7 15z" />
<glyph unicode="&#xce;" horiz-adv-x="433" d="M100 222q0 11 4 50q3 22 3 48q0 32 3 42l5 15l-4 35l1 9q10 89 10 111q0 39 8 74l7 32l8 101l9 39l-6 21l-3 46q-1 13 -4 15l-21 15q-5 4 -5 12q0 2 2 20l6 62l3 16l6 58q5 41 18 68l16 34l10 50q26 116 59 138l27 18q19 13 30 14l22 3l28 15q28 15 52 15q30 0 30 -42 q0 -47 -15 -105l-9 -37l-9 -46l-12 -64l-1 -13q-2 -32 -16 -80q-12 -41 -14 -54l-14 -82l-6 -22l-18 -112l-4 -15l-27 -202q-11 -67 -11 -72l4 -51q0 -3 -1 -10l-11 -81q-3 -21 -3 -54q0 -104 6 -124l14 -50q1 -3 1 -7q0 -18 -42 -48l-22 -16q-29 -21 -47 -21t-28 15l-7 15 l-15 35q-6 16 -5 22l9 37q2 7 -5 20l-14 30l2 18v2q0 4 -3 23q-1 9 -1 15zM126 1546q6 13 9 19q12 32 30 42l21 10q11 6 66 47q90 67 118 67q17 0 61 -30q28 -18 81 -42q84 -36 90 -76l3 -21l4 -22l-20 -21l-35 12q-3 1 -22 10q-56 24 -85 44l-34 23q-25 17 -45 17 q-28 0 -56 -19l-18 -12l-32 -17q-12 -6 -26 -16q-47 -34 -81 -34q-27 0 -29 19z" />
<glyph unicode="&#xcf;" horiz-adv-x="433" d="M100 222q0 11 4 50q3 22 3 48q0 32 3 42l5 15l-4 35l1 9q10 89 10 111q0 39 8 74l7 32l8 101l9 39l-6 21l-3 46q-1 13 -4 15l-21 15q-5 4 -5 12q0 2 2 20l6 62l3 16l6 58q5 41 18 68l16 34l10 50q26 116 59 138l27 18q19 13 30 14l22 3l28 15q28 15 52 15q30 0 30 -42 q0 -47 -15 -105l-9 -37l-9 -46l-12 -64l-1 -13q-2 -32 -16 -80q-12 -41 -14 -54l-14 -82l-6 -22l-18 -112l-4 -15l-27 -202q-11 -67 -11 -72l4 -51q0 -3 -1 -10l-11 -81q-3 -21 -3 -54q0 -104 6 -124l14 -50q1 -3 1 -7q0 -18 -42 -48l-22 -16q-29 -21 -47 -21t-28 15l-7 15 l-15 35q-6 16 -5 22l9 37q2 7 -5 20l-14 30l2 18v2q0 4 -3 23q-1 9 -1 15zM145 1618l11 31q47 124 128 124q72 0 72 -51q0 -4 -1 -10q-25 -161 -106 -185q-78 -23 -94 49zM435 1602q0 90 54 113l22 10q2 1 8 8q26 36 49 37q67 4 67 -78q0 -42 -50 -128q-39 -35 -82 -35 q-68 0 -68 73z" />
<glyph unicode="&#xd0;" horiz-adv-x="990" d="M-33 560q0 2 4 15q4 12 5 30q4 69 79 88q30 7 78 21q-3 17 -3 23q0 15 6 38q8 36 8 45l1 49q0 2 6 39l11 67l11 39l8 41q3 10 9 16l45 41l23 34l22 4q18 4 19 14q3 20 -46 25q-45 4 -56 11l-28 20l-22 8q-86 29 -84 61l10 40l-16 44q-4 33 26 27l40 -8l41 14 q73 0 107 -27q15 -12 22 -13q1 0 5 1q19 4 27 4q6 0 11 -2l20 -14q12 -8 66 -14q24 -3 50 -16l64 -32q414 -208 414 -487q0 -235 -238 -515l-68 -81l-26 -30q45 13 90 28q198 37 247 90q8 -7 10 -19q4 -25 21 -50q9 -12 9 -23q-41 -40 -82 -52l-50 -14q-61 -17 -64 -18 l-138 -11q-3 0 -27 -7q-47 -35 -96 -63q-42 -23 -54 -32q-49 -35 -87 -44l-4 -1q-3 -1 -14 -13q-3 -3 -43 -17l-43 -16q-6 -2 -30 -2q-23 0 -28 -1l-53 -5l-15 5q-9 5 -17 14l-15 19l-7 9l48 52q2 2 12 19q27 43 93 56q59 11 67 18l13 11q5 5 45 26q46 24 128 108 q33 35 68 63q11 30 21 37l17 11q2 2 14 29l20 32l51 84l29 35q39 65 39 183q0 81 -86.5 189t-189.5 156l-19 9q-35 16 -106 58q-15 -48 -19 -70l-12 -65q-4 -22 -18 -75q-23 -88 -32 -130q45 13 69 20q7 2 9 2l28 -13l27 13q53 0 65 -67q0 -124 -39 -122q-9 0 -46 16 q-14 6 -21 6q-6 0 -15 -7q-10 -6 -13 -6l-10 8q-6 4 -17 5q-31 2 -68 -21l-5 -20q-3 -16 -9 -38q-8 -32 -11 -45q-5 -23 -7 -30q-12 -34 -9 -41l8 -18l-10 -49l-6 -35l-5 -17q-1 -3 -9 -35q0 -2 -1 -7q-7 -41 -10 -62q-4 -34 -9 -42l-15 -30l-22 -43l-12 -12l-24 -37 q-9 -12 -26 -12q-7 0 -11 3l-10 30q-3 11 -3 15l16 57l-11 17l7 84l5 73l5 22q3 16 3 52q0 32 11 122q3 18 7 53q-25 -4 -68 -37q-23 -18 -37 -19q-41 -3 -45 34z" />
<glyph unicode="&#xd1;" horiz-adv-x="1071" d="M6 -30q0 20 7 43q8 28 8 34v30l20 76l11 56l2 38l7 25q2 6 7 39l2 15l2 36l3 17l2 12l8 28q2 6 5 21q15 76 33 201q13 93 24 152l14 73q20 107 27 169q4 35 7 47q5 23 4 26l-16 63l18 53q7 60 42 60l22 -2l49 8q12 1 19 -6l27 -22q2 -2 4 -2q5 1 16 16l20 26q17 22 18 23 l26 17q12 7 14 7l11 -7l21 -8q10 -4 9 -21q-1 -13 -19 -52q-22 -47 -27 -96q-31 -45 -31 -75q0 -43 62 -198q38 -95 49 -127l40 -127q24 -74 56 -147l36 -83l35 -81q44 -89 62 -90t18 49q0 15 16 68q8 25 13 55l21 102l13 54q3 19 3 58q10 58 15 176q2 43 6 58l7 33l5 46 q0 71 -3 94q-6 40 -6 44q0 2 1 9q4 30 12 59l14 56l8 43l25 77q21 68 47 86q28 20 34 26q10 11 15 12q29 3 23 -26l-8 -22l6 -37q1 -8 -7 -43q-5 -24 -5 -89q0 -31 -15 -157q-7 -68 -11 -132q-5 -82 -5 -87l-19 -173l-3 -38q-11 -166 -52 -312q-30 -109 -30 -143 q0 -39 -23 -73l-32 -50q-7 -7 -52 -21q-1 -1 -50 -20q-18 -8 -28 -7q-36 2 -117 164l-34 69l-28 54q-20 40 -28 66l-10 39q-3 11 -6 16l-43 83l-18 60q-1 4 -59 120q-12 24 -18 43q-12 42 -25 43q-5 0 -7 -3l-21 -66l-7 -21l-2 -34q-1 -11 -7 -21l-14 -28q-2 -4 -9 -35 l-14 -51l-13 -51l-30 -104l-9 -31q-9 -29 -11 -39q-14 -70 -15 -73l-18 -33q-1 -3 -9 -59q-3 -23 -10 -39l-26 -68l-2 -6l-4 -20q-9 -43 -30 -45l-16 -2l-2 -2q-20 -16 -23 -16q-24 -3 -24 48zM389 1568l7 25q7 11 19 16l22 8q5 2 59 33q37 21 84 34l77 22q28 8 38 8 q17 0 40 -22q10 -28 10 -48q0 -47 24 -47q71 0 119 30q65 42 79 43q22 2 22 -29q0 -77 -184 -107l-59 -9q-41 -7 -60 -7q-40 0 -40 47q0 60 -38 60q-20 0 -105 -44l-78 -40l-25 -12z" />
<glyph unicode="&#xd2;" horiz-adv-x="1086" d="M33 587q0 9 2 16l7 25q2 6 4 22q-2 7 -2 10q0 28 54 110q17 25 19 30l27 62l7 9q9 15 24 57l19 56l9 32q11 34 22 56l17 35l27 89q7 24 16 34l21 26l19 40q18 34 60 53l10 4l21 -15q12 -12 13 -25q2 -32 -35 -95q-9 -16 -9 -31t9 -16q4 -1 22 22q5 6 21 19q13 11 37 33 q68 61 97 69l74 19l4 1q6 3 14 10q18 16 29 17q4 0 16 -4q12 -10 17 -11l43 -5l22 -9l19 -1q3 0 23 -21q4 -4 29 -19q71 -43 130.5 -173.5t59.5 -243.5q0 -338 -169 -492q-47 -43 -48 -47l-1 -12q-1 -13 -36 -47l-24 -20l-111 -99q-97 -88 -199 -119h-2l-17 -15 q-21 -18 -91 -18q-112 0 -142 28l-20 19l-29 22q-54 49 -67 190l-2 16l-8 82l5 39q5 23 5 28l-2 36q-1 13 5 33l13 40q4 15 4 50q0 17 -7 17q-8 0 -23 -31q-9 -20 -18 -22q-34 -9 -34 35zM264 439q0 -264 144 -280q77 -8 196 78.5t164 182.5l65 139l13 22q33 69 40 214 q1 18 -8 42q-5 14 -5 16l7 43q0 1 -2 5q-1 2 -2 3l-13 16q-2 2 -4 12q-55 204 -215 217l-51 -7l-24 -4l-25 -12l-97 -44q-19 -8 -50 -45l-19 -24l-28 -33q-25 -32 -38 -109q-2 -13 -15 -77q-27 -131 -27 -188l-2 -59l-3 -81zM511 1739q0 60 50 55q20 -2 45 -33 q54 -67 67 -76l27 -17l36 -36q19 -19 77 -47q45 -21 67 -26q51 -12 51 -33q0 -18 -17 -22l-30 5l-54 8q-6 1 -65 30l-50 23l-19 12l-34 21l-19 15q-5 3 -39 14q-93 30 -93 107z" />
<glyph unicode="&#xd3;" horiz-adv-x="1086" d="M33 587q0 9 2 16l7 25q2 6 4 22q-2 7 -2 10q0 28 54 110q17 25 19 30l27 62l7 9q9 15 24 57l19 56l9 32q11 34 22 56l17 35l27 89q7 24 16 34l21 26l19 40q18 34 60 53l10 4l21 -15q12 -12 13 -25q2 -32 -35 -95q-9 -16 -9 -31t9 -16q4 -1 22 22q5 6 21 19q13 11 37 33 q68 61 97 69l74 19l4 1q6 3 14 10q18 16 29 17q4 0 16 -4q12 -10 17 -11l43 -5l22 -9l19 -1q3 0 23 -21q4 -4 29 -19q71 -43 130.5 -173.5t59.5 -243.5q0 -338 -169 -492q-47 -43 -48 -47l-1 -12q-1 -13 -36 -47l-24 -20l-111 -99q-97 -88 -199 -119h-2l-17 -15 q-21 -18 -91 -18q-112 0 -142 28l-20 19l-29 22q-54 49 -67 190l-2 16l-8 82l5 39q5 23 5 28l-2 36q-1 13 5 33l13 40q4 15 4 50q0 17 -7 17q-8 0 -23 -31q-9 -20 -18 -22q-34 -9 -34 35zM264 439q0 -264 144 -280q77 -8 196 78.5t164 182.5l65 139l13 22q33 69 40 214 q1 18 -8 42q-5 14 -5 16l7 43q0 1 -2 5q-1 2 -2 3l-13 16q-2 2 -4 12q-55 204 -215 217l-51 -7l-24 -4l-25 -12l-97 -44q-19 -8 -50 -45l-19 -24l-28 -33q-25 -32 -38 -109q-2 -13 -15 -77q-27 -131 -27 -188l-2 -59l-3 -81zM516 1508q2 32 54 54q37 29 57 36l24 8 q6 2 32 20l28 19l26 20l72 48l17 11q14 10 16 12l15 24q10 17 34 17q36 0 36 -76q0 -71 -112 -106l-80 -25q-51 -16 -103 -42l-16 -8l-56 -22l-26 -10l-11 5q-8 6 -7 15z" />
<glyph unicode="&#xd4;" horiz-adv-x="1086" d="M33 587q0 9 2 16l7 25q2 6 4 22q-2 7 -2 10q0 28 54 110q17 25 19 30l27 62l7 9q9 15 24 57l19 56l9 32q11 34 22 56l17 35l27 89q7 24 16 34l21 26l19 40q18 34 60 53l10 4l21 -15q12 -12 13 -25q2 -32 -35 -95q-9 -16 -9 -31t9 -16q4 -1 22 22q5 6 21 19q13 11 37 33 q68 61 97 69l74 19l4 1q6 3 14 10q18 16 29 17q4 0 16 -4q12 -10 17 -11l43 -5l22 -9l19 -1q3 0 23 -21q4 -4 29 -19q71 -43 130.5 -173.5t59.5 -243.5q0 -338 -169 -492q-47 -43 -48 -47l-1 -12q-1 -13 -36 -47l-24 -20l-111 -99q-97 -88 -199 -119h-2l-17 -15 q-21 -18 -91 -18q-112 0 -142 28l-20 19l-29 22q-54 49 -67 190l-2 16l-8 82l5 39q5 23 5 28l-2 36q-1 13 5 33l13 40q4 15 4 50q0 17 -7 17q-8 0 -23 -31q-9 -20 -18 -22q-34 -9 -34 35zM264 439q0 -264 144 -280q77 -8 196 78.5t164 182.5l65 139l13 22q33 69 40 214 q1 18 -8 42q-5 14 -5 16l7 43q0 1 -2 5q-1 2 -2 3l-13 16q-2 2 -4 12q-55 204 -215 217l-51 -7l-24 -4l-25 -12l-97 -44q-19 -8 -50 -45l-19 -24l-28 -33q-25 -32 -38 -109q-2 -13 -15 -77q-27 -131 -27 -188l-2 -59l-3 -81zM452 1546q6 13 9 19q12 32 30 42l21 10 q11 6 66 47q90 67 118 67q17 0 61 -30q28 -18 81 -42q84 -36 90 -76l3 -21l4 -22l-20 -21l-35 12q-3 1 -22 10q-56 24 -85 44l-34 23q-25 17 -45 17q-28 0 -56 -19l-18 -12l-32 -17q-12 -6 -26 -16q-47 -34 -81 -34q-27 0 -29 19z" />
<glyph unicode="&#xd5;" horiz-adv-x="1086" d="M33 587q0 9 2 16l7 25q2 6 4 22q-2 7 -2 10q0 28 54 110q17 25 19 30l27 62l7 9q9 15 24 57l19 56l9 32q11 34 22 56l17 35l27 89q7 24 16 34l21 26l19 40q18 34 60 53l10 4l21 -15q12 -12 13 -25q2 -32 -35 -95q-9 -16 -9 -31t9 -16q4 -1 22 22q5 6 21 19q13 11 37 33 q68 61 97 69l74 19l4 1q6 3 14 10q18 16 29 17q4 0 16 -4q12 -10 17 -11l43 -5l22 -9l19 -1q3 0 23 -21q4 -4 29 -19q71 -43 130.5 -173.5t59.5 -243.5q0 -338 -169 -492q-47 -43 -48 -47l-1 -12q-1 -13 -36 -47l-24 -20l-111 -99q-97 -88 -199 -119h-2l-17 -15 q-21 -18 -91 -18q-112 0 -142 28l-20 19l-29 22q-54 49 -67 190l-2 16l-8 82l5 39q5 23 5 28l-2 36q-1 13 5 33l13 40q4 15 4 50q0 17 -7 17q-8 0 -23 -31q-9 -20 -18 -22q-34 -9 -34 35zM264 439q0 -264 144 -280q77 -8 196 78.5t164 182.5l65 139l13 22q33 69 40 214 q1 18 -8 42q-5 14 -5 16l7 43q0 1 -2 5q-1 2 -2 3l-13 16q-2 2 -4 12q-55 204 -215 217l-51 -7l-24 -4l-25 -12l-97 -44q-19 -8 -50 -45l-19 -24l-28 -33q-25 -32 -38 -109q-2 -13 -15 -77q-27 -131 -27 -188l-2 -59l-3 -81zM369 1527l7 25q7 11 19 16l22 8q5 2 59 33 q37 21 84 34l77 22q28 8 38 8q17 0 40 -22q10 -28 10 -48q0 -47 24 -47q71 0 119 30q65 42 79 43q22 2 22 -29q0 -77 -184 -107l-59 -9q-41 -7 -60 -7q-40 0 -40 47q0 60 -38 60q-20 0 -105 -44l-78 -40l-25 -12z" />
<glyph unicode="&#xd6;" horiz-adv-x="1070" d="M33 587q0 9 2 16l7 25q2 6 4 22q-2 7 -2 10q0 28 54 110q17 25 19 30l27 62l7 9q9 15 24 57l19 56l9 32q11 34 22 56l17 35l27 89q7 24 16 34l21 26l19 40q18 34 60 53l10 4l21 -15q12 -12 13 -25q2 -32 -35 -95q-9 -16 -9 -31t9 -16q4 -1 22 22q5 6 21 19q13 11 37 33 q68 61 97 69l74 19l4 1q6 3 14 10q18 16 29 17q4 0 16 -4q12 -10 17 -11l43 -5l22 -9l19 -1q3 0 23 -21q4 -4 29 -19q71 -43 130.5 -173.5t59.5 -243.5q0 -338 -169 -492q-47 -43 -48 -47l-1 -12q-1 -13 -36 -47l-24 -20l-111 -99q-97 -88 -199 -119h-2l-17 -15 q-21 -18 -91 -18q-112 0 -142 28l-20 19l-29 22q-54 49 -67 190l-2 16l-8 82l5 39q5 23 5 28l-2 36q-1 13 5 33l13 40q4 15 4 50q0 17 -7 17q-8 0 -23 -31q-9 -20 -18 -22q-34 -9 -34 35zM264 439q0 -264 144 -280q77 -8 196 78.5t164 182.5l65 139l13 22q33 69 40 214 q1 18 -8 42q-5 14 -5 16l7 43q0 1 -2 5q-1 2 -2 3l-13 16q-2 2 -4 12q-55 204 -215 217l-51 -7l-24 -4l-25 -12l-97 -44q-19 -8 -50 -45l-19 -24l-28 -33q-25 -32 -38 -109q-2 -13 -15 -77q-27 -131 -27 -188l-2 -59l-3 -81zM503 1589q0 39 57.5 98t96.5 59q80 0 80 -51 q0 -4 -1 -11q-11 -63 -24 -82l-21 -31q-48 -69 -59 -73q-44 -17 -86.5 13t-42.5 78zM807 1572q0 93 60 116l25 10q2 0 8 8q32 37 57 37q73 0 73 -78q0 -43 -56 -129q-44 -35 -92 -35q-75 0 -75 71z" />
<glyph unicode="&#xd7;" d="M88 307q1 15 31 37q32 25 72 64l69 65q42 52 62 56q9 1 17 14l19 18l22 22q6 6 30 25q3 1 7 5q-16 19 -24 27l-7 6l-3 4l-1 10l-5 2q-5 0 -7 2l-6 8q-4 4 -5 7l-5 9l-6 1q-13 1 -30 34q-16 29 -60 66q-21 18 -50 53q-22 27 -41 46q-25 24 -25 39q0 8 10 17l18 14l46 43 q13 12 21 12q14 -1 34 -28q31 -40 57 -67q42 -41 43 -43l37 -45l30 -32l13 -16q6 -7 17 -17q18 -18 20 -21l23 -28q2 -2 11 -12q32 29 49 44q64 55 79 76l18 24l32 34l16 19q4 4 28 20q48 31 99 79q8 8 16 11l2 1l18 -23q9 -23 24 -30q11 -5 15 -14q10 -4 19 -16q1 -4 1 -7 q0 -11 -85 -82q-12 -9 -23 -21l-23 -25q-4 -5 -6 -6l-32 -23q-12 -9 -22 -19l-25 -26l-31 -28l-45 -42l-27 -20q-4 -4 -19 -20q25 -27 37 -41q59 -67 108 -103q33 -24 52 -56q33 -57 62 -82q17 -15 19 -26q1 -5 -4 -8l-46 -33q-4 -3 -22 -23q-5 -11 -18 -20q-5 -2 -7 -2 q-10 0 -29 27l-46 51q-10 13 -19 21l-29 26l-3 5q-32 43 -35 46l-23 23l-26 28l-39 41q-7 8 -29 36q-17 -16 -26 -24l-3 -2l-8 -8l-10 -2l-9 -15l-18 -12q-3 -1 -17 -19q-5 -7 -26 -24q-7 -6 -33 -31q-13 -11 -39 -35q-38 -37 -57 -54q-35 -30 -45 -41q-27 -32 -44 -34 q-8 -1 -19 11l-33 40l-18 18q-11 11 -10 19z" />
<glyph unicode="&#xd8;" horiz-adv-x="1054" d="M60 310l1 30l1 62l4 49q4 56 17 90q12 152 46 217l13 25q3 6 7 23q16 72 32 102q13 27 22 45q10 20 22 32q9 31 19 46l4 6l28 43q27 42 68 74l27 20l30 32l29 21l27 26q9 9 44 31l33 22q52 37 70 38l32 2l24 20q5 4 8 4q8 0 32 -11q7 -3 13 -4l36 -3l26 -10q14 -5 28 -5 t29 39q19 51 69 54q31 2 39 -66l2 -21l-7 -47l7 -22q5 -13 5 -18q-1 -10 -15 -42q-2 -4 -2 -6q0 -4 5 -10l23 -31q70 -97 77 -224l3 -52q1 -17 1 -26l-5 -49l-5 -58q-18 -195 -169 -381q-41 -32 -43 -41l-3 -15q-3 -11 -39 -45q-21 -20 -27 -26l-24 -27q-10 -11 -21 -20 l-60 -44l-21 -25q-56 -66 -151 -89l-36 -9l-24 -15q-23 -16 -87 -16q-33 0 -51 3l-41 7q-3 1 -6 1q-15 0 -37 -38q-12 -21 -29 -44q-13 -18 -17 -25q-9 -15 -18 -15q-27 0 -29 31l-3 49l-3 29l12 21l17 52q3 7 3 14q0 6 -3 10l-17 25q-4 5 -10 26l-16 47q-16 49 -16 112z M231 437q0 -6 9 -47q2 -13 6 -38q14 8 28 38q8 18 28 49q17 26 21 35l16 32q13 26 61 98q22 32 43 65q52 83 65 101q28 39 30 44l34 72q7 15 44 78q22 38 38 71q23 49 37 69q12 18 12 22q-4 32 -94 32q-146 0 -252 -129l-23 -28q-15 -19 -38 -84l-11 -33l-9 -44l-8 -34 l-9 -54l-14 -84q-3 -21 -6 -58l-4 -62q-1 -19 -1 -25l1 -45zM329 188q0 -29 67 -29q84 0 176 70q10 9 14 13q14 15 15 17l26 17l18 22q3 4 32 28q91 74 128 205q8 29 18 42q12 17 13 28q3 31 26 123q6 26 6 43q0 24 -4 53q-4 30 -4 36l2 40q0 4 -3 12q-4 7 -16 25 q-7 11 -8 20q-3 20 -9 20q-8 -1 -15 -14l-28 -56q-14 -29 -56 -89q-32 -46 -40 -59l-59 -94l-27 -34q-26 -34 -57 -86q-68 -115 -90 -144q-50 -65 -52 -69l-54 -103l-16 -26q-3 -5 -3 -11z" />
<glyph unicode="&#xd9;" horiz-adv-x="1032" d="M107 908l2 48q12 160 12 172v31q0 18 6 69l7 69q11 94 57 99q20 2 28 -18l12 -30q3 -7 10 -12l34 -26q39 -29 39 -97q0 -31 -8 -67q-17 -74 -17 -95v-1q0 -104 -14 -142l-11 -31l7 -50q1 -5 1 -18l-4 -109q0 -24 1 -35l3 -43q5 -55 5 -59l7 -33l1 -18q0 -4 13 -50l17 -67 l5 -11q53 -123 117 -126q63 -3 119 100q6 10 10 18l42 61q14 21 19 37l35 116q3 10 7 20l39 107q1 2 9 43t20 82l11 33q16 52 37 170l5 30l21 99l4 23q8 32 34 93q9 20 12 30l11 51l12 21l22 56q23 49 83 49q29 0 29 -40q0 -5 4 -41q2 -12 2 -18q0 -14 -3 -42q-1 -8 -4 -48 q-4 -54 -11 -107l-4 -34l-6 -45q-3 -19 -37 -150q-6 -24 -10 -42q-8 -43 -11 -52l-11 -28l-16 -72l-9 -24q-1 -5 -2 -17l-3 -41q-1 -13 -9 -42q-22 -70 -27 -128l-2 -21l-11 -60l-3 -42q-1 -1 -4 -15q-18 -78 -18 -132l-1 -22l6 -53l21 -27q4 -4 4 -11q0 -4 -2 -7l-1 -3 l-30 -44l-40 -42l-14 -17q-22 -26 -59 -26q-41 0 -52 70v3l7 21v3l-6 19l-1 4l13 35l1 4l-11 26l-1 3l9 29q2 5 2 6l-3 17v4l4 50l9 30q3 9 3 20q0 21 -7 22t-19 -19l-19 -32l-20 -34q-6 -10 -9 -13l-17 -19l-4 -16l-15 -20l-9 -12q-66 -89 -132 -109l-33 -8l-18 -7 q-9 -4 -17 -4q-83 0 -111 38l-28 33l-9 14l-7 10l-20 47l-7 10q-10 14 -16 40l-5 19l-10 40l-14 75q-8 38 -8 45q0 4 3 21q-19 122 -19 136q0 8 4 80v7l-5 55q-2 20 -2 120zM443 1739q0 60 50 55q20 -2 45 -33q54 -67 67 -76l27 -17l36 -36q19 -19 77 -47q45 -21 67 -26 q51 -12 51 -33q0 -18 -17 -22l-30 5l-54 8q-6 1 -65 30l-50 23l-19 12l-34 21l-19 15q-5 3 -39 14q-93 30 -93 107z" />
<glyph unicode="&#xda;" horiz-adv-x="1032" d="M107 908l2 48q12 160 12 172v31q0 18 6 69l7 69q11 94 57 99q20 2 28 -18l12 -30q3 -7 10 -12l34 -26q39 -29 39 -97q0 -31 -8 -67q-17 -74 -17 -95v-1q0 -104 -14 -142l-11 -31l7 -50q1 -5 1 -18l-4 -109q0 -24 1 -35l3 -43q5 -55 5 -59l7 -33l1 -18q0 -4 13 -50l17 -67 l5 -11q53 -123 117 -126q63 -3 119 100q6 10 10 18l42 61q14 21 19 37l35 116q3 10 7 20l39 107q1 2 9 43t20 82l11 33q16 52 37 170l5 30l21 99l4 23q8 32 34 93q9 20 12 30l11 51l12 21l22 56q23 49 83 49q29 0 29 -40q0 -5 4 -41q2 -12 2 -18q0 -14 -3 -42q-1 -8 -4 -48 q-4 -54 -11 -107l-4 -34l-6 -45q-3 -19 -37 -150q-6 -24 -10 -42q-8 -43 -11 -52l-11 -28l-16 -72l-9 -24q-1 -5 -2 -17l-3 -41q-1 -13 -9 -42q-22 -70 -27 -128l-2 -21l-11 -60l-3 -42q-1 -1 -4 -15q-18 -78 -18 -132l-1 -22l6 -53l21 -27q4 -4 4 -11q0 -4 -2 -7l-1 -3 l-30 -44l-40 -42l-14 -17q-22 -26 -59 -26q-41 0 -52 70v3l7 21v3l-6 19l-1 4l13 35l1 4l-11 26l-1 3l9 29q2 5 2 6l-3 17v4l4 50l9 30q3 9 3 20q0 21 -7 22t-19 -19l-19 -32l-20 -34q-6 -10 -9 -13l-17 -19l-4 -16l-15 -20l-9 -12q-66 -89 -132 -109l-33 -8l-18 -7 q-9 -4 -17 -4q-83 0 -111 38l-28 33l-9 14l-7 10l-20 47l-7 10q-10 14 -16 40l-5 19l-10 40l-14 75q-8 38 -8 45q0 4 3 21q-19 122 -19 136q0 8 4 80v7l-5 55q-2 20 -2 120zM448 1508q2 32 54 54q37 29 57 36l24 8q6 2 32 20l28 19l26 20l72 48l17 11q14 10 16 12l15 24 q10 17 34 17q36 0 36 -76q0 -71 -112 -106l-80 -25q-51 -16 -103 -42l-16 -8l-56 -22l-26 -10l-11 5q-8 6 -7 15z" />
<glyph unicode="&#xdb;" horiz-adv-x="1032" d="M107 908l2 48q12 160 12 172v31q0 18 6 69l7 69q11 94 57 99q20 2 28 -18l12 -30q3 -7 10 -12l34 -26q39 -29 39 -97q0 -31 -8 -67q-17 -74 -17 -95v-1q0 -104 -14 -142l-11 -31l7 -50q1 -5 1 -18l-4 -109q0 -24 1 -35l3 -43q5 -55 5 -59l7 -33l1 -18q0 -4 13 -50l17 -67 l5 -11q53 -123 117 -126q63 -3 119 100q6 10 10 18l42 61q14 21 19 37l35 116q3 10 7 20l39 107q1 2 9 43t20 82l11 33q16 52 37 170l5 30l21 99l4 23q8 32 34 93q9 20 12 30l11 51l12 21l22 56q23 49 83 49q29 0 29 -40q0 -5 4 -41q2 -12 2 -18q0 -14 -3 -42q-1 -8 -4 -48 q-4 -54 -11 -107l-4 -34l-6 -45q-3 -19 -37 -150q-6 -24 -10 -42q-8 -43 -11 -52l-11 -28l-16 -72l-9 -24q-1 -5 -2 -17l-3 -41q-1 -13 -9 -42q-22 -70 -27 -128l-2 -21l-11 -60l-3 -42q-1 -1 -4 -15q-18 -78 -18 -132l-1 -22l6 -53l21 -27q4 -4 4 -11q0 -4 -2 -7l-1 -3 l-30 -44l-40 -42l-14 -17q-22 -26 -59 -26q-41 0 -52 70v3l7 21v3l-6 19l-1 4l13 35l1 4l-11 26l-1 3l9 29q2 5 2 6l-3 17v4l4 50l9 30q3 9 3 20q0 21 -7 22t-19 -19l-19 -32l-20 -34q-6 -10 -9 -13l-17 -19l-4 -16l-15 -20l-9 -12q-66 -89 -132 -109l-33 -8l-18 -7 q-9 -4 -17 -4q-83 0 -111 38l-28 33l-9 14l-7 10l-20 47l-7 10q-10 14 -16 40l-5 19l-10 40l-14 75q-8 38 -8 45q0 4 3 21q-19 122 -19 136q0 8 4 80v7l-5 55q-2 20 -2 120zM384 1546q6 13 9 19q12 32 30 42l21 10q11 6 66 47q90 67 118 67q17 0 61 -30q28 -18 81 -42 q84 -36 90 -76l3 -21l4 -22l-20 -21l-35 12q-3 1 -22 10q-56 24 -85 44l-34 23q-25 17 -45 17q-28 0 -56 -19l-18 -12l-32 -17q-12 -6 -26 -16q-47 -34 -81 -34q-27 0 -29 19z" />
<glyph unicode="&#xdc;" horiz-adv-x="1032" d="M107 908l2 48q12 160 12 172v31q0 18 6 69l7 69q11 94 57 99q20 2 28 -18l12 -30q3 -7 10 -12l34 -26q39 -29 39 -97q0 -31 -8 -67q-17 -74 -17 -95v-1q0 -104 -14 -142l-11 -31l7 -50q1 -5 1 -18l-4 -109q0 -24 1 -35l3 -43q5 -55 5 -59l7 -33l1 -18q0 -4 13 -50l17 -67 l5 -11q53 -123 117 -126q63 -3 119 100q6 10 10 18l42 61q14 21 19 37l35 116q3 10 7 20l39 107q1 2 9 43t20 82l11 33q16 52 37 170l5 30l21 99l4 23q8 32 34 93q9 20 12 30l11 51l12 21l22 56q23 49 83 49q29 0 29 -40q0 -5 4 -41q2 -12 2 -18q0 -14 -3 -42q-1 -8 -4 -48 q-4 -54 -11 -107l-4 -34l-6 -45q-3 -19 -37 -150q-6 -24 -10 -42q-8 -43 -11 -52l-11 -28l-16 -72l-9 -24q-1 -5 -2 -17l-3 -41q-1 -13 -9 -42q-22 -70 -27 -128l-2 -21l-11 -60l-3 -42q-1 -1 -4 -15q-18 -78 -18 -132l-1 -22l6 -53l21 -27q4 -4 4 -11q0 -4 -2 -7l-1 -3 l-30 -44l-40 -42l-14 -17q-22 -26 -59 -26q-41 0 -52 70v3l7 21v3l-6 19l-1 4l13 35l1 4l-11 26l-1 3l9 29q2 5 2 6l-3 17v4l4 50l9 30q3 9 3 20q0 21 -7 22t-19 -19l-19 -32l-20 -34q-6 -10 -9 -13l-17 -19l-4 -16l-15 -20l-9 -12q-66 -89 -132 -109l-33 -8l-18 -7 q-9 -4 -17 -4q-83 0 -111 38l-28 33l-9 14l-7 10l-20 47l-7 10q-10 14 -16 40l-5 19l-10 40l-14 75q-8 38 -8 45q0 4 3 21q-19 122 -19 136q0 8 4 80v7l-5 55q-2 20 -2 120zM375 1589q0 39 57.5 98t96.5 59q80 0 80 -51q0 -4 -1 -11q-11 -63 -24 -82l-21 -31 q-48 -69 -59 -73q-44 -17 -86.5 13t-42.5 78zM679 1572q0 93 60 116l25 10q2 0 8 8q32 37 57 37q73 0 73 -78q0 -43 -56 -129q-44 -35 -92 -35q-75 0 -75 71z" />
<glyph unicode="&#xdd;" horiz-adv-x="755" d="M41 1249v5q0 90 59 84l20 -2q1 0 5 1q24 7 43 19q18 12 26 12q64 0 68 -74l5 -83l-5 -55q-3 -29 -3 -52q0 -10 5 -34q6 -29 14 -122q4 -50 9 -67l11 -32q2 -7 5 -30q4 -34 13 -66q12 -39 13 -52q2 -29 5 -33l16 -22l16 -33q4 -6 8 -5q8 1 50 89q6 11 13 23q7 22 10 30 l21 41l33 77l24 40l12 43q5 18 29 63q12 24 35 72q7 11 11 17q8 12 9 14l11 33q2 7 24 40l27 47l31 51l14 23l28 45l19 31q16 25 31 26q44 3 44 -59l-2 -48l1 -39q0 -16 -2 -22l-13 -35l-15 -64l-27 -77q-15 -50 -17 -52l-17 -21l-3 -5l-5 -38q-2 -15 -13 -24l-11 -10 q-3 -3 -4 -10l-2 -15q-1 -11 -14 -30l-20 -30q-17 -24 -27 -44l-19 -36l-21 -33l-45 -75q-18 -30 -21 -36l-4 -8l-17 -22l-1 -3l-2 -27q0 -9 -25 -51q-7 -13 -30 -69l-20 -47l-5 -13q-7 -16 -17 -33l-5 -10q-10 -21 -29 -102l-7 -33l-9 -41q-3 -19 -4 -33t8 -27 q15 -24 16 -31q2 -23 -58 -58l-35 -15l-13 -10q-8 -6 -20 -8h-5l-46 9l-37 7q-22 9 -22 30q0 1 6 26q0 2 2 12q11 86 37 121l19 26l1 4l-6 20l-1 4l10 36q1 3 4 15q9 33 22 53l6 9q13 21 16 33l10 34l7 27l-24 19q-9 6 -25 27l-8 11q-22 29 -27 46l-6 25q-5 20 -25 52 q-16 26 -24 55l-16 55l-9 18l-8 38l-25 85l-2 20q0 5 -1 8l-13 31l-2 22q0 4 -7 32q-9 39 -9 57q0 36 -2 40l-5 15l8 23l-14 18q-2 2 -3 4l-4 54zM323 1508q2 32 54 54q37 29 57 36l24 8q6 2 32 20l28 19l26 20l72 48l17 11q14 10 16 12l15 24q10 17 34 17q36 0 36 -76 q0 -71 -112 -106l-80 -25q-51 -16 -103 -42l-16 -8l-56 -22l-26 -10l-11 5q-8 6 -7 15z" />
<glyph unicode="&#xde;" horiz-adv-x="906" d="M9 181q0 19 15 26l42 22q25 13 27 48l4 82q0 9 3 34q4 33 4 46v17l8 47l4 51l8 34l-4 34l11 55l17 104l4 23l7 56l7 29l17 101q7 45 18 84l15 55l3 10q-11 3 -13 4l-39 9q-63 16 -66 51q-1 10 27 42l6 8q44 55 77 73q10 5 12 8l9 11l10 3q15 6 21 6t20 -4q11 -3 32 -7 q8 14 11 21l18 41l21 19l9 8q6 5 14 7l18 2l22 17q22 15 42 15q29 0 29 -41q0 -55 -23 -142q-5 -16 -8 -32q16 -11 23 -13l29 -10q3 -1 28 -27q15 -16 31 -23l20 -10l33 -45l17 -7l46 -49l10 -10q106 -102 122 -229l2 -17l11 -47q9 -40 9 -91q0 -92 -24 -144l-22 -48l-7 -19 l-22 -28l-24 -31q-6 -8 -22 -18l-40 -25l-13 -14q-6 -7 -13 -11l-22 -12l-29 -17q-21 -12 -95 -43q-61 -25 -70 -29l-19 -9l-41 -17q-11 -5 -48 -21q-51 -23 -80 -25q-37 -4 -37 -32q0 -72 13 -83l20 -16q8 -7 8 -15q0 -5 -3 -10l-11 -17l-29 -46q-42 -65 -80 -63 q-64 3 -64 127q0 18 1 36q2 21 2 30q0 41 -23 54l-6 4q-40 24 -40 43zM246 291q-1 -14 15 -13q33 2 75 24q12 6 19 10l83 36l19 14l30 14q35 17 55 36l26 23q8 7 22 15l23 13q65 62 65 166q0 17 -9 51q-6 24 -14 61q-13 58 -27 80l-9 14l-72 112q-3 3 -26 20q-35 24 -55 46 q-38 40 -39 41l-35 27q-12 8 -13 8q-7 -1 -8 -11q-1 -9 3 -20q7 -20 6 -36q-2 -38 -19 -91q-24 -81 -33 -136q-22 -129 -31 -155l-3 -7q-11 -28 -20 -106q-2 -19 -6 -46q-11 -83 -11 -110q0 -42 -6 -60q-5 -12 -5 -20z" />
<glyph unicode="&#xdf;" horiz-adv-x="748" d="M-35 298q3 5 4 6l4 11q27 60 78 90l33 19l8 7q0 18 4 45q6 39 12 81q4 33 15 72q9 37 11 50l15 112l9 70l2 24l25 92l9 49q32 172 181 293q5 4 9 7l40 34q50 42 121 42q31 0 37 -1l28 -4l22 1l7 -2q75 -17 113 -58l24 -27l11 -10q27 -29 27 -112q0 -105 -119 -217 l-16 -16l-74 -56q-65 -50 -65 -97q0 -24 22 -45l82 -78q35 -32 44 -86l9 -48l-1 -17q-16 -133 -99 -239l-48 -64l-31 -25l-33 -30q-98 -86 -165 -86q-81 0 -81 55q0 10 23 22l41 25l29 15q9 6 34 33l69 75q78 84 78 249q0 37 -9 51l-22 31l-30 55q-1 3 -10 10q-59 46 -59 95 q0 17 5 33l2 5q6 12 25 28q13 12 40 41l30 32l22 22q6 7 8 10l18 25l27 33l39 55l15 18q29 35 29 87q0 78 -58 78q-81 0 -166 -113l-17 -22q-54 -72 -84 -278q-12 -86 -29 -120q-6 -10 -6 -29q0 -54 -15 -106l-11 -38q-7 -23 -7 -38v-16l-27 -145q-9 -59 -10 -68l-22 -109 q-4 -22 -4 -38l-1 -21q0 -52 -13 -114l-13 -60q-2 -11 -4 -33l-1 -12q-9 -130 -23 -205l-3 -13l-5 -35q-20 -117 -63 -119q-59 -3 -54 97l1 11l2 30l3 18l4 72l1 13l-2 44l6 40q9 46 9 78l1 21l12 101l1 17q0 7 5 28q3 17 6 51q2 26 8 71q4 29 5 41v6q-8 -1 -10 -2l-26 -26 q-8 -6 -10 -11l-6 -15q-2 -5 -12 -14q-1 13 -9 22q-16 23 -21 50q-2 12 -10 19z" />
<glyph unicode="&#xe0;" horiz-adv-x="769" d="M-41 86q0 32 20 69l5 8l20 22q2 2 2 11v11q-2 13 -9 22q-17 23 -21 50q-2 12 -10 19q3 4 5 6l1 2q8 10 11 15l13 21l91 61q7 5 26 36q17 26 31 32l16 7q3 2 20 25q11 17 40 35q51 34 66 48l37 35q26 26 50 42l24 16l21 18l24 13l20 15q42 32 99 32q54 0 51 -46 q-3 -48 -53 -77l-23 -14q-6 -3 -9 -8l-20 -30q-2 -2 -26 -23l-23 -19l-24 -19q-4 -3 -17 -22q-16 -23 -32 -33q-23 -14 -24 -16l-11 -20q-3 -4 -20 -17q-20 -15 -54 -55q-19 -23 -49 -49q-24 -21 -32 -35l-20 -35l-18 -29l6 -8l5 2q75 41 135 101q33 34 46 42l25 15l4 3 l33 39q14 17 41 35l42 30q12 4 44 4q45 0 45 -86l-2 -76q0 -23 9 -42q20 -41 57 -41q15 0 27 12l35 39l19 12q2 1 6 7q9 -7 10 -19q4 -25 22 -50q8 -12 8 -22q-28 -22 -55 -50q-80 -83 -154 -83q-131 0 -139 149q-2 36 -14 38q-5 1 -25 -25q-10 -13 -42 -34q-28 -19 -36 -27 l-61 -62q-54 -54 -95 -76l-42 -23q-46 -25 -60 -24q-92 5 -92 96zM360 1087q0 18 26 27q4 14 9 18l16 5q6 2 11 2q35 0 40 -44q13 -13 17 -19l11 -26q14 -35 41 -64l19 -21l14 -20q12 -16 37 -35l23 -16l25 -26q29 -27 30 -30v-13v-5q0 -26 -18 -24q-1 0 -14 8l-33 16 l-10 12q-3 3 -41 24q-17 9 -35 28q-52 54 -54 55l-45 27q-55 34 -61 67l-6 42q-2 9 -2 12z" />
<glyph unicode="&#xe1;" horiz-adv-x="769" d="M-41 86q0 32 20 69l5 8l20 22q2 2 2 11v11q-2 13 -9 22q-17 23 -21 50q-2 12 -10 19q3 4 5 6l1 2q8 10 11 15l13 21l91 61q7 5 26 36q17 26 31 32l16 7q3 2 20 25q11 17 40 35q51 34 66 48l37 35q26 26 50 42l24 16l21 18l24 13l20 15q42 32 99 32q54 0 51 -46 q-3 -48 -53 -77l-23 -14q-6 -3 -9 -8l-20 -30q-2 -2 -26 -23l-23 -19l-24 -19q-4 -3 -17 -22q-16 -23 -32 -33q-23 -14 -24 -16l-11 -20q-3 -4 -20 -17q-20 -15 -54 -55q-19 -23 -49 -49q-24 -21 -32 -35l-20 -35l-18 -29l6 -8l5 2q75 41 135 101q33 34 46 42l25 15l4 3 l33 39q14 17 41 35l42 30q12 4 44 4q45 0 45 -86l-2 -76q0 -23 9 -42q20 -41 57 -41q15 0 27 12l35 39l19 12q2 1 6 7q9 -7 10 -19q4 -25 22 -50q8 -12 8 -22q-28 -22 -55 -50q-80 -83 -154 -83q-131 0 -139 149q-2 36 -14 38q-5 1 -25 -25q-10 -13 -42 -34q-28 -19 -36 -27 l-61 -62q-54 -54 -95 -76l-42 -23q-46 -25 -60 -24q-92 5 -92 96zM431 831q0 41 59 78l14 9q4 3 16 17q27 37 62 67q11 8 14 18q54 52 58 67l9 30q5 16 31 16q27 0 37 -41q4 -16 5 -19q9 -31 9 -36q0 -54 -56 -83l-25 -13q-18 -10 -40 -27q-19 -15 -23 -17l-34 -19l-42 -34 l-37 -25q-23 -17 -34 -17q-23 0 -23 29z" />
<glyph unicode="&#xe2;" horiz-adv-x="769" d="M-41 86q0 32 20 69l5 8l20 22q2 2 2 11v11q-2 13 -9 22q-17 23 -21 50q-2 12 -10 19q3 4 5 6l1 2q8 10 11 15l13 21l91 61q7 5 26 36q17 26 31 32l16 7q3 2 20 25q11 17 40 35q51 34 66 48l37 35q26 26 50 42l24 16l21 18l24 13l20 15q42 32 99 32q54 0 51 -46 q-3 -48 -53 -77l-23 -14q-6 -3 -9 -8l-20 -30q-2 -2 -26 -23l-23 -19l-24 -19q-4 -3 -17 -22q-16 -23 -32 -33q-23 -14 -24 -16l-11 -20q-3 -4 -20 -17q-20 -15 -54 -55q-19 -23 -49 -49q-24 -21 -32 -35l-20 -35l-18 -29l6 -8l5 2q75 41 135 101q33 34 46 42l25 15l4 3 l33 39q14 17 41 35l42 30q12 4 44 4q45 0 45 -86l-2 -76q0 -23 9 -42q20 -41 57 -41q15 0 27 12l35 39l19 12q2 1 6 7q9 -7 10 -19q4 -25 22 -50q8 -12 8 -22q-28 -22 -55 -50q-80 -83 -154 -83q-131 0 -139 149q-2 36 -14 38q-5 1 -25 -25q-10 -13 -42 -34q-28 -19 -36 -27 l-61 -62q-54 -54 -95 -76l-42 -23q-46 -25 -60 -24q-92 5 -92 96zM291 856q4 67 168 196q25 19 30 25l13 15q10 13 34 14q13 1 48 -37l55 -59q65 -69 67 -71q42 -22 42 -44q0 -5 1 -20q1 -7 1 -11q0 -33 -26 -33q-16 0 -44 16l-36 22q-49 29 -99 94q-19 25 -29 24 q-15 -2 -34 -23l-25 -29q-84 -95 -139 -100q-28 -2 -27 21z" />
<glyph unicode="&#xe3;" horiz-adv-x="768" d="M-41 86q0 32 20 69l5 8l20 22q2 2 2 11v11q-2 13 -9 22q-17 23 -21 50q-2 12 -10 19q3 4 5 6l1 2q8 10 11 15l13 21l91 61q7 5 26 36q17 26 31 32l16 7q3 2 20 25q11 17 40 35q51 34 66 48l37 35q26 26 50 42l24 16l21 18l24 13l20 15q42 32 99 32q54 0 51 -46 q-3 -48 -53 -77l-23 -14q-6 -3 -9 -8l-20 -30q-2 -2 -26 -23l-23 -19l-24 -19q-4 -3 -17 -22q-16 -23 -32 -33q-23 -14 -24 -16l-11 -20q-3 -4 -20 -17q-20 -15 -54 -55q-19 -23 -49 -49q-24 -21 -32 -35l-20 -35l-18 -29l6 -8l5 2q75 41 135 101q33 34 46 42l25 15l4 3 l33 39q14 17 41 35l42 30q12 4 44 4q45 0 45 -86l-2 -76q0 -23 9 -42q20 -41 57 -41q15 0 27 12l35 39l19 12q2 1 6 7q9 -7 10 -19q4 -25 22 -50q8 -12 8 -22q-28 -22 -55 -50q-80 -83 -154 -83q-131 0 -139 149q-2 36 -14 38q-5 1 -25 -25q-10 -13 -42 -34q-28 -19 -36 -27 l-61 -62q-54 -54 -95 -76l-42 -23q-46 -25 -60 -24q-92 5 -92 96zM372 877q0 40 50 88l53 51l59 38l23 16q22 13 33 12q22 -2 45 -45q15 -23 20 -35q20 -43 29 -43q6 0 16 9l35 29q19 17 21 18l28 12q6 3 26 27q26 31 42 31q45 0 41 -43q-5 -52 -112 -105q-42 -21 -68 -43 q-51 -43 -77 -41q-19 1 -58 80q-14 30 -30 30q-2 0 -7 -3l-49 -29l-9 -14q-38 -64 -89 -67q-22 -1 -22 27z" />
<glyph unicode="&#xe4;" horiz-adv-x="769" d="M-41 86q0 32 20 69l5 8l20 22q2 2 2 11v11q-2 13 -9 22q-17 23 -21 50q-2 12 -10 19q3 4 5 6l1 2q8 10 11 15l13 21l91 61q7 5 26 36q17 26 31 32l16 7q3 2 20 25q11 17 40 35q51 34 66 48l37 35q26 26 50 42l24 16l21 18l24 13l20 15q42 32 99 32q54 0 51 -46 q-3 -48 -53 -77l-23 -14q-6 -3 -9 -8l-20 -30q-2 -2 -26 -23l-23 -19l-24 -19q-4 -3 -17 -22q-16 -23 -32 -33q-23 -14 -24 -16l-11 -20q-3 -4 -20 -17q-20 -15 -54 -55q-19 -23 -49 -49q-24 -21 -32 -35l-20 -35l-18 -29l6 -8l5 2q75 41 135 101q33 34 46 42l25 15l4 3 l33 39q14 17 41 35l42 30q12 4 44 4q45 0 45 -86l-2 -76q0 -23 9 -42q20 -41 57 -41q15 0 27 12l35 39l19 12q2 1 6 7q9 -7 10 -19q4 -25 22 -50q8 -12 8 -22q-28 -22 -55 -50q-80 -83 -154 -83q-131 0 -139 149q-2 36 -14 38q-5 1 -25 -25q-10 -13 -42 -34q-28 -19 -36 -27 l-61 -62q-54 -54 -95 -76l-42 -23q-46 -25 -60 -24q-92 5 -92 96zM286 922q0 47 57.5 107.5t101.5 60.5q70 0 73 -62q-35 -179 -166 -179q-66 0 -66 73zM527 913q0 89 58 115l27 12q7 3 12 11l15 21q12 18 36 17q79 -4 79 -78q0 -42 -56 -129q-48 -37 -81 -37q-90 0 -90 68z " />
<glyph unicode="&#xe5;" horiz-adv-x="769" d="M-41 86q0 32 20 69l5 8l20 22q2 2 2 11v11q-2 13 -9 22q-17 23 -21 50q-2 12 -10 19q3 4 5 6l1 2q8 10 11 15l13 21l91 61q7 5 26 36q17 26 31 32l16 7q3 2 20 25q11 17 40 35q51 34 66 48l37 35q26 26 50 42l24 16l21 18l24 13l20 15q42 32 99 32q54 0 51 -46 q-3 -48 -53 -77l-23 -14q-6 -3 -9 -8l-20 -30q-2 -2 -26 -23l-23 -19l-24 -19q-4 -3 -17 -22q-16 -23 -32 -33q-23 -14 -24 -16l-11 -20q-3 -4 -20 -17q-20 -15 -54 -55q-19 -23 -49 -49q-24 -21 -32 -35l-20 -35l-18 -29l6 -8l5 2q75 41 135 101q33 34 46 42l25 15l4 3 l33 39q14 17 41 35l42 30q12 4 44 4q45 0 45 -86l-2 -76q0 -23 9 -42q20 -41 57 -41q15 0 27 12l35 39l19 12q2 1 6 7q9 -7 10 -19q4 -25 22 -50q8 -12 8 -22q-28 -22 -55 -50q-80 -83 -154 -83q-131 0 -139 149q-2 36 -14 38q-5 1 -25 -25q-10 -13 -42 -34q-28 -19 -36 -27 l-61 -62q-54 -54 -95 -76l-42 -23q-46 -25 -60 -24q-92 5 -92 96zM415 912l15 75l5 43q4 21 16 45l18 33q30 59 70 59q14 0 19 2l34 18l27 6q15 4 22 4q95 0 95 -165q0 -91 -64.5 -161.5t-147.5 -70.5q-116 0 -109 112zM507 898q-1 -19 21 -19q34 0 62 83q10 30 17 48 q19 46 20 77q1 21 -24 21q-39 0 -52 -44l-27 -88q-16 -54 -17 -78z" />
<glyph unicode="&#xe6;" horiz-adv-x="1052" d="M-41 88q0 13 4 26l10 28l5 17q5 16 29 46l-2 2q-2 13 -9 22q-16 23 -21 50q-2 12 -10 19q3 4 5 6l1 2q0 7 2 9l9 6l7 13q2 3 6 8l11 12l71 46q8 5 15 14l28 34q5 6 16 14l15 11q2 1 29 30q15 18 35 31l30 20l56 47l50 39l46 39l63 44q28 20 36 22l23 3l42 7l44 -32 q3 -7 3 -15q-2 -42 -41 -67l-33 -21l-17 -22q-9 -13 -39 -40q-40 -36 -96 -97q-29 -30 -38 -39l-33 -30q-17 -16 -37 -39q-19 -22 -23 -26l-56 -58l-21 -37l-12 -14q-5 -6 -5 -13q0 -8 7 -9q3 0 8 2l22 9l30 26l33 26l32 31q15 14 33 27q46 33 49 38l33 39q6 8 24 22 q18 15 23 19q33 30 50 31q13 1 28 -12q10 -10 14 -10q10 -1 15 27q6 35 44 76l16 17q55 60 66 68l62 48l31 24q32 21 73 21q106 0 106 -123q0 -17 -3 -27l-18 -30l-34 -60q-39 -69 -160 -156l-40 -29q-33 -24 -31 -46q9 -101 121 -101q90 0 219 138l7 7q8 -7 10 -19 q4 -25 21 -50q9 -12 9 -22q-53 -49 -60 -58l-32 -41q-1 -1 -18 -13q-6 -4 -17 -12q-7 -2 -10 -5l-6 -6q-51 -56 -132 -56h-33l-58 -9l-28 5q-30 9 -45 21q-27 23 -62 40q-71 36 -71 147q0 79 -16 79q-1 0 -3 -1l-29 -19l-12 -6q-13 -8 -39 -32l-11 -11l-38 -31 q-24 -20 -53 -50l-14 -16q-18 -17 -60 -46q-18 -13 -37 -27q-23 -17 -34 -22l-16 -7l-53 -28l-18 -1l-15 -1l-28 8q-50 23 -50 79zM673 414q0 -15 12 -14q14 1 25 13l13 17l42 35q34 30 34 60q0 19 -12 19q-10 0 -22 -12l-12 -12q-2 -1 -8 -6q-19 -14 -24 -22l-9 -12 l-16 -18q-23 -26 -23 -48z" />
<glyph unicode="&#xe7;" horiz-adv-x="631" d="M-35 298l7 8q1 10 17 28l17 20l82 56l25 24l63 55q100 87 131 96q23 7 32 14l2 1l11 14q7 7 19 14l29 16q31 17 35 19l34 11q28 9 44 9q35 0 32 -31l-2 -23l3 -29q-5 -77 -125 -123l-23 -10q-3 0 -6 -3l-36 -35l-53 -36l-47 -38l-36 -27q-55 -48 -55 -130q0 -59 47 -77 l23 -8q24 -9 29 -9l76 22l18 2q10 2 29 16q40 30 53 38l59 32q19 10 26 18l46 48q4 5 25 18q9 -7 11 -19q4 -24 21 -49q8 -13 8 -23q-24 -18 -33 -28l-15 -17q-5 -5 -31 -21q-8 -5 -25 -16q-18 -16 -26 -19l-32 -13q-4 -2 -27 -25q-82 -83 -189 -94q-10 -14 -11 -16l-34 -43 q-20 -25 -23 -45v-9l160 36l13 -6q21 -13 21 -34q0 -46 -34 -77l-15 -13l-37 -48q-3 -3 -31 -12l-50 -17l-13 -3q-14 -4 -39 -14q-26 -10 -41 -10q-58 0 -58 55q0 12 29 14q184 45 180 78q-1 8 -14 8q-33 0 -72 -23q-32 -19 -65 -19q-46 0 -46 37q0 30 45 88q18 23 43 69 q-52 9 -65 19l-32 25l-25 17q-50 37 -50 123q0 7 7 34q1 6 4 19q-1 13 -9 23q-16 22 -21 49q-2 12 -10 19z" />
<glyph unicode="&#xe8;" horiz-adv-x="503" d="M-35 298q5 12 8 17l16 19l17 20q8 10 37 31q3 19 3 26l4 50q1 24 12 47l15 30l21 55q14 37 43 75l15 20q22 30 35 39l19 15l20 30l1 2l17 11l16 12q28 21 79 21q73 0 87 -67l3 -18l7 -28q1 -6 1 -16q0 -9 -6 -21q-5 -9 -8 -19l-9 -32q-18 -64 -87 -139l-21 -23l-31 -38 l-8 -8l-32 -31l-16 -15q-16 -16 -17 -33q-4 -64 52 -80l13 -4q28 -9 31 -9q1 0 19 2l29 3q5 0 18 5q27 9 29 10l4 1q12 3 17 7l11 10l32 16q2 1 7 7q8 -7 10 -19q4 -25 21 -50q8 -12 8 -22q-15 -15 -24 -21l-4 -3l-67 -57q-41 -33 -94 -33q-32 -18 -85 -18q-122 0 -153 117 q-13 46 -36 44q-19 -1 -39 -29q-1 13 -9 22q-16 23 -21 50q-2 12 -10 19zM188 482q-1 -14 12 -13t23 16l9 17l49 56q17 21 17 44q0 21 -14 21q-16 0 -54 -51l-4 -6q-36 -50 -38 -84zM227 1087q0 18 26 27q4 14 9 18l16 5q6 2 11 2q35 0 40 -44q13 -13 17 -19l11 -26 q14 -35 41 -64l19 -21l14 -20q12 -16 37 -35l23 -16l25 -26q29 -27 30 -30v-13v-5q0 -26 -18 -24q-1 0 -14 8l-33 16l-10 12q-3 3 -41 24q-17 9 -35 28q-52 54 -54 55l-45 27q-55 34 -61 67l-6 42q-2 9 -2 12z" />
<glyph unicode="&#xe9;" horiz-adv-x="503" d="M-35 298q5 12 8 17l16 19l17 20q8 10 37 31q3 19 3 26l4 50q1 24 12 47l15 30l21 55q14 37 43 75l15 20q22 30 35 39l19 15l20 30l1 2l17 11l16 12q28 21 79 21q73 0 87 -67l3 -18l7 -28q1 -6 1 -16q0 -9 -6 -21q-5 -9 -8 -19l-9 -32q-18 -64 -87 -139l-21 -23l-31 -38 l-8 -8l-32 -31l-16 -15q-16 -16 -17 -33q-4 -64 52 -80l13 -4q28 -9 31 -9q1 0 19 2l29 3q5 0 18 5q27 9 29 10l4 1q12 3 17 7l11 10l32 16q2 1 7 7q8 -7 10 -19q4 -25 21 -50q8 -12 8 -22q-15 -15 -24 -21l-4 -3l-67 -57q-41 -33 -94 -33q-32 -18 -85 -18q-122 0 -153 117 q-13 46 -36 44q-19 -1 -39 -29q-1 13 -9 22q-16 23 -21 50q-2 12 -10 19zM188 482q-1 -14 12 -13t23 16l9 17l49 56q17 21 17 44q0 21 -14 21q-16 0 -54 -51l-4 -6q-36 -50 -38 -84zM216 831q0 41 59 78l14 9q4 3 16 17q27 37 62 67q11 8 14 18q54 52 58 67l9 30q5 16 31 16 q27 0 37 -41q4 -16 5 -19q9 -31 9 -36q0 -54 -56 -83l-25 -13q-18 -10 -40 -27q-19 -15 -23 -17l-34 -19l-42 -34l-37 -25q-23 -17 -34 -17q-23 0 -23 29z" />
<glyph unicode="&#xea;" horiz-adv-x="503" d="M-35 298q5 12 8 17l16 19l17 20q8 10 37 31q3 19 3 26l4 50q1 24 12 47l15 30l21 55q14 37 43 75l15 20q22 30 35 39l19 15l20 30l1 2l17 11l16 12q28 21 79 21q73 0 87 -67l3 -18l7 -28q1 -6 1 -16q0 -9 -6 -21q-5 -9 -8 -19l-9 -32q-18 -64 -87 -139l-21 -23l-31 -38 l-8 -8l-32 -31l-16 -15q-16 -16 -17 -33q-4 -64 52 -80l13 -4q28 -9 31 -9q1 0 19 2l29 3q5 0 18 5q27 9 29 10l4 1q12 3 17 7l11 10l32 16q2 1 7 7q8 -7 10 -19q4 -25 21 -50q8 -12 8 -22q-15 -15 -24 -21l-4 -3l-67 -57q-41 -33 -94 -33q-32 -18 -85 -18q-122 0 -153 117 q-13 46 -36 44q-19 -1 -39 -29q-1 13 -9 22q-16 23 -21 50q-2 12 -10 19zM158 856q4 67 168 196q25 19 30 25l13 15q10 13 34 14q13 1 48 -37l55 -59q65 -69 67 -71q42 -22 42 -44q0 -5 1 -20q1 -7 1 -11q0 -33 -26 -33q-16 0 -44 16l-36 22q-49 29 -99 94q-19 25 -29 24 q-15 -2 -34 -23l-25 -29q-84 -95 -139 -100q-28 -2 -27 21zM188 482q-1 -14 12 -13t23 16l9 17l49 56q17 21 17 44q0 21 -14 21q-16 0 -54 -51l-4 -6q-36 -50 -38 -84z" />
<glyph unicode="&#xeb;" horiz-adv-x="503" d="M-35 298q5 12 8 17l16 19l17 20q8 10 37 31q3 19 3 26l4 50q1 24 12 47l15 30l21 55q14 37 43 75l15 20q22 30 35 39l19 15l20 30l1 2l17 11l16 12q28 21 79 21q73 0 87 -67l3 -18l7 -28q1 -6 1 -16q0 -9 -6 -21q-5 -9 -8 -19l-9 -32q-18 -64 -87 -139l-21 -23l-31 -38 l-8 -8l-32 -31l-16 -15q-16 -16 -17 -33q-4 -64 52 -80l13 -4q28 -9 31 -9q1 0 19 2l29 3q5 0 18 5q27 9 29 10l4 1q12 3 17 7l11 10l32 16q2 1 7 7q8 -7 10 -19q4 -25 21 -50q8 -12 8 -22q-15 -15 -24 -21l-4 -3l-67 -57q-41 -33 -94 -33q-32 -18 -85 -18q-122 0 -153 117 q-13 46 -36 44q-19 -1 -39 -29q-1 13 -9 22q-16 23 -21 50q-2 12 -10 19zM153 922q0 47 57.5 107.5t101.5 60.5q70 0 73 -62q-35 -179 -166 -179q-66 0 -66 73zM188 482q-1 -14 12 -13t23 16l9 17l49 56q17 21 17 44q0 21 -14 21q-16 0 -54 -51l-4 -6q-36 -50 -38 -84z M394 913q0 89 58 115l27 12q7 3 12 11l15 21q12 18 36 17q79 -4 79 -78q0 -42 -56 -129q-48 -37 -81 -37q-90 0 -90 68z" />
<glyph unicode="&#xec;" horiz-adv-x="572" d="M-35 298q5 5 5 6l3 11q2 4 16 19q3 3 17 20q15 18 100 91q26 22 37 38l19 26q21 29 49 29q94 0 105 -130q4 -40 10 -65l17 -63l3 -19q8 -45 51 -45q40 0 73 28l42 35q6 5 25 19q9 -7 10 -19q4 -25 21 -50q9 -12 9 -22q-28 -30 -43 -41l-21 -14l-30 -22q-5 -3 -22 -11 q-72 -60 -106 -57l-28 2l-24 -1q-75 0 -107 90l-16 47q-4 11 -21 32q-7 9 -10 15l-22 39q-3 6 -14 6q-34 0 -85 -59l-14 -16q-2 -2 -9 -10q-1 13 -9 22q-16 23 -21 50q-2 12 -10 19zM262 1087q0 18 26 27q4 14 9 18l16 5q6 2 11 2q35 0 40 -44q13 -13 17 -19l11 -26 q14 -35 41 -64l19 -21l14 -20q12 -16 37 -35l23 -16l25 -26q29 -27 30 -30v-13v-5q0 -26 -18 -24q-1 0 -14 8l-33 16l-10 12q-3 3 -41 24q-17 9 -35 28q-52 54 -54 55l-45 27q-55 34 -61 67l-6 42q-2 9 -2 12z" />
<glyph unicode="&#xed;" horiz-adv-x="572" d="M-35 298q5 5 5 6l3 11q2 4 16 19q3 3 17 20q15 18 100 91q26 22 37 38l19 26q21 29 49 29q94 0 105 -130q4 -40 10 -65l17 -63l3 -19q8 -45 51 -45q40 0 73 28l42 35q6 5 25 19q9 -7 10 -19q4 -25 21 -50q9 -12 9 -22q-28 -30 -43 -41l-21 -14l-30 -22q-5 -3 -22 -11 q-72 -60 -106 -57l-28 2l-24 -1q-75 0 -107 90l-16 47q-4 11 -21 32q-7 9 -10 15l-22 39q-3 6 -14 6q-34 0 -85 -59l-14 -16q-2 -2 -9 -10q-1 13 -9 22q-16 23 -21 50q-2 12 -10 19zM333 831q0 41 59 78l14 9q4 3 16 17q27 37 62 67q11 8 14 18q54 52 58 67l9 30q5 16 31 16 q27 0 37 -41q4 -16 5 -19q9 -31 9 -36q0 -54 -56 -83l-25 -13q-18 -10 -40 -27q-19 -15 -23 -17l-34 -19l-42 -34l-37 -25q-23 -17 -34 -17q-23 0 -23 29z" />
<glyph unicode="&#xee;" horiz-adv-x="572" d="M-35 298q5 5 5 6l3 11q2 4 16 19q3 3 17 20q15 18 100 91q26 22 37 38l19 26q21 29 49 29q94 0 105 -130q4 -40 10 -65l17 -63l3 -19q8 -45 51 -45q40 0 73 28l42 35q6 5 25 19q9 -7 10 -19q4 -25 21 -50q9 -12 9 -22q-28 -30 -43 -41l-21 -14l-30 -22q-5 -3 -22 -11 q-72 -60 -106 -57l-28 2l-24 -1q-75 0 -107 90l-16 47q-4 11 -21 32q-7 9 -10 15l-22 39q-3 6 -14 6q-34 0 -85 -59l-14 -16q-2 -2 -9 -10q-1 13 -9 22q-16 23 -21 50q-2 12 -10 19zM125 856q4 67 168 196q25 19 30 25l13 15q10 13 34 14q13 1 48 -37l55 -59q65 -69 67 -71 q42 -22 42 -44q0 -5 1 -20q1 -7 1 -11q0 -33 -26 -33q-16 0 -44 16l-36 22q-49 29 -99 94q-19 25 -29 24q-15 -2 -34 -23l-25 -29q-84 -95 -139 -100q-28 -2 -27 21z" />
<glyph unicode="&#xef;" horiz-adv-x="572" d="M-35 298q5 5 5 6l3 11q2 4 16 19q3 3 17 20q15 18 100 91q26 22 37 38l19 26q21 29 49 29q94 0 105 -130q4 -40 10 -65l17 -63l3 -19q8 -45 51 -45q40 0 73 28l42 35q6 5 25 19q9 -7 10 -19q4 -25 21 -50q9 -12 9 -22q-28 -30 -43 -41l-21 -14l-30 -22q-5 -3 -22 -11 q-72 -60 -106 -57l-28 2l-24 -1q-75 0 -107 90l-16 47q-4 11 -21 32q-7 9 -10 15l-22 39q-3 6 -14 6q-34 0 -85 -59l-14 -16q-2 -2 -9 -10q-1 13 -9 22q-16 23 -21 50q-2 12 -10 19zM203 933q-3 45 49.5 107.5t93.5 62.5q66 0 66 -62q-31 -173 -150 -178q-54 -2 -59 70z M423 927q0 89 53 115l23 12q7 3 12 11l13 21q10 17 30 17q74 0 74 -78q0 -42 -51 -130q-43 -36 -73 -36q-81 0 -81 68z" />
<glyph unicode="&#xf0;" horiz-adv-x="723" d="M-35 298q7 15 24 36l17 20l85 63l24 24q4 5 19 19q10 9 28 27q21 7 24 12l11 21q3 5 18 15l33 22q64 44 102 52l100 23l29 10l30 3q12 1 35 6q20 -4 31 -5q21 -1 38 -13q26 28 26 71l-5 169v22q-4 49 -30 51q-9 1 -42 -23q-5 -4 -31 -17q-6 -3 -31 -17q-14 -8 -24 -8 q-29 2 -41 45l-4 12l-8 12q-5 8 -5 11q1 21 36 37l44 20q1 1 23 15q14 9 43 25q-9 20 -12 24l-22 37l-28 47q-8 11 -31 31q-30 28 -29 40q2 30 50 30q55 0 89 -35l16 -20l24 -30q5 -7 12 -23q16 -36 35 -43q32 21 49 30q19 9 24 13l7 4l8 1q3 1 6 4l3 5q1 2 7 4q11 2 12 3 l19 12l9 -11l27 -39q6 -8 6 -25q0 -44 -61 -70q-18 -8 -36 -17q-8 -5 -14 -7q-16 -7 -16 -15q0 -24 14 -63q10 -26 12 -39l5 -57l9 -57l-4 -66l-5 -80q-3 -58 -55 -191q-7 -15 -8 -17l-28 -83q-9 -26 -21 -41l-22 -27q-4 -6 -12 -29q7 1 10 1q14 1 15 1q29 7 60 38 q8 -7 10 -19q4 -25 21 -50q9 -12 9 -22q-16 -19 -66 -47q-5 -3 -40 -26q-38 -24 -68 -30l-18 -2q-48 -5 -111 -32q-7 -3 -8 -4q-31 -13 -33 -14l-12 -7q-42 -27 -60 -25l-23 2l-34 -9q-42 -3 -87 35l-7 5l-31 17q-34 19 -34 100q0 53 14 93q3 9 3 15q0 14 -13 15 q-11 1 -29 -15l-48 -42q-4 -4 -18 -29q-1 13 -9 22q-16 23 -21 50q-2 12 -10 19zM267 204q0 -68 51 -65q34 2 79 35l50 38q18 13 20 18l10 17q2 3 15 15q53 46 53 138q0 70 -59 79l-29 4q-6 0 -45 -35l-63 -57q-82 -73 -82 -187z" />
<glyph unicode="&#xf1;" horiz-adv-x="956" d="M-35 298q5 5 5 7l3 10q2 4 16 19l36 37q5 5 26 21q68 80 107 120q32 32 38 40l14 18l19 19l27 31q58 65 128 65t70 -88q0 -46 -28 -131l-16 -49l-26 -80q-8 -24 -16 -39q-12 -21 -12 -37q0 -13 8 -14q7 -1 19 20q21 35 49 54q16 10 17 12l12 25q6 11 15 18l28 22 q8 6 25 32q103 86 159 86q91 0 129 -150l8 -32q14 -57 53 -57q24 0 43 21q8 -7 10 -19q4 -25 21 -49q9 -13 9 -23q-25 -17 -34 -28l-10 -13l-20 -14l-31 -21q-29 -21 -58 -21q-67 0 -104 75l-24 48q-5 10 -15 21l-25 28l-29 36q-4 3 -9 3q-6 0 -45 -24l-22 -15 q-23 -15 -38 -32q-14 -18 -36 -28q-21 -10 -28 -23l-16 -28l-45 -50l-30 -35l-42 -39l-34 -36q-32 -34 -83 -34q-47 0 -47 41l1 20l-3 22q0 5 6 23l9 30l15 40l8 37l28 84l10 39q1 6 13 35q9 22 9 39q0 15 -21 15q-26 0 -93 -80q-19 -23 -40 -37q-45 -27 -55 -49l-6 -15 q-2 -4 -12 -14q-1 13 -9 23q-16 22 -21 49q-2 12 -10 19zM260 877q0 40 50 88l53 51l59 38l23 16q22 13 33 12q22 -2 45 -45q15 -23 20 -35q20 -43 29 -43q6 0 16 9l35 29q19 17 21 18l28 12q6 3 26 27q26 31 42 31q45 0 41 -43q-5 -52 -112 -105q-42 -21 -68 -43 q-51 -43 -77 -41q-19 1 -58 80q-14 30 -30 30q-2 0 -7 -3l-49 -29l-9 -14q-38 -64 -89 -67q-22 -1 -22 27z" />
<glyph unicode="&#xf2;" horiz-adv-x="723" d="M-35 298q13 16 17 23l13 21l78 53q11 7 30 32q39 47 69 65q15 9 16 10l21 32l28 25l25 25l24 21l68 69q23 19 58 19t46 -19l1 -3l-21 -40q-1 -3 -1 -6q0 -7 6 -8q3 0 23 12q22 14 78 22q13 -2 20 -2q91 -9 114 -87l8 -52q5 -29 5 -38q0 -82 -60 -168l-1 -1q7 -25 22 -26 q14 -1 36 21q8 -7 10 -19q4 -25 21 -49q9 -13 9 -23q-24 -17 -34 -28l-10 -13l-20 -14l-30 -21q-29 -21 -61 -21q-46 0 -62 42q-55 -71 -109 -95l-30 -12l-40 -20q-12 -5 -17 -5l-25 2l-35 -9q-59 -3 -108.5 45t-49.5 110q0 59 17 94q4 10 4 16q0 16 -16 15q-13 -1 -28 -16 l-50 -41l-7 -15q-2 -5 -12 -14q-1 13 -9 23q-16 22 -21 49q-2 12 -10 19zM263 207q0 -57 58 -57q90 0 144 82l13 20q2 3 16 15q24 20 38 74l16 58l-15 46q-16 30 -41 30l-47 6q-14 -4 -33 -35q-43 -69 -60 -72l-25 -5q-14 -2 -39 -65t-25 -97zM337 1087q0 18 26 27 q4 14 9 18l16 5q6 2 11 2q35 0 40 -44q13 -13 17 -19l11 -26q14 -35 41 -64l19 -21l14 -20q12 -16 37 -35l23 -16l25 -26q29 -27 30 -30v-13v-5q0 -26 -18 -24q-1 0 -14 8l-33 16l-10 12q-3 3 -41 24q-17 9 -35 28q-52 54 -54 55l-45 27q-55 34 -61 67l-6 42q-2 9 -2 12z " />
<glyph unicode="&#xf3;" horiz-adv-x="723" d="M-35 298q13 16 17 23l13 21l78 53q11 7 30 32q39 47 69 65q15 9 16 10l21 32l28 25l25 25l24 21l68 69q23 19 58 19t46 -19l1 -3l-21 -40q-1 -3 -1 -6q0 -7 6 -8q3 0 23 12q22 14 78 22q13 -2 20 -2q91 -9 114 -87l8 -52q5 -29 5 -38q0 -82 -60 -168l-1 -1q7 -25 22 -26 q14 -1 36 21q8 -7 10 -19q4 -25 21 -49q9 -13 9 -23q-24 -17 -34 -28l-10 -13l-20 -14l-30 -21q-29 -21 -61 -21q-46 0 -62 42q-55 -71 -109 -95l-30 -12l-40 -20q-12 -5 -17 -5l-25 2l-35 -9q-59 -3 -108.5 45t-49.5 110q0 59 17 94q4 10 4 16q0 16 -16 15q-13 -1 -28 -16 l-50 -41l-7 -15q-2 -5 -12 -14q-1 13 -9 23q-16 22 -21 49q-2 12 -10 19zM263 207q0 -57 58 -57q90 0 144 82l13 20q2 3 16 15q24 20 38 74l16 58l-15 46q-16 30 -41 30l-47 6q-14 -4 -33 -35q-43 -69 -60 -72l-25 -5q-14 -2 -39 -65t-25 -97zM408 831q0 41 59 78l14 9 q4 3 16 17q27 37 62 67q11 8 14 18q54 52 58 67l9 30q5 16 31 16q27 0 37 -41q4 -16 5 -19q9 -31 9 -36q0 -54 -56 -83l-25 -13q-18 -10 -40 -27q-19 -15 -23 -17l-34 -19l-42 -34l-37 -25q-23 -17 -34 -17q-23 0 -23 29z" />
<glyph unicode="&#xf4;" horiz-adv-x="723" d="M-35 298q13 16 17 23l13 21l78 53q11 7 30 32q39 47 69 65q15 9 16 10l21 32l28 25l25 25l24 21l68 69q23 19 58 19t46 -19l1 -3l-21 -40q-1 -3 -1 -6q0 -7 6 -8q3 0 23 12q22 14 78 22q13 -2 20 -2q91 -9 114 -87l8 -52q5 -29 5 -38q0 -82 -60 -168l-1 -1q7 -25 22 -26 q14 -1 36 21q8 -7 10 -19q4 -25 21 -49q9 -13 9 -23q-24 -17 -34 -28l-10 -13l-20 -14l-30 -21q-29 -21 -61 -21q-46 0 -62 42q-55 -71 -109 -95l-30 -12l-40 -20q-12 -5 -17 -5l-25 2l-35 -9q-59 -3 -108.5 45t-49.5 110q0 59 17 94q4 10 4 16q0 16 -16 15q-13 -1 -28 -16 l-50 -41l-7 -15q-2 -5 -12 -14q-1 13 -9 23q-16 22 -21 49q-2 12 -10 19zM263 198q0 -59 58 -59q20 0 76 33t68 51l13 21q2 4 16 16q24 21 38 76l16 61l-15 47q-16 31 -41 31l-47 6q-14 -4 -33 -36q-43 -72 -60 -75l-25 -4q-14 -3 -39 -68t-25 -100zM268 856q4 67 168 196 q25 19 30 25l13 15q10 13 34 14q13 1 48 -37l55 -59q65 -69 67 -71q42 -22 42 -44q0 -5 1 -20q1 -7 1 -11q0 -33 -26 -33q-16 0 -44 16l-36 22q-49 29 -99 94q-19 25 -29 24q-15 -2 -34 -23l-25 -29q-84 -95 -139 -100q-28 -2 -27 21z" />
<glyph unicode="&#xf5;" horiz-adv-x="723" d="M-35 298q13 16 17 23l13 21l78 53q11 7 30 32q39 47 69 65q15 9 16 10l21 32l28 25l25 25l24 21l68 69q23 19 58 19t46 -19l1 -3l-21 -40q-1 -3 -1 -6q0 -7 6 -8q3 0 23 12q22 14 78 22q13 -2 20 -2q91 -9 114 -87l8 -52q5 -29 5 -38q0 -82 -60 -168l-1 -1q7 -25 22 -26 q14 -1 36 21q8 -7 10 -19q4 -25 21 -49q9 -13 9 -23q-24 -17 -34 -28l-10 -13l-20 -14l-30 -21q-29 -21 -61 -21q-46 0 -62 42q-55 -71 -109 -95l-30 -12l-40 -20q-12 -5 -17 -5l-25 2l-35 -9q-59 -3 -108.5 45t-49.5 110q0 59 17 94q4 10 4 16q0 16 -16 15q-13 -1 -28 -16 l-50 -41l-7 -15q-2 -5 -12 -14q-1 13 -9 23q-16 22 -21 49q-2 12 -10 19zM263 202q0 -57 58 -57q89 0 144 83l13 20q2 4 16 15q24 21 38 76l16 59l-15 46q-16 31 -41 31l-47 6q-14 -4 -33 -36q-43 -70 -60 -73l-25 -4q-14 -3 -39 -67t-25 -99zM416 877q0 40 50 88l53 51 l59 38l23 16q22 13 33 12q22 -2 45 -45q15 -23 20 -35q20 -43 29 -43q6 0 16 9l35 29q19 17 21 18l28 12q6 3 26 27q26 31 42 31q45 0 41 -43q-5 -52 -112 -105q-42 -21 -68 -43q-51 -43 -77 -41q-19 1 -58 80q-14 30 -30 30q-2 0 -7 -3l-49 -29l-9 -14q-38 -64 -89 -67 q-22 -1 -22 27z" />
<glyph unicode="&#xf6;" horiz-adv-x="723" d="M-35 298q13 16 17 23l13 21l78 53q11 7 30 32q39 47 69 65q15 9 16 10l21 32l28 25l25 25l24 21l68 69q23 19 58 19t46 -19l1 -3l-21 -40q-1 -3 -1 -6q0 -7 6 -8q3 0 23 12q22 14 78 22q13 -2 20 -2q91 -9 114 -87l8 -52q5 -29 5 -38q0 -82 -60 -168l-1 -1q7 -25 22 -26 q14 -1 36 21q8 -7 10 -19q4 -25 21 -49q9 -13 9 -23q-24 -17 -34 -28l-10 -13l-20 -14l-30 -21q-29 -21 -61 -21q-46 0 -62 42q-55 -71 -109 -95l-30 -12l-40 -20q-12 -5 -17 -5l-25 2l-35 -9q-59 -3 -108.5 45t-49.5 110q0 59 17 94q4 10 4 16q0 16 -16 15q-13 -1 -28 -16 l-50 -41l-7 -15q-2 -5 -12 -14q-1 13 -9 23q-16 22 -21 49q-2 12 -10 19zM263 207q0 -57 58 -57q90 0 144 82l13 20q2 3 16 15q24 20 38 74l16 58l-15 46q-16 30 -41 30l-47 6q-14 -4 -33 -35q-43 -69 -60 -72l-25 -5q-14 -2 -39 -65t-25 -97zM332 922q0 47 57.5 107.5 t101.5 60.5q70 0 73 -62q-35 -179 -166 -179q-66 0 -66 73zM573 913q0 89 58 115l27 12q7 3 12 11l15 21q12 18 36 17q79 -4 79 -78q0 -42 -56 -129q-48 -37 -81 -37q-90 0 -90 68z" />
<glyph unicode="&#xf7;" d="M33 564q1 7 7 24q6 16 6 41v21l-1 26l1 3q5 7 17 7q6 0 14 -1h28q45 0 56 1l31 2h6l82 -7l51 4q13 1 35 1q28 0 57 -2l37 -2q30 -2 58 -2l56 1h45l5 -1l8 -4l4 4q5 5 8 4l4 -1h6q6 0 9 -2l6 -5l18 9l27 -8l84 6l22 -1q29 3 42 3q17 0 33 -2q17 -1 23 -1l28 1q16 0 22 -10 q2 -4 2 -12l-7 -60l-1 -26q-3 -31 -31 -29l-74 7l-103 -7q-23 0 -60 5q-16 2 -22 2l-51 -6l-48 7l-21 -4l-28 1l-15 1l-52 4l-43 -2q-68 -4 -90 -4l-89 -3q-18 0 -44 -3q-29 -3 -36 -3q-11 0 -53 8q-23 5 -45 5q-25 0 -24 10zM395 251q-1 14 1 23q25 108 83 108 q50 0 101 -61q27 -50 27 -117q0 -35 -15 -45l-25 -15l-13 -23q-8 -11 -28 -11q-102 0 -130 127q-1 8 -1 14zM395 1002q-1 14 1 23q25 108 83 108q50 0 101 -61q27 -50 27 -117q0 -35 -15 -45l-25 -15l-13 -23q-8 -11 -28 -11q-102 0 -130 127q-1 8 -1 14z" />
<glyph unicode="&#xf8;" horiz-adv-x="798" d="M-35 298q11 14 15 17l68 44q15 10 24 19l35 38l28 29q31 32 35 35l29 17q5 3 6 4l12 21q4 7 18 19q5 5 54 51l41 39q65 62 91 62q36 0 58 -16l2 -3l-19 -36q-2 -5 -2 -9q0 -11 9 -11q2 0 5 2l22 11q1 1 27 9q2 1 15 6q15 5 20 5q43 0 62 -9l10 -4q2 -1 4 -1t4 1l2 2 l11 13l19 14l30 24q18 15 38 15q60 0 60 -26q0 -25 -24 -53l-35 -40l-15 -19l-10 -9q-4 -4 -4 -8q0 -9 3 -22q2 -9 2 -55v-10l-1 -14q-5 -34 -34 -105l-4 -7q18 -65 49 -65q18 0 38 25q8 -7 10 -19q4 -25 21 -49q8 -13 8 -23q-24 -18 -33 -28l-15 -17l-30 -21 q-20 -14 -29 -18l-23 -10l-13 -7l-11 4q-40 19 -65 69q-6 12 -11 12q-6 1 -19 -22q-12 -20 -50 -52q-29 -24 -45 -38q-9 -8 -13 -10l-47 -21l-50 -25q-20 -10 -67 -10q-41 0 -59 7q-11 3 -16 3q-6 0 -23 -34q-14 -25 -34 -26q-22 -1 -22 34q0 28 10 53l6 15l-29 80 q-2 4 -2 17q0 54 8 83q5 21 6 34q1 12 -10 14l-7 1l-72 -47l-20 -26q-4 -4 -12 -14q-1 13 -9 23q-16 22 -21 49q-2 12 -10 19zM283 242q0 -4 4 -4q2 0 4 1l9 8l18 14q20 16 32 32l14 19q14 17 36 40l24 24q32 35 41 42q22 16 25 19l6 9l19 24q2 3 2 5q0 4 -12 5l-23 4 q-5 0 -16 -6q-13 -8 -25 -13q-20 -8 -37 -31q-13 -19 -27 -34q-7 -7 -9 -10l-9 -12l-24 -13l-5 -6q-10 -20 -19 -40l-17 -36q-10 -24 -11 -41zM339 147q0 -6 6 -6q3 0 7 2q3 1 14 6q95 41 121 76l14 21l36 42l4 18q4 11 13 30q17 33 17 60v1q0 14 -6 13q-10 -2 -22 -17 q-6 -9 -37 -34q-25 -21 -40 -46l-12 -20l-30 -34l-32 -44l-23 -22l-7 -11l-21 -29q-2 -3 -2 -6z" />
<glyph unicode="&#xf9;" horiz-adv-x="832" d="M-35 298q5 5 5 7l3 10l16 19l17 20q1 2 19 17q20 18 36 40l8 12q9 13 29 35q14 15 17 19l30 42l11 12q39 46 63 92q16 30 26 35l19 8q2 1 19 11q25 15 53 15q35 0 32 -42q-1 -10 -13 -38q-4 -10 -12 -39q-2 -8 -19 -64q-15 -47 -22 -82l-5 -25l-12 -53q-4 -22 -4 -60 q0 -109 22 -108q6 0 29 20q8 7 16 10l15 6l21 30l8 7l46 55l18 20l38 54q6 7 11 14q21 24 23 29l7 18q7 18 24 35l13 13q28 28 51 28q71 0 71 -58v-8l-1 -25q0 -17 3 -33q6 -31 6 -34v-22q0 -55 56 -52q16 1 39 10q8 -7 10 -19q4 -25 21 -49q9 -13 9 -23q-20 -12 -56 -33 q-19 -11 -29 -17q-35 -23 -72 -23q-101 0 -129 102q-13 48 -25 48q-7 0 -17 -20q-3 -7 -28 -33q-9 -9 -30 -38q-27 -37 -66 -74l-24 -24q-71 -68 -126 -68q-93 0 -110 109q-4 24 -9 46q-11 46 -6 64l2 6q1 5 -4 46q-1 13 -12 12q-4 0 -6 -2l-56 -59q-8 -6 -11 -12l-6 -15 q-2 -5 -12 -15q-1 13 -9 23q-16 22 -21 49q-2 12 -10 19zM392 1087q0 18 26 27q4 14 9 18l16 5q6 2 11 2q35 0 40 -44q13 -13 17 -19l11 -26q14 -35 41 -64l19 -21l14 -20q12 -16 37 -35l23 -16l25 -26q29 -27 30 -30v-13v-5q0 -26 -18 -24q-1 0 -14 8l-33 16l-10 12 q-3 3 -41 24q-17 9 -35 28q-52 54 -54 55l-45 27q-55 34 -61 67l-6 42q-2 9 -2 12z" />
<glyph unicode="&#xfa;" horiz-adv-x="832" d="M-35 298q5 5 5 7l3 10l16 19l17 20q1 2 19 17q20 18 36 40l8 12q9 13 29 35q14 15 17 19l30 42l11 12q39 46 63 92q16 30 26 35l19 8q2 1 19 11q25 15 53 15q35 0 32 -42q-1 -10 -13 -38q-4 -10 -12 -39q-2 -8 -19 -64q-15 -47 -22 -82l-5 -25l-12 -53q-4 -22 -4 -60 q0 -109 22 -108q6 0 29 20q8 7 16 10l15 6l21 30l8 7l46 55l18 20l38 54q6 7 11 14q21 24 23 29l7 18q7 18 24 35l13 13q28 28 51 28q71 0 71 -58v-8l-1 -25q0 -17 3 -33q6 -31 6 -34v-22q0 -55 56 -52q16 1 39 10q8 -7 10 -19q4 -25 21 -49q9 -13 9 -23q-20 -12 -56 -33 q-19 -11 -29 -17q-35 -23 -72 -23q-101 0 -129 102q-13 48 -25 48q-7 0 -17 -20q-3 -7 -28 -33q-9 -9 -30 -38q-27 -37 -66 -74l-24 -24q-71 -68 -126 -68q-93 0 -110 109q-4 24 -9 46q-11 46 -6 64l2 6q1 5 -4 46q-1 13 -12 12q-4 0 -6 -2l-56 -59q-8 -6 -11 -12l-6 -15 q-2 -5 -12 -15q-1 13 -9 23q-16 22 -21 49q-2 12 -10 19zM463 831q0 41 59 78l14 9q4 3 16 17q27 37 62 67q11 8 14 18q54 52 58 67l9 30q5 16 31 16q27 0 37 -41q4 -16 5 -19q9 -31 9 -36q0 -54 -56 -83l-25 -13q-18 -10 -40 -27q-19 -15 -23 -17l-34 -19l-42 -34l-37 -25 q-23 -17 -34 -17q-23 0 -23 29z" />
<glyph unicode="&#xfb;" horiz-adv-x="832" d="M-35 298q5 5 5 7l3 10l16 19l17 20q1 2 19 17q20 18 36 40l8 12q9 13 29 35q14 15 17 19l30 42l11 12q39 46 63 92q16 30 26 35l19 8q2 1 19 11q25 15 53 15q35 0 32 -42q-1 -10 -13 -38q-4 -10 -12 -39q-2 -8 -19 -64q-15 -47 -22 -82l-5 -25l-12 -53q-4 -22 -4 -60 q0 -109 22 -108q6 0 29 20q8 7 16 10l15 6l21 30l8 7l46 55l18 20l38 54q6 7 11 14q21 24 23 29l7 18q7 18 24 35l13 13q28 28 51 28q71 0 71 -58v-8l-1 -25q0 -17 3 -33q6 -31 6 -34v-22q0 -55 56 -52q16 1 39 10q8 -7 10 -19q4 -25 21 -49q9 -13 9 -23q-20 -12 -56 -33 q-19 -11 -29 -17q-35 -23 -72 -23q-101 0 -129 102q-13 48 -25 48q-7 0 -17 -20q-3 -7 -28 -33q-9 -9 -30 -38q-27 -37 -66 -74l-24 -24q-71 -68 -126 -68q-93 0 -110 109q-4 24 -9 46q-11 46 -6 64l2 6q1 5 -4 46q-1 13 -12 12q-4 0 -6 -2l-56 -59q-8 -6 -11 -12l-6 -15 q-2 -5 -12 -15q-1 13 -9 23q-16 22 -21 49q-2 12 -10 19zM323 856q4 67 168 196q25 19 30 25l13 15q10 13 34 14q13 1 48 -37l55 -59q65 -69 67 -71q42 -22 42 -44q0 -5 1 -20q1 -7 1 -11q0 -33 -26 -33q-16 0 -44 16l-36 22q-49 29 -99 94q-19 25 -29 24q-15 -2 -34 -23 l-25 -29q-84 -95 -139 -100q-28 -2 -27 21z" />
<glyph unicode="&#xfc;" horiz-adv-x="832" d="M-35 298q5 5 5 7l3 10l16 19l17 20q1 2 19 17q20 18 36 40l8 12q9 13 29 35q14 15 17 19l30 42l11 12q39 46 63 92q16 30 26 35l19 8q2 1 19 11q25 15 53 15q35 0 32 -42q-1 -10 -13 -38q-4 -10 -12 -39q-2 -8 -19 -64q-15 -47 -22 -82l-5 -25l-12 -53q-4 -22 -4 -60 q0 -109 22 -108q6 0 29 20q8 7 16 10l15 6l21 30l8 7l46 55l18 20l38 54q6 7 11 14q21 24 23 29l7 18q7 18 24 35l13 13q28 28 51 28q71 0 71 -58v-8l-1 -25q0 -17 3 -33q6 -31 6 -34v-22q0 -55 56 -52q16 1 39 10q8 -7 10 -19q4 -25 21 -49q9 -13 9 -23q-20 -12 -56 -33 q-19 -11 -29 -17q-35 -23 -72 -23q-101 0 -129 102q-13 48 -25 48q-7 0 -17 -20q-3 -7 -28 -33q-9 -9 -30 -38q-27 -37 -66 -74l-24 -24q-71 -68 -126 -68q-93 0 -110 109q-4 24 -9 46q-11 46 -6 64l2 6q1 5 -4 46q-1 13 -12 12q-4 0 -6 -2l-56 -59q-8 -6 -11 -12l-6 -15 q-2 -5 -12 -15q-1 13 -9 23q-16 22 -21 49q-2 12 -10 19zM318 922q0 47 57.5 107.5t101.5 60.5q70 0 73 -62q-35 -179 -166 -179q-66 0 -66 73zM559 913q0 89 58 115l27 12q7 3 12 11l15 21q12 18 36 17q79 -4 79 -78q0 -42 -56 -129q-48 -37 -81 -37q-90 0 -90 68z" />
<glyph unicode="&#xfd;" horiz-adv-x="864" d="M-35 298q4 5 5 6l8 11q10 15 50 34q40 20 76 64q6 6 69 72l27 30q46 39 77 39q52 0 52 -49q0 -24 -15 -70q-5 -13 -13 -44q-9 -36 -16 -56l-4 -14q-11 -39 -11 -75q0 -20 13 -19q4 0 7 2l43 34l32 21q16 11 26 20l76 76l38 35q4 4 41 44q31 33 61 55q23 16 27 23l15 22 q27 38 94 38q46 0 46 -34q0 -12 -4 -26l-41 -132q-11 -39 -13 -44l-42 -107l-9 -27l-17 -42l-4 -13q-4 -9 -4 -14q0 -7 7 -8t22 21q8 11 88 73q22 17 50 47l7 7q8 -7 10 -19q4 -25 21 -50q9 -12 9 -22q-25 -18 -34 -28l-15 -17l-91 -63l-27 -26l-59 -54l-31 -31l-44 -45 q-19 -20 -38 -50l-16 -28l-48 -78l-22 -38q-202 -340 -358 -340q-42 0 -42 36q0 26 30 69l17 25l11 20l29 25q3 4 5 19q8 10 13 14l16 14l9 25q2 3 13 16q11 12 23 31q8 12 24 27q31 31 51 61q18 26 37 47l58 65l42 43l3 6l12 35l17 40l13 31l7 18l13 31l15 30l4 31 q1 12 7 32q15 47 19 78l1 7l-5 19l-1 8l-2 2l-35 -26l-9 -5q-21 -10 -42 -38l-29 -38l-7 -6q-22 -17 -27 -23l-11 -13q-13 -16 -26 -21l-32 -14l-8 -14q-42 -70 -128 -70q-68 0 -68 63q0 14 3 26l2 9l-7 20q-3 6 -2 10l5 17q3 8 3 19q0 61 -19 61q-2 0 -4 -1l-15 -12 l-23 -13q-11 -6 -32 -28q-3 -4 -9 -10q-1 13 -9 22q-16 23 -21 50q-2 12 -10 19zM479 831q0 41 59 78l14 9q4 3 16 17q27 37 62 67q11 8 14 18q54 52 58 67l9 30q5 16 31 16q27 0 37 -41q4 -16 5 -19q9 -31 9 -36q0 -54 -56 -83l-25 -13q-18 -10 -40 -27q-19 -15 -23 -17 l-34 -19l-42 -34l-37 -25q-23 -17 -34 -17q-23 0 -23 29z" />
<glyph unicode="&#xfe;" horiz-adv-x="699" d="M-35 298q13 16 17 23l13 21l30 29l36 43l30 30q1 2 2 5l3 15q0 6 18 32q27 39 43 66l39 69l17 28q16 32 31 89l21 83q21 81 52 177q12 35 15 51q10 51 11 54l14 33l8 50q1 2 10 16q7 11 20 40q10 25 17 37l15 25q3 5 5 9l17 39q17 38 45 41q40 4 40 -67q0 -41 -14 -77 q-27 -71 -30 -102l-10 -116q-11 -122 -88 -303q-37 -87 -61 -170q-21 -71 -25 -81l-23 -55l-11 -43l-11 -37l-17 -71q-2 -8 -14 -48q-14 -46 -20 -75l-17 -75q-15 -64 -17 -102q-13 -34 -15 -46l-8 -60l-7 -42v-4q0 -6 4 -7q6 -2 10 17q12 57 19 70q7 17 7 31q0 5 -1 11 q-1 7 -1 11q0 3 14 31q8 17 38 113l34 111q1 4 12 33q14 32 18 49l5 23l11 24l15 32q3 7 9 17l12 24q15 35 18 39l7 9l9 23l13 12q36 31 59 31q91 0 157 -184q16 -47 49 -51q8 -7 10 -19q4 -25 21 -50q9 -12 9 -22q-21 -13 -44 -13q-10 -1 -14 -2l-29 -6l-37 13l-31 11 q-20 7 -60 48q-32 40 -55 49l-3 1l-20 -16q-39 -56 -75 -158q-19 -50 -22 -56l-11 -19l-15 -73q-1 -5 -16 -45l-25 -63q-16 -42 -16 -49l-4 -29q-2 -18 -21 -59q-24 -52 -28 -75l-6 -37q-4 -25 -21 -54l-6 -10q-39 -69 -60 -71q-69 -8 -69 115q0 55 11 144q4 40 6 76l2 32 q3 45 12 106l9 52l13 77l16 85q6 32 9 70q2 21 3 28q1 9 1 12v8l-7 -2q-12 -6 -36 -31l-23 -23l-15 -22q-4 -4 -12 -14q-1 13 -9 22q-16 23 -21 50q-2 12 -10 19z" />
<glyph unicode="&#xff;" horiz-adv-x="864" d="M-35 298q4 5 5 6l8 11q10 15 50 34q40 20 76 64q6 6 69 72l27 30q46 39 77 39q52 0 52 -49q0 -24 -15 -70q-5 -13 -13 -44q-9 -36 -16 -56l-4 -14q-11 -39 -11 -75q0 -20 13 -19q4 0 7 2l43 34l32 21q16 11 26 20l76 76l38 35q4 4 41 44q31 33 61 55q23 16 27 23l15 22 q27 38 94 38q46 0 46 -34q0 -12 -4 -26l-41 -132q-11 -39 -13 -44l-42 -107l-9 -27l-17 -42l-4 -13q-4 -9 -4 -14q0 -7 7 -8t22 21q8 11 88 73q22 17 50 47l7 7q8 -7 10 -19q4 -25 21 -50q9 -12 9 -22q-25 -18 -34 -28l-15 -17l-91 -63l-27 -26l-59 -54l-31 -31l-44 -45 q-19 -20 -38 -50l-16 -28l-48 -78l-22 -38q-202 -340 -358 -340q-42 0 -42 36q0 26 30 69l17 25l11 20l29 25q3 4 5 19q8 10 13 14l16 14l9 25q2 3 13 16q11 12 23 31q8 12 24 27q31 31 51 61q18 26 37 47l58 65l42 43l3 6l12 35l17 40l13 31l7 18l13 31l15 30l4 31 q1 12 7 32q15 47 19 78l1 7l-5 19l-1 8l-2 2l-35 -26l-9 -5q-21 -10 -42 -38l-29 -38l-7 -6q-22 -17 -27 -23l-11 -13q-13 -16 -26 -21l-32 -14l-8 -14q-42 -70 -128 -70q-68 0 -68 63q0 14 3 26l2 9l-7 20q-3 6 -2 10l5 17q3 8 3 19q0 61 -19 61q-2 0 -4 -1l-15 -12 l-23 -13q-11 -6 -32 -28q-3 -4 -9 -10q-1 13 -9 22q-16 23 -21 50q-2 12 -10 19zM402 922q0 47 57.5 107.5t101.5 60.5q70 0 73 -62q-35 -179 -166 -179q-66 0 -66 73zM643 913q0 89 58 115l27 12q7 3 12 11l15 21q12 18 36 17q79 -4 79 -78q0 -42 -56 -129q-48 -37 -81 -37 q-90 0 -90 68z" />
<glyph unicode="&#x152;" horiz-adv-x="1617" d="M16 586q0 10 2 18l8 25q1 5 3 21q-2 7 -2 11q0 8 18 42l22 42l27 43q49 79 93 228q11 38 21 56q17 32 18 35l4 24q10 62 52 113q12 15 15 20l18 43l33 20l31 26l5 -1q28 -11 28 -37q0 -35 -22 -74l-13 -23q-9 -16 -9 -36q0 -10 5 -10q10 0 19 10l27 30q17 18 37 32l50 34 l48 36q28 20 52 21q4 0 15 -1l5 -1l21 11q18 17 22 16l31 -12l32 -2l28 -10l27 -4q18 -4 49 -35l37 -37q24 -23 30 -32l21 -28l19 -22q13 -22 18 -23q3 0 7 4l24 29l17 14l19 36q3 5 12 16q17 10 24 16q18 14 20 15l24 9q3 1 25 25q5 6 17 16q18 7 21 9l49 39q36 28 146 38 q30 3 66 9q22 4 25 4l62 -9h5l17 1l17 -6l33 -11q32 -10 32 -74q0 -135 -53 -135q-16 0 -35 5l-6 2l-17 10l-24 2l-33 7q-16 4 -50 4l-28 1l-46 -4q-18 -2 -56 -4q-30 -16 -46 -15l-10 1q-6 1 -17 -5q-34 -16 -40 -28l-32 -70q-9 -19 -9 -22l1 -26l-29 -114l-13 -53l-8 -31 q-13 -54 -17 -64q-11 -33 -11 -38l-4 -22q-3 -17 -3 -22q0 -16 17 -17q10 -1 27 14l15 12q35 36 56 42l42 10l46 20q13 5 43 7q37 3 45 4l62 10l28 1h3l31 -1l28 -7q46 -12 57 -60q0 -122 -49 -122q-1 0 -4 1l-53 13q-17 8 -21 8q-6 0 -25 -8q-8 -4 -14 -5l-32 -1 q-44 -4 -56 -4q-49 0 -58 -3l-23 -8l-32 -3l-28 -8l-52 -7l-6 -2q-76 -30 -90 -101l-10 -53q-3 -13 -4 -29q-3 -28 -6 -35l-9 -26l-1 -3l4 -36l-14 -56q-6 -24 -6 -84q0 -13 11 -13h5q17 3 20 3l36 -3l71 6l31 -3l35 5l44 2l22 8q10 4 47 6q35 3 85 18q44 13 71 18l17 3 q21 3 40 14l23 14l51 29q14 12 21 14h4q9 -7 11 -19q3 -25 21 -49q8 -13 8 -23q-31 -12 -44 -20l-20 -12q-9 -5 -41 -14q-18 -6 -53 -17q-19 -17 -26 -20l-87 -35l-32 -22q-8 -4 -28 -11q-28 -9 -34 -12l-28 -14q-83 -40 -168 -40l-27 -1l-38 -6l-38 2l-43 2q-58 2 -53 30 l6 36q1 5 -5 6l-34 4q-24 3 -24 52q0 15 3 52q2 31 2 66q0 23 5 32l10 20l-10 23l-1 6l-3 3l-2 -2q-6 -5 -10 -11l-22 -27l-23 -20l-73 -73l-33 -22l-24 -29q-2 -2 -61 -41l-35 -24q-29 -19 -50 -23q-33 -6 -35 -8l-17 -14q-21 -18 -103 -18q-60 0 -105 16q-19 6 -24 11 l-20 20l-30 22l-14 27l-14 21q-31 45 -39 142l-1 27l-4 50l5 74v37l6 47q6 50 11 62q10 23 10 33q1 14 -10 12q-7 -1 -22 -31q-11 -22 -30 -22q-26 0 -26 33zM243 449q1 -11 4 -26q7 -37 9 -55q3 -38 19 -75l13 -32q33 -78 66 -83l25 -4l17 -2l18 2h23q76 0 142 64l26 27 l23 15q53 35 101 116q12 19 20 30l9 11q23 30 38 74l18 52q2 7 5 11l13 17l15 71l3 8q3 10 7 40q2 16 4 26q5 20 5 28q0 1 -1 6q-3 22 -3 39t-1 26l-3 31l1 14q1 5 1 9q0 8 -3 12l-14 16q-1 2 -4 11q-8 31 -14 41l-9 14l-9 20l-23 29q-5 6 -14 20q-32 52 -79 65l-57 18 q-17 5 -22 5l-39 -7l-36 -6l-14 -9l-45 -15l-30 -18l-33 -20q-21 -12 -51 -46l-22 -26q-32 -37 -35 -54l-8 -41l-9 -29q-19 -65 -23 -110l-1 -20q-4 -38 -14 -84q-7 -32 -7 -63l2 -76z" />
<glyph unicode="&#x153;" horiz-adv-x="1069" d="M-35 298q3 4 5 7l2 1q18 19 23 22l52 39q14 10 58 57q16 17 43 43l28 28q21 6 24 12l11 20q5 9 75 75q38 36 65 64q33 34 66 34q29 0 51 -14l6 -5l-23 -50l9 -7l33 18q9 6 30 10l34 6q21 -4 31 -5q25 -2 46 -17q18 -14 22 -14q3 0 11 11q19 26 35 40q27 22 31 29 q9 16 10 17l8 5l24 18q29 21 74 21q79 0 93 -67l3 -18l7 -28q1 -6 1 -16q0 -8 -6 -21l-12 -37q-24 -78 -92 -153l-42 -47l-10 -13l-26 -22l-14 -18l-32 -37q-1 -3 -1 -8q0 -16 10 -39q7 -7 10 -11l17 -23q22 -18 69 -18q21 0 37 4l6 2l24 8l18 5q30 12 69 52q20 20 56 40 q8 -7 10 -19q4 -25 21 -49q8 -13 8 -23q-22 -17 -33 -28l-10 -13q-101 -127 -200 -127q-33 -19 -80 -19q-100 0 -148 85l-22 40q-6 11 -17 11q-8 0 -13 -6l-26 -26l-13 -8q-10 -5 -15 -9l-24 -20q-24 -19 -52 -29l-31 -10l-22 -12q-21 -11 -44 -9l-19 2q-5 0 -11 -3l-9 -5 q-2 -1 -11 -1q-62 0 -83 23l-15 17l-23 10q-42 22 -42 105q0 14 1 20l9 44l1 15l12 37l-11 8l-17 -7l-13 -7q-46 -30 -75 -64q-4 -5 -12 -14q-1 13 -9 23q-16 22 -21 49q-2 12 -10 19zM276 208q0 -41 20 -53l27 -7q7 -2 11 -2q3 0 26 10l26 11q29 12 55 35l18 16l21 18 l10 17q3 5 15 15q54 42 54 140q0 66 -60 76l-23 4q-33 -3 -90 -91q-7 -12 -11 -13l-35 -9l-3 -2q-18 -14 -37 -68l-13 -38q-11 -29 -11 -59zM699 429q0 -14 12 -13q15 1 23 16l10 17q2 3 32 33q34 32 34 64q0 22 -14 22q-9 0 -19 -14l-40 -43l-5 -13l-28 -46q-5 -10 -5 -23z " />
<glyph unicode="&#x178;" horiz-adv-x="755" d="M41 1249v5q0 90 59 84l20 -2q1 0 5 1q24 7 43 19q18 12 26 12q64 0 68 -74l5 -83l-5 -55q-3 -29 -3 -52q0 -10 5 -34q6 -29 14 -122q4 -50 9 -67l11 -32q2 -7 5 -30q4 -34 13 -66q12 -39 13 -52q2 -29 5 -33l16 -22l16 -33q4 -6 8 -5q8 1 50 89q6 11 13 23q7 22 10 30 l21 41l33 77l24 40l12 43q5 18 29 63q12 24 35 72q7 11 11 17q8 12 9 14l11 33q2 7 24 40l27 47l31 51l14 23l28 45l19 31q16 25 31 26q44 3 44 -59l-2 -48l1 -39q0 -16 -2 -22l-13 -35l-15 -64l-27 -77q-15 -50 -17 -52l-17 -21l-3 -5l-5 -38q-2 -15 -13 -24l-11 -10 q-3 -3 -4 -10l-2 -15q-1 -11 -14 -30l-20 -30q-17 -24 -27 -44l-19 -36l-21 -33l-45 -75q-18 -30 -21 -36l-4 -8l-17 -22l-1 -3l-2 -27q0 -9 -25 -51q-7 -13 -30 -69l-20 -47l-5 -13q-7 -16 -17 -33l-5 -10q-10 -21 -29 -102l-7 -33l-9 -41q-3 -19 -4 -33t8 -27 q15 -24 16 -31q2 -23 -58 -58l-35 -15l-13 -10q-8 -6 -20 -8h-5l-46 9l-37 7q-22 9 -22 30q0 1 6 26q0 2 2 12q11 86 37 121l19 26l1 4l-6 20l-1 4l10 36q1 3 4 15q9 33 22 53l6 9q13 21 16 33l10 34l7 27l-24 19q-9 6 -25 27l-8 11q-22 29 -27 46l-6 25q-5 20 -25 52 q-16 26 -24 55l-16 55l-9 18l-8 38l-25 85l-2 20q0 5 -1 8l-13 31l-2 22q0 4 -7 32q-9 39 -9 57q0 36 -2 40l-5 15l8 23l-14 18q-2 2 -3 4l-4 54zM291 1589q0 39 57.5 98t96.5 59q80 0 80 -51q0 -4 -1 -11q-11 -63 -24 -82l-21 -31q-48 -69 -59 -73q-44 -17 -86.5 13 t-42.5 78zM595 1572q0 93 60 116l25 10q2 0 8 8q32 37 57 37q73 0 73 -78q0 -43 -56 -129q-44 -35 -92 -35q-75 0 -75 71z" />
<glyph unicode="&#x2c6;" d="M419 856q4 67 168 196q25 19 30 25l13 15q10 13 34 14q13 1 48 -37l55 -59q65 -69 67 -71q42 -22 42 -44q0 -5 1 -20q1 -7 1 -11q0 -33 -26 -33q-16 0 -44 16l-36 22q-49 29 -99 94q-19 25 -29 24q-15 -2 -34 -23l-25 -29q-84 -95 -139 -100q-28 -2 -27 21z" />
<glyph unicode="&#x2dc;" d="M294 877q0 40 50 88l53 51l59 38l23 16q22 13 33 12q22 -2 45 -45q15 -23 20 -35q20 -43 29 -43q6 0 16 9l35 29q19 17 21 18l28 12q6 3 26 27q26 31 42 31q45 0 41 -43q-5 -52 -112 -105q-42 -21 -68 -43q-51 -43 -77 -41q-19 1 -58 80q-14 30 -30 30q-2 0 -7 -3 l-49 -29l-9 -14q-38 -64 -89 -67q-22 -1 -22 27z" />
<glyph unicode="&#x2000;" horiz-adv-x="924" />
<glyph unicode="&#x2001;" horiz-adv-x="1849" />
<glyph unicode="&#x2002;" horiz-adv-x="924" />
<glyph unicode="&#x2003;" horiz-adv-x="1849" />
<glyph unicode="&#x2004;" horiz-adv-x="616" />
<glyph unicode="&#x2005;" horiz-adv-x="462" />
<glyph unicode="&#x2006;" horiz-adv-x="308" />
<glyph unicode="&#x2007;" horiz-adv-x="308" />
<glyph unicode="&#x2008;" horiz-adv-x="231" />
<glyph unicode="&#x2009;" horiz-adv-x="369" />
<glyph unicode="&#x200a;" horiz-adv-x="102" />
<glyph unicode="&#x2010;" horiz-adv-x="515" d="M-12 361q1 14 21 31l17 15q8 7 13 22q8 24 12 28l18 6q18 6 26 6q6 0 22 -7q18 -7 25 -7l68 13l91 -3q17 0 34 1q25 2 62 2q52 0 52 -56q0 -80 -66 -80l-61 6l-31 -3l-26 3l-71 -13q-10 0 -30 4q-62 11 -70 10l-61 -7q-23 -3 -40 17q-5 6 -5 12z" />
<glyph unicode="&#x2011;" horiz-adv-x="515" d="M-12 361q1 14 21 31l17 15q8 7 13 22q8 24 12 28l18 6q18 6 26 6q6 0 22 -7q18 -7 25 -7l68 13l91 -3q17 0 34 1q25 2 62 2q52 0 52 -56q0 -80 -66 -80l-61 6l-31 -3l-26 3l-71 -13q-10 0 -30 4q-62 11 -70 10l-61 -7q-23 -3 -40 17q-5 6 -5 12z" />
<glyph unicode="&#x2012;" horiz-adv-x="515" d="M-12 361q1 14 21 31l17 15q8 7 13 22q8 24 12 28l18 6q18 6 26 6q6 0 22 -7q18 -7 25 -7l68 13l91 -3q17 0 34 1q25 2 62 2q52 0 52 -56q0 -80 -66 -80l-61 6l-31 -3l-26 3l-71 -13q-10 0 -30 4q-62 11 -70 10l-61 -7q-23 -3 -40 17q-5 6 -5 12z" />
<glyph unicode="&#x2013;" horiz-adv-x="874" d="M-13 352l8 53l-4 20q0 2 1 10l-2 26v3q8 12 31 10q15 -1 30 -7q23 -11 30 -10q4 0 24 10q14 7 24 7q11 0 58 -6l109 3h38h63l44 -2q44 -3 73 -3t39 2q7 2 10 1l17 -7l7 7h4h15l8 -1l30 1l30 -7l23 5q10 3 16 3q12 0 30 -5q11 -4 14 -3l22 7q9 3 17 -3q10 -7 10 -24 q0 -113 -25 -110l-38 7l-35 -7l-43 7l-53 -7q-28 -2 -94 5q-22 2 -28 2l-44 -3l-152 5q-11 0 -75 -6l-73 -6q-23 -2 -39 -2q-14 0 -50 8q-21 5 -34 5q-37 0 -36 12z" />
<glyph unicode="&#x2014;" horiz-adv-x="1460" d="M-11 448l4 12q6 8 16 10h3l23 -7q21 -8 39 -6l56 8l37 -7l36 7l58 -3q15 0 42 3t53 3q9 0 36 -2q59 6 86 0l34 -8l66 11q12 0 34 -12q13 -8 15 -7l54 16q2 0 20 -1h30h39h35l48 -1q21 2 23 2l50 -9l14 4q8 3 42 3h59l38 -6l46 6l51 -2l16 2l27 -3l59 -1l28 -5l13 2l22 6 q15 4 27 4q24 0 24 -19l-3 -39l6 -54q2 -30 -72 -30q-98 0 -122 3l-13 1l-24 3q-19 2 -21 2l-43 -5q-12 -1 -29 -1q-31 0 -48 1q-49 5 -50 5q-34 0 -64 -4q-30 -3 -31 -3l-77 8l-116 -15q-14 0 -37 3q-31 4 -37 5l-51 4l-52 3l-25 -7l-21 7h-7l-63 -3q-17 -1 -32 -3 q-17 -2 -21 -2l-71 8l-45 -3l-60 4l-59 -4q-42 0 -54 -2q-15 -2 -20 -2q-39 0 -38 29q0 11 3 21q2 6 2 8v13v19z" />
<glyph unicode="&#x2018;" horiz-adv-x="425" d="M157 1040l2 15q5 19 39 80q6 12 7 15l16 54q55 183 131 191q9 1 21 -2q8 0 32 1q13 1 19 -3t6 -13q0 -6 -4 -17l-11 -33q-60 -172 -61 -182l-6 -57l-7 -42v-3l5 -42q2 -13 2 -19l-3 -17l-6 -32q-8 -48 -57 -48q-8 0 -19 1l-17 3q-58 16 -73 84l-11 45z" />
<glyph unicode="&#x2019;" horiz-adv-x="425" d="M141 903q0 6 4 17l11 32q60 173 61 183l6 57l7 42v4q0 16 -6 41q-2 13 -2 19l3 17l6 32q8 48 58 48q7 0 18 -2l17 -2q59 -16 74 -84l11 -45l5 -21l-2 -15q-5 -18 -39 -80q-6 -12 -7 -15l-16 -54q-56 -184 -131 -191q-9 -1 -22 2q-5 0 -31 -1q-13 -1 -19 3q-7 4 -6 13z " />
<glyph unicode="&#x201a;" horiz-adv-x="453" d="M38 -260q0 6 4 17l11 32q60 173 61 183l6 57l7 42v4q0 16 -6 41q-2 13 -2 19l3 17l6 32q8 48 58 48q7 0 18 -2l17 -2q59 -16 74 -84l11 -45l5 -21l-2 -15q-5 -18 -39 -80q-6 -12 -7 -15l-16 -54q-56 -184 -131 -191q-9 -1 -22 2q-4 0 -31 -1q-13 -1 -19 3q-7 4 -6 13z " />
<glyph unicode="&#x201c;" horiz-adv-x="722" d="M157 1040l2 15q5 19 39 80q6 12 7 15l16 54q55 183 131 191q9 1 21 -2q8 0 32 1q13 1 19 -3t6 -13q0 -6 -4 -17l-11 -33q-60 -172 -61 -182l-6 -57l-7 -42v-3l5 -42q2 -13 2 -19l-3 -17l-6 -32q-8 -48 -57 -48q-8 0 -19 1l-17 3q-58 16 -73 84l-11 45zM453 1040l2 15 q5 18 39 80q6 12 7 15l16 54q55 183 131 191q9 1 22 -2q7 0 31 1q13 1 19 -3t6 -13q0 -7 -4 -17l-11 -33q-60 -172 -61 -182l-6 -57l-7 -42v-3q0 -17 6 -42q2 -13 2 -19l-3 -17l-6 -32q-8 -48 -58 -48q-7 0 -18 1l-17 3q-59 16 -74 84l-11 45z" />
<glyph unicode="&#x201d;" horiz-adv-x="722" d="M141 903q0 6 4 17l11 32q60 173 61 183l6 57l7 42v4q0 16 -6 41q-2 13 -2 19l3 17l6 32q8 48 58 48q7 0 18 -2l17 -2q59 -16 74 -84l11 -45l5 -21l-2 -15q-5 -18 -39 -80q-6 -12 -7 -15l-16 -54q-56 -184 -131 -191q-9 -1 -22 2q-5 0 -31 -1q-13 -1 -19 3q-7 4 -6 13z M437 903q0 6 4 17l11 32q60 177 61 183l6 57l7 42v4q0 15 -5 41q-2 13 -2 19l3 17l6 32q8 48 57 48q7 0 19 -2l17 -2q58 -16 74 -84l10 -45l5 -21l-2 -15q-5 -19 -39 -80q-6 -12 -7 -15l-16 -54q-55 -184 -131 -191q-9 -1 -21 2q-6 0 -32 -1q-13 -1 -19 3q-7 4 -6 13z" />
<glyph unicode="&#x201e;" horiz-adv-x="722" d="M11 -261q0 6 4 17l11 33q60 172 61 182l6 57l7 42v4q0 16 -6 41q-2 13 -2 19l3 17l6 32q8 48 58 48q7 0 18 -1l17 -3q59 -16 74 -84l11 -45l5 -21l-2 -15q-5 -18 -39 -80q-6 -12 -7 -15l-16 -54q-56 -183 -131 -191q-9 -1 -22 2l-31 -1q-14 0 -19 3q-7 4 -6 13zM307 -261 q0 6 4 17l11 33q60 176 61 182l6 57l7 42v4q0 15 -5 41q-2 13 -2 19l3 17l6 32q8 48 57 48q7 0 19 -1l17 -3q58 -16 74 -84l10 -45l5 -21l-2 -15q-5 -19 -39 -80q-6 -12 -7 -15l-16 -54q-55 -183 -131 -191q-9 -1 -21 2q-11 0 -32 -1q-13 -1 -19 3q-7 4 -6 13z" />
<glyph unicode="&#x2022;" horiz-adv-x="1365" d="M401 694q0 118 83.5 201t202.5 83q116 0 199 -83.5t83 -200.5t-83 -200.5t-199 -83.5q-119 0 -202.5 83t-83.5 201z" />
<glyph unicode="&#x2026;" horiz-adv-x="1358" d="M111 132l9 24l9 43q7 31 41 31q47 0 89 -55q6 -17 9 -23l12 -26q11 -23 11 -60q0 -29 -11 -37l-19 -14l-5 -14q-7 -17 -26 -17q-84 0 -117 115q7 6 7 7zM564 132l9 24l9 43q7 31 41 31q47 0 89 -55q6 -17 9 -23l12 -26q11 -23 11 -60q0 -29 -11 -37l-19 -14l-5 -14 q-7 -17 -26 -17q-85 0 -117 115q7 6 7 7zM1016 132l10 24l8 43q7 31 41 31q47 0 90 -55q6 -17 9 -23l12 -26q11 -23 11 -60q0 -29 -11 -37l-19 -14l-5 -14q-7 -17 -27 -17q-84 0 -116 115q7 6 7 7z" />
<glyph unicode="&#x202f;" horiz-adv-x="369" />
<glyph unicode="&#x2039;" horiz-adv-x="626" d="M96 332q0 33 20 73q9 12 13 17q27 36 28 37l18 18q11 10 17 20l4 7q2 4 25 22q2 2 16 15l57 55q51 49 64 57q20 10 22 13l10 11q4 4 16 11l18 9q46 24 54 24q67 0 67 -36q0 -17 -26 -32q-34 -20 -40 -26l-48 -48q-11 -10 -35 -26q-10 -7 -12 -9l-44 -54l-56 -63 q-20 -22 -25 -40l-3 -21q-3 -23 -3 -26q0 -32 14 -59l22 -36l28 -61q9 -20 21 -36l21 -27q7 -10 8 -18q3 -45 -105 -45q-39 0 -83 79l-8 14q-32 57 -33 60l-2 10q-1 5 -7 16q-33 62 -33 95z" />
<glyph unicode="&#x203a;" horiz-adv-x="626" d="M14 93q0 16 26 32q35 20 40 26l48 47q11 11 35 27q10 7 12 8l44 54l56 63q20 23 25 40l3 21q3 23 3 26q0 32 -14 59l-22 37l-28 61q-9 19 -21 35l-21 27q-7 9 -8 18q-3 45 105 45q39 0 83 -79l8 -14q32 -57 33 -59l2 -11q1 -5 7 -16q33 -62 33 -94q0 -33 -20 -74 q-9 -11 -14 -17l-27 -37l-19 -17q-10 -10 -16 -20l-4 -8q-2 -2 -25 -21q-2 -2 -16 -15l-57 -56q-50 -48 -64 -56q-20 -10 -22 -13l-10 -11q-4 -5 -16 -11l-18 -9q-47 -24 -54 -24q-67 0 -67 36z" />
<glyph unicode="&#x205f;" horiz-adv-x="462" />
</font>
</defs>
</svg>
